<?xml version='1.0' encoding='utf-8'?>
<svg xmlns="http://www.w3.org/2000/svg" version="1.1" width="1774" height="887" viewBox="0 0 1774 887"><path d="M0 0 C1.56578926 1.09333206 3.13225993 2.18568857 4.69921875 3.27734375 C7.26858015 5.06983192 9.83542692 6.86533859 12.39355469 8.67382812 C17.77366796 12.47534529 23.21854416 16.16269715 28.70922852 19.80249023 C31.69763959 21.79808991 34.66785863 23.81702626 37.63194275 25.84840393 C40.2504706 27.64098013 42.876349 29.42262 45.50292969 31.20336914 C46.85160068 32.12122384 48.19724212 33.04354366 49.54003906 33.9699707 C51.50846425 35.32651769 53.48721409 36.66660957 55.46875 38.00390625 C56.06667358 38.42144669 56.66459717 38.83898712 57.28063965 39.2691803 C60.47565895 41.45057523 60.47565895 41.45057523 64.21386719 41.8684082 C67.2408218 40.39671909 69.98333165 38.52618669 72.75 36.625 C73.74290039 35.95235107 73.74290039 35.95235107 74.75585938 35.26611328 C76.84153826 33.85026953 78.92117045 32.42587646 81 31 C82.2447116 30.15092428 83.48950106 29.30196269 84.734375 28.453125 C91.6856594 23.70071628 98.59825138 18.89257859 105.5090332 14.08154297 C107.49898686 12.69664828 109.48970702 11.3128543 111.48120117 9.93017578 C115.89473302 6.86502946 120.30143257 3.79274423 124.67578125 0.671875 C131.48388749 -4.15839612 137.88269439 -8.64987422 146 -11 C146.67417969 -11.22042969 147.34835937 -11.44085938 148.04296875 -11.66796875 C159.84047348 -14.96595788 174.87771927 -14.22155219 185.76904297 -8.56079102 C192.99197804 -4.29550731 199.97064263 0.23814532 206.875 5 C208.50739049 6.12028003 210.13978517 7.24055406 211.77250671 8.36035156 C212.87909587 9.11956681 213.98530803 9.87933182 215.09114075 10.63964844 C218.76301951 13.16190745 222.45528831 15.65150673 226.16015625 18.125 C258.75243936 39.9335899 258.75243936 39.9335899 263.53097534 59.13342285 C265.67088082 70.03757736 265.32847235 81.07352351 265.3359375 92.140625 C265.34237741 94.39443035 265.34910663 96.6482349 265.35610962 98.90203857 C265.36803813 103.61228369 265.37179499 108.32245571 265.37060547 113.03271484 C265.37040248 119.02835461 265.39770475 125.02351937 265.43214989 131.01904678 C265.45453315 135.67087908 265.45843953 140.32259908 265.45738602 144.97447968 C265.4597248 147.18297716 265.46844944 149.39147857 265.48405075 151.59992218 C265.61915556 172.6977103 263.49330893 190.74337566 248.33203125 206.734375 C241.63204904 213.24357044 233.82497386 218.19124577 226.0546875 223.30859375 C221.19533398 226.51699789 216.40962982 229.83069903 211.63061523 233.15722656 C195.3282474 244.44821217 180.15612627 249.76725445 160.19140625 246.34765625 C152.56329269 244.21398223 146.41681773 240.55519924 140 236 C138.7464645 235.12316764 137.49253135 234.24690361 136.23828125 233.37109375 C133.37641857 231.36485708 130.5235778 229.34646099 127.67578125 227.3203125 C122.71725147 223.79373099 117.73570775 220.30051547 112.75 216.8125 C111.90695312 216.22218994 111.06390625 215.63187988 110.1953125 215.02368164 C106.47761478 212.42267501 102.75660183 209.82701816 99.01953125 207.25390625 C98.4275293 206.84615967 97.83552734 206.43841309 97.22558594 206.01831055 C95.69474696 204.96591493 94.16191938 203.91641353 92.62890625 202.8671875 C91.32759766 201.94292969 91.32759766 201.94292969 90 201 C89.06027344 200.36320313 88.12054688 199.72640625 87.15234375 199.0703125 C85 197 85 197 84.38671875 194.4921875 C85.25211872 190.97546659 86.83740498 190.13058853 89.8125 188.125 C90.8128125 187.44695312 91.813125 186.76890625 92.84375 186.0703125 C93.8853125 185.38710938 94.926875 184.70390625 96 184 C96.9796875 183.31679688 97.959375 182.63359375 98.96875 181.9296875 C107.32053213 176.26240677 107.32053213 176.26240677 113 177 C115.61328125 178.328125 115.61328125 178.328125 118.3125 180.25 C119.35535156 180.98089844 120.39820313 181.71179688 121.47265625 182.46484375 C122.64845299 183.30987428 123.82423335 184.1549276 125 185 C126.3310046 185.94025707 127.66308149 186.87899763 128.99609375 187.81640625 C131.86716873 189.83701434 134.73365333 191.8639141 137.59765625 193.89453125 C141.93733682 196.96424971 146.30597263 199.99038846 150.6875 203 C151.33428711 203.44448486 151.98107422 203.88896973 152.64746094 204.34692383 C154.42911479 205.56836934 156.21390222 206.78506489 158 208 C159.05832031 208.721875 160.11664063 209.44375 161.20703125 210.1875 C165.3674046 212.88737865 168.11247185 214.31328283 173.125 214.4375 C173.99382812 214.47746094 174.86265625 214.51742187 175.7578125 214.55859375 C186.17319602 212.76413611 195.43107058 204.94898681 204.00610352 199.12573242 C206.31771421 197.55896591 208.6397753 196.00862542 210.96289062 194.45898438 C212.45117931 193.45409955 213.93883232 192.44827248 215.42578125 191.44140625 C216.11231277 190.98496231 216.7988443 190.52851837 217.50617981 190.0582428 C224.71535287 185.12028498 229.2072691 179.28830606 232 171 C232.51823652 167.66329257 232.53878659 164.40512149 232.50170898 161.03320312 C232.50711197 160.08074203 232.51251495 159.12828094 232.51808167 158.1469574 C232.53050346 155.02473063 232.51412128 151.90343786 232.49609375 148.78125 C232.49624889 146.59606885 232.49774035 144.41088742 232.50050354 142.22570801 C232.50188461 137.65636969 232.48937813 133.08734636 232.46655273 128.51806641 C232.43816938 122.67750429 232.44090954 116.83746513 232.45364285 110.99686432 C232.46061639 106.48768695 232.45279156 101.97862925 232.44038582 97.46946716 C232.43588762 95.31660929 232.43552017 93.1637385 232.43945122 91.01087952 C232.44237987 87.99591991 232.42577731 84.9816669 232.40405273 81.96679688 C232.40855438 81.08757065 232.41305603 80.20834442 232.41769409 79.30247498 C232.30497137 69.82946823 229.60413081 61.90185035 223 55 C220.48996639 52.95538098 217.8400738 51.28141273 215.0625 49.625 C213.54491011 48.68205547 212.02799555 47.73802331 210.51171875 46.79296875 C209.7542334 46.32681152 208.99674805 45.8606543 208.21630859 45.38037109 C204.88606157 43.30621195 201.63022043 41.12681735 198.375 38.9375 C197.46717773 38.33240601 197.46717773 38.33240601 196.54101562 37.71508789 C193.34806975 35.58603226 190.17236312 33.43454789 187.01171875 31.2578125 C186.35059082 30.80672119 185.68946289 30.35562988 185.00830078 29.89086914 C183.75843051 29.03760137 182.51289638 28.17792743 181.27294922 27.31030273 C173.56857361 22.07266947 166.34105974 19.90493226 157 21 C147.68619237 22.92214486 140.05557067 29.69205853 132.54394531 35.1640625 C127.80118132 38.58686338 122.99159575 41.91411355 118.1875 45.25 C117.19113525 45.94295166 116.19477051 46.63590332 115.16821289 47.34985352 C109.51783867 51.27334421 103.84731503 55.15303387 98.09765625 58.9296875 C95.48040611 60.67892151 92.89168124 62.45888568 90.30859375 64.2578125 C89.46522461 64.84280518 88.62185547 65.42779785 87.75292969 66.03051758 C86.08466284 67.18931847 84.4197489 68.35296652 82.75878906 69.5222168 C76.79277528 73.65698542 71.19378418 77.40887667 63.6875 77.5 C62.84574219 77.5309375 62.00398437 77.561875 61.13671875 77.59375 C51.77717618 75.82208067 43.72528837 69.32015427 36.0625 64 C34.95793628 63.23995389 33.85294924 62.48052263 32.74755859 61.72167969 C30.53245525 60.19979563 28.31963215 58.67469171 26.10888672 57.14648438 C22.55716945 54.69425426 18.99497442 52.25773022 15.43041992 49.82421875 C13.14737277 48.26527688 10.86636739 46.70339236 8.5859375 45.140625 C5.34318939 42.91887208 2.09807879 40.70061804 -1.1484375 38.484375 C-2.00195801 37.90139648 -2.85547852 37.31841797 -3.73486328 36.71777344 C-5.35524828 35.61109232 -6.9759891 34.50493192 -8.59716797 33.39941406 C-12.03539213 31.05007376 -15.45265928 28.68251725 -18.82421875 26.23828125 C-26.61293547 20.7488167 -34.60383191 19.69154238 -44 21 C-50.12064273 23.46551533 -55.58238478 27.20143127 -61.03125 30.8671875 C-61.86660278 31.42439484 -62.70195557 31.98160217 -63.56262207 32.55569458 C-65.31876668 33.7284607 -67.07342547 34.90345452 -68.82666016 36.08056641 C-71.48900132 37.86761732 -74.15617926 39.64725207 -76.82421875 41.42578125 C-78.53935297 42.57248232 -80.25420612 43.71960393 -81.96875 44.8671875 C-82.75544067 45.39238983 -83.54213135 45.91759216 -84.35266113 46.45870972 C-97.99724962 55.29486773 -97.99724962 55.29486773 -106 69 C-106.3091841 72.28686579 -106.30403682 75.56439386 -106.30639648 78.86401367 C-106.31472 79.85329865 -106.32304352 80.84258362 -106.33161926 81.86184692 C-106.35570245 85.13059435 -106.36449038 88.39914202 -106.37109375 91.66796875 C-106.3800629 93.94615233 -106.3891848 96.22433532 -106.39845276 98.5025177 C-106.41494185 103.27976919 -106.42264247 108.05695061 -106.42553711 112.83422852 C-106.43091396 118.93948596 -106.46856635 125.0440796 -106.51428127 131.14914989 C-106.54410811 135.85651519 -106.55126194 140.56372192 -106.55226326 145.27117348 C-106.55645605 147.5209284 -106.56885228 149.77068421 -106.58978081 152.02034569 C-106.61680453 155.177056 -106.61183585 158.33224461 -106.59936523 161.48901367 C-106.61419952 162.40833176 -106.62903381 163.32764984 -106.64431763 164.27482605 C-106.55939585 171.86952223 -104.32472601 178.44744526 -99.06470776 184.06790924 C-94.6653974 188.10189385 -89.70365693 191.40781289 -84.703125 194.64453125 C-83.9470697 195.1403923 -83.1910144 195.63625336 -82.41204834 196.1471405 C-80.83077926 197.18259647 -79.24760706 198.21515165 -77.66259766 199.24487305 C-75.23820452 200.82016431 -72.81985187 202.40440187 -70.40234375 203.99023438 C-68.85711131 205.00052095 -67.31154998 206.01030471 -65.765625 207.01953125 C-65.0457843 207.49034622 -64.3259436 207.96116119 -63.58428955 208.44624329 C-62.57238556 209.10284187 -62.57238556 209.10284187 -61.54003906 209.77270508 C-60.95127991 210.15574295 -60.36252075 210.53878082 -59.75592041 210.9334259 C-53.84781373 214.52210425 -48.86572473 214.91434146 -42 214 C-34.43433021 211.37851951 -28.08279503 206.82603218 -21.73828125 202.04296875 C-19.10608678 200.07914891 -16.42864255 198.24532077 -13.6875 196.4375 C1.34944002 186.5041248 16.1592158 176.22330816 31 166 C33.54126209 164.24941155 36.08288065 162.49934337 38.625 160.75 C39.27291504 160.30406494 39.92083008 159.85812988 40.58837891 159.39868164 C44.4503225 156.74365351 48.31967771 154.09985029 52.1953125 151.46484375 C62.13548742 144.70623103 72.03969843 137.90354895 81.87524414 130.9934082 C86.95869976 127.42318142 92.0615625 123.88392452 97.1875 120.375 C102.57128978 116.68700318 107.92230711 112.95607924 113.25 109.1875 C113.94689941 108.69507813 114.64379883 108.20265625 115.36181641 107.6953125 C118.38973658 105.5552063 121.41692288 103.41411661 124.43994141 101.26708984 C129.47106952 97.69601365 134.51980356 94.15301577 139.6015625 90.65429688 C141.16079843 89.5788304 142.71575349 88.49712147 144.265625 87.40820312 C158.49275725 77.46712241 158.49275725 77.46712241 166.6015625 78.34375 C173.09896039 80.12153965 177.09855854 83.5371252 180.90989494 88.97033691 C182.78451631 92.46068839 182.6896177 95.7796355 182.63110352 99.66992188 C182.64183647 100.92743004 182.64183647 100.92743004 182.65278625 102.21034241 C182.66960591 104.96371027 182.65031089 107.71543431 182.62890625 110.46875 C182.62973557 112.3925388 182.63219734 114.31632752 182.63621521 116.2401123 C182.6390686 120.26494771 182.62441681 124.28922523 182.59692383 128.31396484 C182.56284197 133.46215679 182.5688637 138.60935157 182.5875864 143.75759125 C182.59817621 147.72800953 182.58920057 151.69819747 182.57420158 155.66859436 C182.56903385 157.56632299 182.5694844 159.46407581 182.57574654 161.36180115 C182.58122274 164.01841604 182.56074753 166.67362377 182.53344727 169.33007812 C182.54323608 170.49610313 182.54323608 170.49610313 182.55322266 171.6856842 C182.45722203 177.20482732 181.12939193 180.43570501 178 185 C175.10834976 187.42273399 173.37315484 187.95162808 169.625 188.4375 C163.29315688 187.67331204 158.72652915 184.17046689 154 180 C152.70336078 177.40672157 152.87996431 175.53591932 152.88647461 172.63232422 C152.88655014 171.51131317 152.88662567 170.39030212 152.88670349 169.23532104 C152.89186478 168.02071198 152.89702606 166.80610291 152.90234375 165.5546875 C152.90446617 163.69446457 152.90446617 163.69446457 152.90663147 161.79666138 C152.91128904 158.49881867 152.92027561 155.20102454 152.93133545 151.90319824 C152.94156269 148.53833613 152.94613191 145.17346692 152.95117188 141.80859375 C152.96221731 135.20571007 152.97896753 128.60285901 153 122 C144.30810822 127.76165405 135.66236251 133.57313441 127.125 139.5625 C118.95737114 145.2694738 110.74852945 150.91063292 102.5 156.5 C94.52456738 161.90525005 86.5851032 167.35666601 78.6875 172.875 C70.02637444 178.92501203 61.31010758 184.88866058 52.5625 190.8125 C51.96072937 191.22007538 51.35895874 191.62765076 50.73895264 192.0475769 C48.39700835 193.63368849 46.05501175 195.21972278 43.71292114 196.80561829 C32.56523232 204.35617265 21.51128152 212.02923752 10.51953125 219.8046875 C5.49753499 223.35658616 0.47044207 226.90112737 -4.5625 230.4375 C-5.38331055 231.01669189 -6.20412109 231.59588379 -7.04980469 232.19262695 C-24.58988717 244.50255622 -39.87406409 249.88000982 -61.515625 246.44140625 C-74.39627855 242.76373331 -85.96303789 233.17140182 -96.69824219 225.46728516 C-100.7404797 222.56814703 -104.82968086 219.79116963 -109.01928711 217.10986328 C-123.75400581 207.62428263 -134.01726586 196.04008146 -138.18383789 178.63848877 C-140.10920978 169.06418055 -139.57056648 159.08407479 -139.53125 149.3671875 C-139.53395077 146.99838095 -139.53783803 144.6295755 -139.54284668 142.26077271 C-139.54871186 137.32038717 -139.54027368 132.38029283 -139.52148438 127.43994141 C-139.49867199 121.13801899 -139.51185214 114.83677733 -139.53577423 108.53487968 C-139.55029151 103.65152949 -139.54559947 98.76833829 -139.53526306 93.88498306 C-139.53261346 91.56237836 -139.53580259 89.23975876 -139.54518127 86.91717148 C-139.60661438 67.43697762 -137.6265938 50.26605555 -123.61328125 35.35546875 C-118.31915418 30.58363224 -112.39646036 26.66686238 -106.49804688 22.68603516 C-103.88169263 20.92014946 -101.27599641 19.13933892 -98.671875 17.35546875 C-94.96219411 14.81586525 -91.24525107 12.2874085 -87.5234375 9.765625 C-83.90177522 7.30711505 -80.30466686 4.81833091 -76.7265625 2.296875 C-75.88722168 1.70962646 -75.04788086 1.12237793 -74.18310547 0.51733398 C-72.62176961 -0.57666645 -71.06559994 -1.67809891 -69.51611328 -2.78881836 C-46.84828651 -18.59779286 -21.6396921 -15.34256838 0 0 Z " fill="#0D0E0F" transform="translate(246,343)" /><path d="M0 0 C10.23 0 20.46 0 31 0 C39.99355076 12.3661323 39.99355076 12.3661323 43.4453125 17.6796875 C43.81761993 18.25070694 44.18992737 18.82172638 44.57351685 19.41004944 C45.35772547 20.61330138 46.14071006 21.81735194 46.92248535 23.02218628 C49.00182235 26.22599267 51.09159155 29.4229922 53.1796875 32.62109375 C53.80157959 33.57439323 53.80157959 33.57439323 54.43603516 34.54695129 C58.0135132 40.02860092 61.61930481 45.49093042 65.25 50.9375 C65.79495117 51.75565186 66.33990234 52.57380371 66.90136719 53.41674805 C69.96686181 58.00367318 73.06796006 62.56438444 76.1953125 67.109375 C76.89237305 68.12394775 77.58943359 69.13852051 78.30761719 70.18383789 C79.66063124 72.1496069 81.01789279 74.11246082 82.37988281 76.07202148 C82.98413086 76.94930908 83.58837891 77.82659668 84.2109375 78.73046875 C84.75024902 79.50801514 85.28956055 80.28556152 85.84521484 81.08666992 C87 83 87 83 87 85 C87.66 85 88.32 85 89 85 C89.20625 84.35289062 89.4125 83.70578125 89.625 83.0390625 C91.56016935 78.76189842 94.26387658 75.17592956 97 71.375 C102.77666003 63.24384675 108.36992246 55.00389491 113.875 46.6875 C121.43126603 35.28487807 129.16182435 24.01395902 137.0222168 12.81811523 C139.00958432 10.14652538 139.00958432 10.14652538 140.18166828 7.55926609 C141.86526543 4.48598395 143.36483704 2.3285822 146 0 C151.18509819 -1.24811556 156.16947625 -0.95083179 161.4375 -0.625 C162.85075381 -0.57477546 164.26417934 -0.52915907 165.67773438 -0.48828125 C169.12208878 -0.37869929 172.55994104 -0.20656243 176 0 C176.02332692 21.49605516 176.04097815 42.99210825 176.05181217 64.48817348 C176.05697557 74.46843831 176.0640191 84.44869529 176.07543945 94.42895508 C176.08538496 103.1244614 176.09185311 111.81996205 176.09408849 120.5154739 C176.09539583 125.12263731 176.09848312 129.72978446 176.10573006 134.33694267 C176.11248817 138.66818592 176.11461739 142.99940612 176.11310768 147.33065414 C176.1133841 148.92505455 176.11539047 150.51945568 176.11920547 152.11385155 C176.12413947 154.28116571 176.1229994 156.44839143 176.12025452 158.6157074 C176.12163721 160.43947482 176.12163721 160.43947482 176.12304783 162.30008602 C176 165 176 165 175 166 C165.76 166 156.52 166 147 166 C146.67 128.05 146.34 90.1 146 51 C141.71 56.94 137.42 62.88 133 69 C129.30859375 74.09765625 129.30859375 74.09765625 127.8449707 76.11816406 C122.62068741 83.33519652 117.44712711 90.5856917 112.31933594 97.87158203 C108.72089308 102.98433967 105.1107946 108.08861833 101.44555664 113.15380859 C99.5663008 115.75867981 97.7590644 118.37888679 96.03515625 121.08984375 C95.44605469 122.00894531 94.85695313 122.92804688 94.25 123.875 C93.76015625 124.67679687 93.2703125 125.47859375 92.765625 126.3046875 C91 128 91 128 88.08984375 128.6015625 C83.79725565 127.76583738 82.83227816 126.02512259 80.3125 122.5 C79.89025146 121.91903564 79.46800293 121.33807129 79.03295898 120.73950195 C77.66514853 118.84184386 76.3302797 116.92412038 75 115 C74.55462891 114.36368652 74.10925781 113.72737305 73.65039062 113.07177734 C70.85587956 109.07659432 68.1043895 105.05350479 65.36914062 101.01757812 C63.19621769 97.81553904 61.00498609 94.62616307 58.8125 91.4375 C58.37462158 90.80013916 57.93674316 90.16277832 57.4855957 89.50610352 C48.39417046 76.28875441 39.19953344 63.14219063 30 50 C29.67 87.95 29.34 125.9 29 165 C19.43 165 9.86 165 0 165 C0 110.55 0 56.1 0 0 Z " fill="#0D0E0F" transform="translate(620,381)" /><path d="M0 0 C1.47583955 0.0001591 2.95168467 0.00585225 4.42749023 0.01586914 C5.20293686 0.01728409 5.97838348 0.01869904 6.77732849 0.02015686 C9.26361893 0.02577194 11.74982059 0.03832693 14.23608398 0.05102539 C15.91772331 0.05603845 17.59936405 0.06060169 19.28100586 0.06469727 C23.41189965 0.07574626 27.54272674 0.09302094 31.67358398 0.11352539 C32.62121066 2.62747089 33.56764581 5.14185465 34.51342773 7.65649414 C34.77812866 8.35834839 35.04282959 9.06020264 35.31555176 9.7833252 C37.01720417 14.31105268 38.65046533 18.85636052 40.23608398 23.42602539 C42.04782928 28.54290347 44.12482614 33.43430549 46.42358398 38.34790039 C49.79007388 45.79625929 52.47717138 53.52847061 55.17358398 61.23852539 C56.98224205 66.35460491 59.04888782 71.23094232 61.35717773 76.13696289 C63.25180808 80.42096386 64.8291486 84.80973795 66.44067383 89.20629883 C68.22501883 94.03102102 70.26405322 98.67296002 72.45483398 103.32836914 C74.35778616 107.67710279 75.85208765 112.15966603 77.36499023 116.65649414 C78.54746368 119.78034191 79.95954995 122.66186237 81.48046875 125.62988281 C83.91379918 130.69521337 85.95880819 135.93516203 88.04736328 141.14990234 C88.86197702 143.178249 89.68845762 145.20149943 90.51538086 147.22485352 C91.04150478 148.53250142 91.56691994 149.84043477 92.09155273 151.14868164 C92.56359131 152.31794189 93.03562988 153.48720215 93.52197266 154.69189453 C94.67358398 158.11352539 94.67358398 158.11352539 95.67358398 165.11352539 C85.77358398 165.11352539 75.87358398 165.11352539 65.67358398 165.11352539 C63.23882004 159.63530652 60.87634283 154.23542388 58.68920898 148.67211914 C57.98855691 146.90701489 57.26855874 145.14950983 56.53295898 143.39868164 C55.98381836 142.0819043 55.98381836 142.0819043 55.42358398 140.73852539 C55.08842773 139.94704102 54.75327148 139.15555664 54.40795898 138.34008789 C53.67358398 136.11352539 53.67358398 136.11352539 53.67358398 132.11352539 C27.27358398 132.11352539 0.87358398 132.11352539 -26.32641602 132.11352539 C-27.31641602 135.41352539 -28.30641602 138.71352539 -29.32641602 142.11352539 C-30.11693321 144.47516455 -30.92716175 146.83036999 -31.76391602 149.17602539 C-32.15450195 150.28075195 -32.54508789 151.38547852 -32.94750977 152.52368164 C-34.58387746 156.78380038 -36.47296848 160.94326843 -38.32641602 165.11352539 C-48.22641602 165.11352539 -58.12641602 165.11352539 -68.32641602 165.11352539 C-67.58053148 159.89233367 -67.09436253 157.02251913 -65.07641602 152.48852539 C-63.2275353 148.22759914 -61.47222623 143.95721437 -59.82641602 139.61352539 C-57.82017004 134.34948815 -55.69742729 129.14603189 -53.51391602 123.95336914 C-51.39370936 118.8830065 -49.36718963 113.77469044 -47.36547852 108.65649414 C-45.66059925 104.32610081 -43.86363658 100.07831959 -41.88891602 95.86352539 C-39.49363474 90.67008679 -37.57394746 85.37323389 -35.73266602 79.96118164 C-34.22687185 75.69652393 -32.44386391 71.55030183 -30.69165039 67.38232422 C-28.341409 61.75510999 -26.08774614 56.08942387 -23.82641602 50.42602539 C-23.31299131 49.14257691 -22.7995635 47.85912968 -22.28613281 46.57568359 C-19.39669985 39.34503433 -16.53218573 32.10494519 -13.68969727 24.85571289 C-13.39163177 24.09616806 -13.09356628 23.33662323 -12.78646851 22.55406189 C-11.33003709 18.84195975 -9.8765921 15.12873424 -8.42797852 11.41357422 C-7.9007263 10.06742834 -7.37338714 8.7213165 -6.84594727 7.37524414 C-6.38293213 6.18890381 -5.91991699 5.00256348 -5.44287109 3.78027344 C-3.91618484 0.13365328 -3.91618484 0.13365328 0 0 Z " fill="#0D0D0F" transform="translate(1518.326416015625,380.886474609375)" /><path d="M0 0 C6.7279062 4.82649672 11.99177858 10.29081108 16.59814453 17.14648438 C17.03900391 17.77167969 17.47986328 18.396875 17.93408203 19.04101562 C26.18390633 31.3157542 28.43724347 45.78826284 25.98486328 60.22851562 C22.89671842 75.40046711 14.26812533 88.76217023 1.72314453 97.89648438 C-18.26257844 111.06820134 -40.08747384 113.89386912 -63.40185547 109.14648438 C-82.0187332 103.88519284 -96.13174455 91.56828635 -105.47412109 74.90771484 C-112.38756307 61.78309106 -112.29169447 45.17297887 -108.43310547 31.06054688 C-102.50530203 14.31001139 -89.83684713 1.57442037 -74.27685547 -6.53710938 C-49.67186209 -17.80325444 -22.11921009 -15.21127832 0 0 Z " fill="#0E0E0F" transform="translate(1320.40185546875,437.853515625)" /><path d="M0 0 C1.25731934 0.28665527 1.25731934 0.28665527 2.54003906 0.57910156 C17.20488812 4.1019424 30.38699824 15.10770556 38.53515625 27.53125 C46.17514775 40.40718234 47.19536907 54.26381152 46 69 C44.4728109 70.5271891 43.10021748 70.14009536 40.96946716 70.15821838 C40.10143463 70.1680072 39.2334021 70.17779602 38.33906555 70.18788147 C36.89976936 70.19651466 36.89976936 70.19651466 35.43139648 70.20532227 C34.42663269 70.21522186 33.4218689 70.22512146 32.38665771 70.23532104 C29.04816079 70.26704084 25.70964961 70.29173473 22.37109375 70.31640625 C20.06323363 70.33696674 17.75537736 70.35796296 15.44752502 70.37937927 C9.35986433 70.43469347 3.27216914 70.48406138 -2.81555176 70.53222656 C-9.0222482 70.58237352 -15.22889426 70.63809502 -21.43554688 70.69335938 C-33.62365492 70.80105521 -45.81180663 70.90247463 -58 71 C-57.21012527 72.91740583 -56.41802852 74.83389641 -55.625 76.75 C-55.18414063 77.81734375 -54.74328125 78.8846875 -54.2890625 79.984375 C-51.99322028 85.78087786 -51.99322028 85.78087786 -47 89 C-45.45463027 89.97331181 -43.91322515 90.9529357 -42.375 91.9375 C-30.5514749 98.93579489 -17.6095466 99.74808813 -4.19921875 97.30859375 C4.42948433 94.88525646 12.01021406 90.77106237 18 84 C23.3537465 85.55652055 28.00150947 87.9817509 32.875 90.625 C33.65875 91.04523438 34.4425 91.46546875 35.25 91.8984375 C37.16892057 92.9281022 39.08477603 93.96347567 41 95 C35.64119068 106.26071136 23.70238732 113.24740878 12.5625 117.8125 C2.48514444 121.38719789 -6.93603144 122.17110318 -17.5625 122.25 C-18.99891846 122.2641394 -18.99891846 122.2641394 -20.46435547 122.27856445 C-39.65637347 122.19149229 -56.09585623 115.52881103 -70.1875 102.4375 C-82.89921245 89.06969917 -87.52630434 74.58162265 -87.42260742 56.31396484 C-87.2179653 49.3134712 -86.00382676 43.37260443 -83 37 C-82.57589844 36.07058594 -82.15179687 35.14117187 -81.71484375 34.18359375 C-73.09915751 16.92822215 -57.56302493 5.74704669 -39.625 -0.375 C-26.8365228 -3.79285582 -12.78777219 -2.99664191 0 0 Z " fill="#0E0E10" transform="translate(909,427)" /><path d="M0 0 C11.06235926 7.74693408 18.51227931 17.24543975 21.0625 30.75 C21.31253652 33.62835267 21.31699147 36.48141186 21.28955078 39.36914062 C21.28984283 40.18960876 21.29013489 41.0100769 21.29043579 41.85540771 C21.28905408 44.53913335 21.27354806 47.22257349 21.2578125 49.90625 C21.25407824 51.77811532 21.25123322 53.64998261 21.24923706 55.52185059 C21.24163311 60.4274646 21.22201267 65.33295853 21.1998291 70.23852539 C21.17930066 75.25275041 21.17022042 80.26699499 21.16015625 85.28125 C21.13876351 95.10422768 21.103608 104.92708502 21.0625 114.75 C12.1525 114.75 3.2425 114.75 -5.9375 114.75 C-5.95208252 112.50010254 -5.96666504 110.25020508 -5.98168945 107.93212891 C-6.03220337 100.46815478 -6.09882735 93.0043856 -6.17321491 85.54061317 C-6.21779329 81.01879307 -6.25707646 76.49706048 -6.28393555 71.97509766 C-6.3100943 67.60475 -6.35058395 63.23474136 -6.40068626 58.86460495 C-6.41727046 57.20384336 -6.42883701 55.54302324 -6.43511391 53.8821907 C-6.15162352 37.90736844 -6.15162352 37.90736844 -13.1484375 24.0625 C-22.02389789 17.55124521 -32.3032377 16.19103746 -42.9375 16.75 C-51.75202222 18.59820627 -59.39160351 22.61453616 -64.56350708 30.10491943 C-69.64509124 39.2277017 -69.80464388 47.17793089 -69.7421875 57.328125 C-69.75346121 58.99251208 -69.76735204 60.65688327 -69.78372192 62.32122803 C-69.81949608 66.66139215 -69.82016732 71.00084812 -69.81304932 75.34112549 C-69.81213099 79.78613655 -69.84507148 84.2308898 -69.875 88.67578125 C-69.92861414 97.36734531 -69.94193779 106.05827156 -69.9375 114.75 C-78.8475 114.75 -87.7575 114.75 -96.9375 114.75 C-96.9375 75.48 -96.9375 36.21 -96.9375 -4.25 C-88.0275 -4.25 -79.1175 -4.25 -69.9375 -4.25 C-69.4425 2.68 -69.4425 2.68 -68.9375 9.75 C-67.08125 7.708125 -67.08125 7.708125 -65.1875 5.625 C-48.50686673 -11.08194342 -19.72557439 -11.8083233 0 0 Z " fill="#0F1011" transform="translate(1077.9375,432.25)" /><path d="M0 0 C0 11.22 0 22.44 0 34 C10.48623165 33.96040089 10.48623165 33.96040089 20.97241211 33.90991211 C22.26928955 33.90741455 23.56616699 33.90491699 24.90234375 33.90234375 C25.58816528 33.89722778 26.27398682 33.89211182 26.98059082 33.88684082 C28.65415231 33.88652946 30.3275958 33.93777163 32 34 C33 35 33 35 33.11352539 37.22485352 C33.10567017 38.66235962 33.10567017 38.66235962 33.09765625 40.12890625 C33.09515869 41.06033447 33.09266113 41.9917627 33.09008789 42.95141602 C33.08098389 44.14307373 33.07187988 45.33473145 33.0625 46.5625 C33.041875 50.336875 33.02125 54.11125 33 58 C22.11 58 11.22 58 0 58 C0.09081261 69.25312208 0.09081261 69.25312208 0.20898438 80.50585938 C0.26326805 85.09689217 0.31437939 89.68780392 0.34643555 94.27905273 C0.37248767 97.98157695 0.41290288 101.68369372 0.46318626 105.38596535 C0.47984221 106.79686214 0.49136444 108.20782939 0.49761391 109.61881065 C0.50726789 111.59844548 0.53703951 113.577951 0.56762695 115.55737305 C0.58428154 117.24614815 0.58428154 117.24614815 0.60127258 118.96903992 C1.18827071 123.4311557 2.78373402 126.062969 6.32885742 128.79418945 C9.37047687 130.16724114 11.41371359 130.34630406 14.73828125 130.29296875 C16.33833008 130.2784668 16.33833008 130.2784668 17.97070312 130.26367188 C19.07349609 130.23853516 20.17628906 130.21339844 21.3125 130.1875 C22.43462891 130.17396484 23.55675781 130.16042969 24.71289062 130.14648438 C27.47546683 130.11121744 30.2377953 130.05741303 33 130 C33 137.59 33 145.18 33 153 C17.25650727 154.96793659 -1.43228068 156.65126426 -15 147 C-17.75 144.625 -17.75 144.625 -20 142 C-20.43054687 141.49855469 -20.86109375 140.99710938 -21.3046875 140.48046875 C-28.54215772 131.33727413 -28.41954405 120.7368234 -28.29296875 109.5859375 C-28.28736115 108.12049803 -28.28309657 106.65505286 -28.28010559 105.18960571 C-28.26874821 101.36566148 -28.23936178 97.54206876 -28.20599365 93.71826172 C-28.17509421 89.80310824 -28.16155815 85.88789698 -28.14648438 81.97265625 C-28.11448133 74.3149267 -28.06179027 66.65755774 -28 59 C-35.92 59 -43.84 59 -52 59 C-52.020625 55.060625 -52.04125 51.12125 -52.0625 47.0625 C-52.07615601 45.19670288 -52.07615601 45.19670288 -52.09008789 43.29321289 C-52.09383423 41.83516235 -52.09383423 41.83516235 -52.09765625 40.34765625 C-52.10289307 39.34742432 -52.10812988 38.34719238 -52.11352539 37.31665039 C-52 35 -52 35 -51 34 C-49.29227642 33.91286169 -47.58101351 33.89299993 -45.87109375 33.90234375 C-44.93966553 33.90484131 -44.0082373 33.90733887 -43.04858398 33.90991211 C-41.26109741 33.92356812 -41.26109741 33.92356812 -39.4375 33.9375 C-35.663125 33.958125 -31.88875 33.97875 -28 34 C-28 25.42 -28 16.84 -28 8 C-14.32432432 3.02702703 -14.32432432 3.02702703 -10.625 1.75 C-9.66851563 1.41484375 -8.71203125 1.0796875 -7.7265625 0.734375 C-5 0 -5 0 0 0 Z " fill="#101112" transform="translate(1166,393)" /><path d="M0 0 C5.30292468 2.94970079 10.17503646 6.50892405 15.06640625 10.0859375 C19.95050604 13.65293657 24.90989104 17.10952717 29.875 20.5625 C30.82938965 21.22693115 31.7837793 21.8913623 32.76708984 22.57592773 C38.45065467 26.52133292 44.15753978 30.42983867 49.88671875 34.30859375 C50.5264563 34.74177414 51.16619385 35.17495453 51.82531738 35.6212616 C54.97606634 37.75340304 58.12926057 39.88182498 61.28564453 42.00561523 C62.43653642 42.78237009 63.58741595 43.55914326 64.73828125 44.3359375 C65.75446533 45.01962402 66.77064941 45.70331055 67.81762695 46.40771484 C70.25 48.125 70.25 48.125 72.25 50.125 C72.1875 52.50390625 72.1875 52.50390625 71.25 55.125 C69.0625 57.15234375 69.0625 57.15234375 66.25 59.0625 C64.75919922 60.08150391 64.75919922 60.08150391 63.23828125 61.12109375 C62.25214844 61.78238281 61.26601563 62.44367188 60.25 63.125 C59.41855469 63.73472656 58.58710938 64.34445312 57.73046875 64.97265625 C56.97378906 65.51792969 56.21710938 66.06320312 55.4375 66.625 C54.77105469 67.1096875 54.10460937 67.594375 53.41796875 68.09375 C50.4239972 69.51790944 48.54194117 69.54924025 45.25 69.125 C42.86216143 67.87615465 40.81435448 66.65220523 38.625 65.125 C38.01454834 64.71564209 37.40409668 64.30628418 36.77514648 63.88452148 C35.52281192 63.04318287 34.27432302 62.19609115 33.02978516 61.34326172 C30.47659347 59.59560376 27.8927534 57.8948666 25.3125 56.1875 C23.8728262 55.2227195 22.43318044 54.25789707 20.99375916 53.29273987 C17.78963962 51.14704325 14.5800463 49.00955265 11.37109375 46.87109375 C10.33897766 46.18315735 10.33897766 46.18315735 9.28601074 45.48132324 C7.60738485 44.36248228 5.9286987 43.24373173 4.25 42.125 C4.24635437 42.79041306 4.24270874 43.45582611 4.23895264 44.1414032 C4.19713523 51.06850075 4.12779435 57.99493528 4.04248047 64.92163086 C4.01425863 67.50652433 3.99305021 70.0915043 3.97900391 72.67651367 C3.95759223 76.39286623 3.91094764 80.10817747 3.859375 83.82421875 C3.85814636 84.97959641 3.85691772 86.13497406 3.85565186 87.32536316 C3.70889896 95.36862881 3.70889896 95.36862881 1.32543945 99.29711914 C-0.51600378 100.91891487 -2.29221643 102.48294779 -4.3125 103.875 C-4.89128906 104.28234375 -5.47007812 104.6896875 -6.06640625 105.109375 C-9.91437788 107.43065719 -13.36176561 107.49688427 -17.75 107.125 C-22.1053457 104.81922875 -25.08309884 102.25928579 -27.75 98.125 C-28.14744129 95.19517031 -28.31787706 92.64096186 -28.29931641 89.71386719 C-28.30953827 88.87903305 -28.31976013 88.04419891 -28.33029175 87.18406677 C-28.35804473 84.42970935 -28.35617282 81.67635548 -28.3515625 78.921875 C-28.35934064 77.00001659 -28.36801085 75.0781616 -28.37753296 73.15631104 C-28.39245036 69.12801983 -28.39188182 65.10007916 -28.38134766 61.07177734 C-28.36978007 55.92572234 -28.40356677 50.78111217 -28.450037 45.63529587 C-28.47960266 41.66479186 -28.48124262 37.69463177 -28.47501755 33.72403717 C-28.47604015 31.82792558 -28.48644377 29.93179378 -28.50664139 28.03578949 C-28.67363345 10.1617731 -28.67363345 10.1617731 -23.3543396 3.65020752 C-16.52143101 -2.84567624 -8.67176169 -4.00125622 0 0 Z " fill="#0F0F11" transform="translate(216.75,423.875)" /><path d="M0 0 C8.88571855 6.08836271 14.55091408 12.01337059 17.25 22.75 C18.69967346 33.62255091 17.85191289 44.3204435 11.33203125 53.4296875 C6.41729076 59.29258146 1.11693697 63.41557387 -5.75 66.75 C-6.41 67.08902344 -7.07 67.42804688 -7.75 67.77734375 C-17.98005321 72.11312802 -32.1149903 70.99500383 -42.2109375 67.00390625 C-46.21114641 65.02841846 -49.48682328 62.78883332 -52.75 59.75 C-53.45125 59.10160156 -54.1525 58.45320312 -54.875 57.78515625 C-62.90648436 49.62079807 -65.48283866 40.12961557 -65.42749023 28.83178711 C-64.91342315 19.03406662 -60.32707399 10.68551277 -53.125 4.0625 C-37.85492927 -8.36855036 -16.89105583 -10.22655761 0 0 Z " fill="#FBFBFB" transform="translate(1301.75,455.25)" /><path d="M0 0 C9.24 0 18.48 0 28 0 C28 54.45 28 108.9 28 165 C18.76 165 9.52 165 0 165 C0 110.55 0 56.1 0 0 Z " fill="#0A0B0C" transform="translate(1636,381)" /><path d="M0 0 C0 8.58 0 17.16 0 26 C-2.18625 26.04125 -4.3725 26.0825 -6.625 26.125 C-16.38665528 26.61555707 -25.81638544 29.59509373 -33.125 36.375 C-39.00836833 43.07550282 -41.0932344 50.01320701 -41.20532227 58.78808594 C-41.22017166 59.79845665 -41.22017166 59.79845665 -41.23532104 60.82923889 C-41.26681658 63.04758229 -41.29164597 65.26594707 -41.31640625 67.484375 C-41.33698611 69.02566066 -41.35798285 70.5669408 -41.37937927 72.10821533 C-41.4344934 76.15891038 -41.48394954 80.20965547 -41.53222656 84.26043701 C-41.58251956 88.39632606 -41.63816487 92.53214272 -41.69335938 96.66796875 C-41.80081054 104.77858621 -41.9017895 112.88926538 -42 121 C-50.91 121 -59.82 121 -69 121 C-69 81.73 -69 42.46 -69 2 C-60.09 2 -51.18 2 -42 2 C-41.505 10.415 -41.505 10.415 -41 19 C-40.21625 17.824375 -39.4325 16.64875 -38.625 15.4375 C-28.84005278 2.4902045 -15.45781334 -0.61219063 0 0 Z " fill="#0E0E10" transform="translate(1438,426)" /><path d="M0 0 C0.66 0 1.32 0 2 0 C6.5564708 11.51598434 11.11077552 23.03282148 15.6612854 34.55116272 C17.68114498 39.66364675 19.70251315 44.77552617 21.72648621 49.88638306 C22.98630618 53.06930672 24.24295611 56.25347898 25.5 59.4375 C25.94964111 60.5709082 26.39928223 61.70431641 26.86254883 62.87207031 C27.26884521 63.90299805 27.6751416 64.93392578 28.09375 65.99609375 C28.44115234 66.87450928 28.78855469 67.7529248 29.14648438 68.65795898 C30 71 30 71 31 75 C11.53 75 -7.94 75 -28 75 C-27.18815793 70.12894758 -26.05802747 66.11055575 -24.26171875 61.59375 C-23.9846106 60.88371323 -23.70750244 60.17367645 -23.42199707 59.44212341 C-22.51618973 57.12580471 -21.60199779 54.81289983 -20.6875 52.5 C-20.05793844 50.89542494 -19.42879237 49.29068679 -18.80004883 47.68579102 C-14.13742159 35.80374123 -9.41314791 23.94566677 -4.64526367 12.10546875 C-4.17838135 10.9453125 -3.71149902 9.78515625 -3.23046875 8.58984375 C-2.82207764 7.57784912 -2.41368652 6.56585449 -1.99291992 5.52319336 C-1.27620609 3.70189082 -0.61893632 1.85680895 0 0 Z " fill="#F8F8F8" transform="translate(1531,414)" /><path d="M0 0 C7.39907507 5.17378933 12.10467053 10.91661009 14.703125 19.578125 C14.703125 20.568125 14.703125 21.558125 14.703125 22.578125 C-11.366875 22.578125 -37.436875 22.578125 -64.296875 22.578125 C-61.83527303 12.73171713 -56.76374284 5.36037621 -48.296875 -0.421875 C-33.12679122 -9.28750838 -14.88675118 -9.21560788 0 0 Z " fill="#F5F5F5" transform="translate(914.296875,454.421875)" /><path d="M0 0 C6.30168878 9.45253316 6.54422554 20.0701371 6 31 C5.67 31 5.34 31 5 31 C4.86722656 29.69804687 4.73445313 28.39609375 4.59765625 27.0546875 C4.41936886 25.32811487 4.24097798 23.60155293 4.0625 21.875 C3.97548828 21.0190625 3.88847656 20.163125 3.79882812 19.28125 C3.33583609 14.82280819 2.80306863 10.41326006 2 6 C1.34 6 0.68 6 0 6 C-1 3 -1 3 0 0 Z " fill="#69686A" transform="translate(1341,463)" /><path d="M0 0 C0.66 0.99 1.32 1.98 2 3 C-0.24708394 6.40936873 -2.55079811 9.73439748 -5 13 C-5.33 13.66 -5.66 14.32 -6 15 C-6.66 15 -7.32 15 -8 15 C-6.51194289 9.19657726 -3.40902445 4.82409121 0 0 Z " fill="#2A2A2B" transform="translate(835,449)" /><path d="M0 0 C0.33 0 0.66 0 1 0 C1 1.98 1 3.96 1 6 C1.99 6.33 2.98 6.66 4 7 C3.44855089 11.08072342 3.08669204 11.91330796 0 15 C0 10.05 0 5.1 0 0 Z " fill="#F1F1F1" transform="translate(1396,431)" /><path d="M0 0 C1.06669922 0.00322266 2.13339844 0.00644531 3.23242188 0.00976562 C4.88661133 0.02233398 4.88661133 0.02233398 6.57421875 0.03515625 C7.69634766 0.03966797 8.81847656 0.04417969 9.97460938 0.04882812 C12.73703385 0.06058312 15.49934873 0.07701548 18.26171875 0.09765625 C18.26171875 0.42765625 18.26171875 0.75765625 18.26171875 1.09765625 C17.32320068 1.13524048 17.32320068 1.13524048 16.36572266 1.17358398 C13.53917256 1.28940898 10.71296706 1.4121961 7.88671875 1.53515625 C6.40945313 1.59413086 6.40945313 1.59413086 4.90234375 1.65429688 C3.49082031 1.71713867 3.49082031 1.71713867 2.05078125 1.78125 C1.18146973 1.81790771 0.3121582 1.85456543 -0.58349609 1.89233398 C-2.78660745 1.97167169 -2.78660745 1.97167169 -4.73828125 3.09765625 C-6.74628581 2.81653561 -8.74842176 2.48697658 -10.73828125 2.09765625 C-10.73828125 1.76765625 -10.73828125 1.43765625 -10.73828125 1.09765625 C-7.09180065 0.25660845 -3.73877218 -0.01999343 0 0 Z " fill="#565758" transform="translate(1271.73828125,424.90234375)" /><path d="M0 0 C0.66 0.99 1.32 1.98 2 3 C1.3203125 5.91796875 1.3203125 5.91796875 0.125 9.1875 C-0.26429687 10.27417969 -0.65359375 11.36085938 -1.0546875 12.48046875 C-1.52261719 13.72763672 -1.52261719 13.72763672 -2 15 C-4 12 -4 12 -3.57421875 9.84375 C-3.28160156 9.0703125 -2.98898437 8.296875 -2.6875 7.5 C-2.40261719 6.7265625 -2.11773438 5.953125 -1.82421875 5.15625 C-1.55222656 4.4446875 -1.28023437 3.733125 -1 3 C-0.67 2.01 -0.34 1.02 0 0 Z " fill="#232425" transform="translate(1482,462)" /><path d="M0 0 C0.99 0.33 1.98 0.66 3 1 C2.01 4.96 1.02 8.92 0 13 C-2.278495 8.44301001 -1.98806307 6.85049146 -1 2 C-0.67 1.34 -0.34 0.68 0 0 Z " fill="#28292A" transform="translate(1214,464)" /><path d="M0 0 C4.87305969 4.29975855 7.8200442 9.37224317 11 15 C10.01 14.67 9.02 14.34 8 14 C8 13.34 8 12.68 8 12 C7.01 11.67 6.02 11.34 5 11 C3.8671875 9.2578125 3.8671875 9.2578125 2.875 7.125 C2.37613281 6.07699219 2.37613281 6.07699219 1.8671875 5.0078125 C1 3 1 3 0 0 Z " fill="#18191A" transform="translate(656,390)" /><path d="M0 0 C0 3 0 3 -1.6796875 4.97265625 C-2.40414062 5.66230469 -3.12859375 6.35195313 -3.875 7.0625 C-4.95394531 8.10083984 -4.95394531 8.10083984 -6.0546875 9.16015625 C-7.01761719 10.07087891 -7.01761719 10.07087891 -8 11 C-8.66 11.66 -9.32 12.32 -10 13 C-10 8.41771462 -7.08388033 6.1816619 -4 3 C-1.625 1.0625 -1.625 1.0625 0 0 Z " fill="#1D1E1F" transform="translate(129,373)" /><path d="M0 0 C0.56203125 0.37898437 1.1240625 0.75796875 1.703125 1.1484375 C-0.08498266 1.84514166 -1.87749552 2.53054939 -3.671875 3.2109375 C-4.66960938 3.59378906 -5.66734375 3.97664062 -6.6953125 4.37109375 C-9.296875 5.1484375 -9.296875 5.1484375 -11.296875 4.1484375 C-9.89233857 3.25409593 -8.47265631 2.38350558 -7.046875 1.5234375 C-6.25796875 1.03617188 -5.4690625 0.54890625 -4.65625 0.046875 C-2.296875 -0.8515625 -2.296875 -0.8515625 0 0 Z " fill="#1E1E20" transform="translate(924.296875,541.8515625)" /><path d="M0 0 C1.0625 1.875 1.0625 1.875 2 4 C1.67 4.66 1.34 5.32 1 6 C0.7677354 8.71262116 0.58063765 11.40773126 0.4375 14.125 C0.39431641 14.87910156 0.35113281 15.63320313 0.30664062 16.41015625 C0.2005168 18.27321888 0.09974999 20.13658524 0 22 C-0.33 22 -0.66 22 -1 22 C-1.02903577 18.89585298 -1.0468107 15.79174091 -1.0625 12.6875 C-1.07087891 11.80642578 -1.07925781 10.92535156 -1.08789062 10.01757812 C-1.09111328 9.17001953 -1.09433594 8.32246094 -1.09765625 7.44921875 C-1.10289307 6.66893311 -1.10812988 5.88864746 -1.11352539 5.0847168 C-1 3 -1 3 0 0 Z " fill="#010202" transform="translate(824,474)" /><path d="M0 0 C0.66 0.33 1.32 0.66 2 1 C-0.31 3.97 -2.62 6.94 -5 10 C-5.99 9.67 -6.98 9.34 -8 9 C-5.36 6.03 -2.72 3.06 0 0 Z " fill="#272728" transform="translate(1230,442)" /><path d="M0 0 C-3.26992478 1.88649506 -6.23672696 2.67972144 -10 3 C-10.99 2.34 -11.98 1.68 -13 1 C-8.23947038 -0.97387813 -5.03511899 -1.0070238 0 0 Z " fill="#262628" transform="translate(399,333)" /><path d="M0 0 C0.33 0.99 0.66 1.98 1 3 C0.67 3.66 0.34 4.32 0 5 C0.66 5 1.32 5 2 5 C3.35439668 7.70879335 3.06501451 10.00933268 3 13 C0.65085508 10.65085508 0.26859643 9.04320554 -0.625 5.875 C-0.88539062 4.96492187 -1.14578125 4.05484375 -1.4140625 3.1171875 C-1.60742188 2.41851563 -1.80078125 1.71984375 -2 1 C-1.34 0.67 -0.68 0.34 0 0 Z " fill="#3E3F3F" transform="translate(1574,514)" /><path d="M0 0 C0.66 0.66 1.32 1.32 2 2 C0.73760288 2.86658615 -0.53527501 3.71792059 -1.8125 4.5625 C-2.87404297 5.27599609 -2.87404297 5.27599609 -3.95703125 6.00390625 C-6 7 -6 7 -9 6 C-6.03 4.02 -3.06 2.04 0 0 Z " fill="#202122" transform="translate(302,492)" /><path d="M0 0 C2.8125 -0.1875 2.8125 -0.1875 6 0 C6.99 0.99 7.98 1.98 9 3 C5.37 3 1.74 3 -2 3 C-1.34 2.67 -0.68 2.34 0 2 C0 1.34 0 0.68 0 0 Z " fill="#E8EAEA" transform="translate(886,422)" /><path d="M0 0 C0.8971875 0.309375 0.8971875 0.309375 1.8125 0.625 C-1.79707611 3.9160841 -4.31387153 5.17163921 -9.1875 5.625 C-3.21691176 -0.55147059 -3.21691176 -0.55147059 0 0 Z " fill="#29292A" transform="translate(387.1875,434.375)" /><path d="M0 0 C0 0.99 0 1.98 0 3 C-3.465 4.485 -3.465 4.485 -7 6 C-7.66 5.34 -8.32 4.68 -9 4 C-2.25 0 -2.25 0 0 0 Z " fill="#1F2021" transform="translate(187,335)" /><path d="M0 0 C0 0.66 0 1.32 0 2 C-0.66 2 -1.32 2 -2 2 C-2.33 2.99 -2.66 3.98 -3 5 C-5.0625 6.1875 -5.0625 6.1875 -7 7 C-7.66 6.34 -8.32 5.68 -9 5 C-7.87926138 4.16094435 -6.75325453 3.32892169 -5.625 2.5 C-4.99851562 2.0359375 -4.37203125 1.571875 -3.7265625 1.09375 C-2 0 -2 0 0 0 Z " fill="#202022" transform="translate(402,424)" /><path d="M0 0 C0.66 0.66 1.32 1.32 2 2 C1.875 4.5 1.875 4.5 1 7 C-0.98 7.99 -0.98 7.99 -3 9 C-2.01 6.03 -1.02 3.06 0 0 Z " fill="#363637" transform="translate(1472,487)" /><path d="M0 0 C0.66 0.33 1.32 0.66 2 1 C-3 7.57142857 -3 7.57142857 -8 9 C-7.04270084 7.87411986 -6.08412105 6.7493285 -5.125 5.625 C-4.59132813 4.99851562 -4.05765625 4.37203125 -3.5078125 3.7265625 C-2.38567993 2.44163349 -1.20628025 1.20628025 0 0 Z " fill="#1F2021" transform="translate(844,440)" /><path d="M0 0 C3.37503669 1.1858237 5.64722731 2.27573689 8 5 C7.01 5.495 7.01 5.495 6 6 C3.5249829 4.88568235 1.32116581 3.41849022 -1 2 C-0.67 1.34 -0.34 0.68 0 0 Z " fill="#1A1A1C" transform="translate(433,336)" /><path d="M0 0 C2.475 0.99 2.475 0.99 5 2 C3.35 3.65 1.7 5.3 0 7 C0 4.69 0 2.38 0 0 Z " fill="#EAEBEB" transform="translate(1008,436)" /><path d="M0 0 C-2.125 2.0625 -2.125 2.0625 -5 4 C-8.3125 3.75 -8.3125 3.75 -11 3 C-11 2.67 -11 2.34 -11 2 C-9.54494642 1.47007308 -8.08581873 0.9513211 -6.625 0.4375 C-5.81289063 0.14746094 -5.00078125 -0.14257812 -4.1640625 -0.44140625 C-2 -1 -2 -1 0 0 Z " fill="#CBCBCB" transform="translate(443,586)" /><path d="M0 0 C2.31 1.98 4.62 3.96 7 6 C6.34 6.66 5.68 7.32 5 8 C2.5 5.6875 2.5 5.6875 0 3 C0 2.01 0 1.02 0 0 Z " fill="#121315" transform="translate(839,526)" /><path d="M0 0 C-1 3 -1 3 -4.0625 4.6875 C-5.031875 5.120625 -6.00125 5.55375 -7 6 C-6.75 4.125 -6.75 4.125 -6 2 C-3.85331506 0.61504198 -2.56128588 0 0 0 Z " fill="#F5F5F5" transform="translate(1026,427)" /><path d="M0 0 C4.875 4.625 4.875 4.625 6 8 C5.01 8 4.02 8 3 8 C0.89229241 5.11165997 0 3.61537605 0 0 Z " fill="#171718" transform="translate(670,411)" /><path d="M0 0 C0.99 0 1.98 0 3 0 C2.38722388 2.96175123 1.74627478 4.38058783 0 7 C-0.66 7 -1.32 7 -2 7 C-1.34 4.69 -0.68 2.38 0 0 Z " fill="#212122" transform="translate(1505,405)" /><path d="M0 0 C0.99 0.33 1.98 0.66 3 1 C2.34 2.32 1.68 3.64 1 5 C0.01 5 -0.98 5 -2 5 C-1.34 3.35 -0.68 1.7 0 0 Z " fill="#2C2D2E" transform="translate(947,521)" /><path d="M0 0 C2.04296875 0.4609375 2.04296875 0.4609375 4.1875 1.375 C4.90292969 1.67148437 5.61835937 1.96796875 6.35546875 2.2734375 C7.16951172 2.63308594 7.16951172 2.63308594 8 3 C3.84228506 4.31538327 1.1120703 3.34433068 -3 2 C-2.01 1.34 -1.02 0.68 0 0 Z " fill="#EFF0F0" transform="translate(1053,450)" /><path d="M0 0 C0.33 0.66 0.66 1.32 1 2 C1.66 2.33 2.32 2.66 3 3 C2.34 4.32 1.68 5.64 1 7 C0.01 7 -0.98 7 -2 7 C-1.34 4.69 -0.68 2.38 0 0 Z " fill="#252526" transform="translate(1317,499)" /><path d="M0 0 C0.66 1.32 1.32 2.64 2 4 C0.68 5.32 -0.64 6.64 -2 8 C-2.33 7.34 -2.66 6.68 -3 6 C-2.06553465 3.96855359 -1.06775224 1.96466413 0 0 Z " fill="#28292A" transform="translate(1468,498)" /><path d="M0 0 C0.66 0.33 1.32 0.66 2 1 C0.35 2.65 -1.3 4.3 -3 6 C-3.99 5.34 -4.98 4.68 -6 4 C-4.02 2.68 -2.04 1.36 0 0 Z " fill="#2C2C2E" transform="translate(856,432)" /><path d="M0 0 C0.75 1.6875 0.75 1.6875 1 4 C-0.9375 6.75 -0.9375 6.75 -3 9 C-3.33 8.01 -3.66 7.02 -4 6 C-2.0625 2.8125 -2.0625 2.8125 0 0 Z " fill="#1B1C1D" transform="translate(732,430)" /></svg>