<?xml version="1.0" encoding="UTF-8"?>
<svg version="1.1" xmlns="http://www.w3.org/2000/svg" viewBox="0 0 1254 1254" width="1254" height="1254" style="background:transparent">
<path d="M0 0 C0.75800903 -0.00794586 1.51601807 -0.01589172 2.29699707 -0.02407837 C17.32281364 -0.14487447 31.44992825 2.0066789 45.875 6.3125 C47.13666992 6.67118164 47.13666992 6.67118164 48.42382812 7.03710938 C57.87352519 9.78994196 66.64529986 13.4813205 75.25 18.25 C76.10899902 18.7248584 76.96799805 19.1997168 77.85302734 19.68896484 C86.92733598 24.79686666 95.49176538 30.60230292 104.09472656 36.45654297 C109.17134909 39.882522 114.30644819 43.21883349 119.4375 46.5625 C121.64980985 48.00640276 123.86204826 49.45041499 126.07421875 50.89453125 C126.63351578 51.259487 127.19281281 51.62444275 127.76905823 52.00045776 C134.26826931 56.24181115 140.75920777 60.49577856 147.25 64.75 C149.71352794 66.36460428 152.17706893 67.97918864 154.640625 69.59375 C155.25128311 69.99397873 155.86194122 70.39420746 156.49110413 70.80656433 C160.55016147 73.46662962 164.61066494 76.12447244 168.671875 78.78125 C184.53667448 89.16186635 200.37050342 99.58896427 216.19717407 110.02761841 C230.08330143 119.18563125 243.98274143 128.32176599 257.9375 137.375 C265.4794157 132.61318381 272.95442931 127.76118319 280.375 122.8125 C281.41197021 122.12140137 282.44894043 121.43030273 283.51733398 120.71826172 C291.08123132 115.65870192 298.55674693 110.48451684 305.99438477 105.24169922 C311.31525421 101.49506102 316.68371278 97.83715804 322.11157227 94.24780273 C327.41966849 90.73359778 332.68157076 87.15417856 337.9375 83.5625 C346.96499823 77.39561609 356.00942296 71.25423202 365.0625 65.125 C366.38485454 64.22958469 367.70720153 63.33415823 369.02954102 62.4387207 C371.02137637 61.08994394 373.01321608 59.74117363 375.00508118 58.3924408 C381.36680306 54.08466035 387.72755501 49.77545247 394.08618164 45.46310425 C395.27327139 44.658068 396.4604451 43.85315554 397.64770508 43.04837036 C403.80129036 38.87670534 409.94411342 34.6908671 416.0534668 30.45458984 C444.4704405 10.764034 473.44643382 0.29588011 508.1875 0.125 C509.94513672 0.11110229 509.94513672 0.11110229 511.73828125 0.09692383 C519.33471231 0.12422216 526.4971608 0.85909155 533.9375 2.375 C534.83243164 2.55724121 535.72736328 2.73948242 536.64941406 2.92724609 C547.17020515 5.16998987 557.17844989 7.75715294 566.9375 12.375 C567.67226563 12.67921875 568.40703125 12.9834375 569.1640625 13.296875 C582.59595868 18.86500651 594.63727449 27.35293072 606.7265625 35.3046875 C612.99235198 39.42300019 619.30371796 43.46755025 625.625 47.5 C635.67019777 53.91365707 645.67497123 60.38649721 655.66015625 66.89306641 C659.2478734 69.22769796 662.842604 71.55144397 666.4375 73.875 C674.41249005 79.03267127 682.38620615 84.19225403 690.33984375 89.3828125 C693.00880384 91.12450022 695.68394473 92.853549 698.37890625 94.5546875 C706.53316369 99.78817896 713.75492312 105.90184292 720.9375 112.375 C721.62714844 112.99117188 722.31679687 113.60734375 723.02734375 114.2421875 C738.9846334 129.33590618 749.9005443 149.88224388 756.9375 170.375 C757.35515625 171.51582031 757.35515625 171.51582031 757.78125 172.6796875 C759.56256724 177.65575849 760.82708205 182.74176901 762.0625 187.875 C762.23338135 188.57536377 762.4042627 189.27572754 762.58032227 189.99731445 C764.64612756 198.83591438 765.08632397 207.51066286 765.08467102 216.56622314 C765.08834771 217.66165522 765.0920244 218.7570873 765.0958125 219.88571429 C765.10678608 223.54002531 765.11068243 227.19430783 765.11450195 230.84863281 C765.12077151 233.47595305 765.12741874 236.10327241 765.13441467 238.73059082 C765.15410363 246.60242322 765.16423603 254.47425676 765.17314246 262.3461076 C765.17665581 265.31786999 765.1808021 268.28963133 765.18498212 271.26139285 C765.20344357 284.38659569 765.21918979 297.51179855 765.22688007 310.63701248 C765.22878959 313.84362031 765.23070998 317.05022814 765.23266602 320.25683594 C765.23314976 321.05370389 765.2336335 321.85057185 765.2341319 322.67158732 C765.24241829 335.55759318 765.26773475 348.4435058 765.30024669 361.32947102 C765.33344032 374.59507475 765.35133992 387.8606313 765.35452431 401.12627673 C765.35667816 408.5598624 765.3652601 415.99331213 765.39098549 423.42685699 C765.4128615 429.76226099 765.42066106 436.097496 765.41101871 442.43293348 C765.40652209 445.65592131 765.4103382 448.87849464 765.42778015 452.10144806 C765.5055574 467.33908837 764.48000601 481.53383742 760.9375 496.375 C760.65143041 497.60231464 760.36536081 498.82962929 760.07062244 500.09413528 C756.64969592 514.26385453 751.43929406 526.90388311 743.9375 539.375 C743.33687744 540.37660156 743.33687744 540.37660156 742.72412109 541.3984375 C735.87059007 552.68593961 727.91531538 562.70035058 718.9375 572.375 C718.40898438 572.96925781 717.88046875 573.56351563 717.3359375 574.17578125 C707.30798268 584.94940451 693.58629185 592.68684097 681.40234375 600.74609375 C676.2154311 604.18053494 671.0709714 607.67383935 665.9375 611.1875 C656.51836592 617.62785148 647.07352552 624.02960925 637.61962891 630.41879272 C636.02996245 631.49313805 634.44043815 632.56769375 632.85107422 633.64248657 C627.55085965 637.22641095 622.2458684 640.80316534 616.9375 644.375 C616.13734467 644.91410004 615.33718933 645.45320007 614.51278687 646.00863647 C612.10284177 647.63095664 609.69044624 649.24956847 607.27734375 650.8671875 C606.55375671 651.3547905 605.83016968 651.84239349 605.08465576 652.34477234 C593.75603871 659.920857 582.19277049 665.8562602 568.9375 669.375 C568.19935059 669.57109863 567.46120117 669.76719727 566.70068359 669.96923828 C533.40346671 678.44779257 499.58923492 672.75224256 469.875 656.125 C463.95991299 652.5456549 458.45088092 648.46190995 452.91796875 644.328125 C448.84941968 641.29258628 444.71529987 638.35631417 440.5625 635.4375 C439.85391846 634.93903564 439.14533691 634.44057129 438.4152832 633.92700195 C436.97537216 632.91464852 435.5351859 631.90268642 434.09472656 630.89111328 C430.53820569 628.39156658 426.98821575 625.88278243 423.4375 623.375 C422.02214438 622.37628938 420.60677979 621.37759148 419.19140625 620.37890625 C416.34314783 618.36856343 413.49700595 616.35527169 410.65234375 614.33984375 C401.84335717 608.10240596 392.99031284 601.93513123 384.08105469 595.84179688 C381.76355299 594.25597111 379.4481033 592.66717672 377.1328125 591.078125 C368.44041689 585.11595604 359.72404227 579.1976887 350.9375 573.375 C347.86747991 571.33094165 344.79964698 569.28360282 341.73144531 567.23681641 C338.45477351 565.05152966 335.17632916 562.86898872 331.89453125 560.69140625 C331.23171143 560.25103027 330.5688916 559.8106543 329.88598633 559.35693359 C328.63256551 558.52425133 327.37854456 557.69247135 326.1237793 556.86181641 C324.38882937 555.70841259 322.66126689 554.5450456 320.9375 553.375 C320.30328125 552.94654785 319.6690625 552.5180957 319.015625 552.07666016 C316.03123337 550.01332947 313.97077375 548.42491062 311.9375 545.375 C311.56640625 543.0703125 311.56640625 543.0703125 311.5 540.5 C311.46003906 539.65695312 311.42007813 538.81390625 311.37890625 537.9453125 C312.68117 531.95307789 318.99314665 528.77048578 323.8125 525.5625 C325.22974821 524.60372366 326.64637592 523.64402967 328.0625 522.68359375 C328.83464844 522.1613623 329.60679687 521.63913086 330.40234375 521.10107422 C335.23156469 517.81307422 340.01938885 514.46531304 344.8125 511.125 C345.76237793 510.46395264 346.71225586 509.80290527 347.69091797 509.12182617 C348.61533691 508.47834229 349.53975586 507.8348584 350.4921875 507.171875 C351.39420898 506.54418213 352.29623047 505.91648926 353.22558594 505.26977539 C355.07126336 503.9802271 356.91292033 502.68490959 358.75097656 501.38452148 C360.08467285 500.44201538 360.08467285 500.44201538 361.4453125 499.48046875 C362.23824707 498.91739014 363.03118164 498.35431152 363.84814453 497.77416992 C369.29852335 494.12423758 375.52413804 493.33973774 381.9375 494.375 C389.68334374 496.95925558 396.17121519 501.68509363 402.8125 506.3125 C403.92228457 507.07793438 405.032562 507.84265462 406.14331055 508.60668945 C408.37031554 510.13984333 410.59469542 511.67668608 412.81689453 513.21679688 C416.35191643 515.66160939 419.90246838 518.08278831 423.45605469 520.50048828 C434.01894294 527.69305523 444.48636156 535.0213613 454.9375 542.375 C455.69869141 542.91044434 456.45988281 543.44588867 457.24414062 543.99755859 C464.49270051 549.09904069 471.7285724 554.21765348 478.9375 559.375 C480.65601005 560.60303826 482.3747619 561.83073645 484.09375 563.05810547 C485.38585782 563.98099074 486.67748376 564.90455088 487.96875 565.82861328 C513.34866481 584.75949516 513.34866481 584.75949516 543.9375 588.375 C553.83825262 586.66574955 561.71066822 581.91126264 569.9375 576.375 C570.70457275 575.86565918 571.47164551 575.35631836 572.26196289 574.83154297 C583.5826 567.31263489 594.8304717 559.68482619 606.09350586 552.08007812 C630.66537088 535.49083247 630.66537088 535.49083247 642.44555664 527.72070312 C662.53527558 514.46657579 674.9648524 498.77822278 680.31803322 474.80522728 C681.25729829 469.60415311 681.37713646 464.53289842 681.36987305 459.2590332 C681.38005337 458.11445019 681.39023369 456.96986717 681.4007225 455.79059982 C681.43081385 452.00227677 681.44012654 448.2142083 681.44921875 444.42578125 C681.46474131 441.70403524 681.48459163 438.98232434 681.50416565 436.26060486 C681.54869822 429.68472596 681.57735141 423.10887278 681.59994179 416.53288549 C681.61850722 411.20161959 681.64279674 405.87040785 681.67102051 400.53918457 C681.67703331 399.39961636 681.67703331 399.39961636 681.68316758 398.23702657 C681.69130718 396.69554375 681.69945002 395.15406094 681.70759606 393.61257815 C681.78604253 378.59299852 681.84204482 363.57339128 681.8896656 348.55368614 C681.92418383 337.7621407 681.96918909 326.97067923 682.02001953 316.17919922 C682.08012687 303.34480325 682.12771484 290.51043174 682.15729427 277.67592716 C682.16041232 276.32524172 682.16353305 274.97455628 682.16665649 273.62387085 C682.1681765 272.96050726 682.1696965 272.29714367 682.17126256 271.61367816 C682.18253092 266.97009191 682.20090864 262.32656603 682.22177124 257.68301392 C682.24904723 251.44794842 682.2612326 245.21303059 682.26176262 238.97790718 C682.2642931 236.70955804 682.2718739 234.44120762 682.2850666 232.17289543 C682.36541063 217.62845738 682.18830641 204.27870501 675.1875 191.125 C674.83824463 190.45025635 674.48898926 189.7755127 674.12915039 189.08032227 C671.27102654 183.70119987 668.0182802 178.91130915 663.9375 174.375 C663.22980469 173.51261719 663.22980469 173.51261719 662.5078125 172.6328125 C658.81651961 168.48249873 654.4136381 165.6972625 649.703125 162.83203125 C641.9174277 158.03090979 634.30037061 153.00886014 626.71185303 147.90344238 C616.24918282 140.8671276 605.75924555 133.89722818 595.06225586 127.22045898 C590.55403079 124.40505987 586.09991351 121.52578275 581.6875 118.5625 C559.79163639 103.68760781 559.79163639 103.68760781 536.9375 90.375 C536.14988281 89.94832031 535.36226562 89.52164063 534.55078125 89.08203125 C519.39793881 81.54641661 500.8200915 83.52625897 485.11328125 88.21875 C472.17645714 93.05183083 460.90665028 101.71189338 449.64355469 109.5078125 C444.90330406 112.77860254 440.13868623 116.01347977 435.375 119.25 C433.82643311 120.3028418 433.82643311 120.3028418 432.24658203 121.37695312 C422.48719853 128.00883474 412.71311605 134.61895289 402.93856812 141.22845459 C384.91785292 153.41401757 366.90721264 165.61430316 348.9375 177.875 C328.09886214 192.08971515 328.09886214 192.08971515 320.70043945 197.08642578 C320.11259171 197.48347717 319.52474396 197.88052856 318.91908264 198.28961182 C317.72639412 199.09517707 316.53363469 199.90063737 315.34080505 200.70599365 C311.70541427 203.16496619 308.08960742 205.65009064 304.48658752 208.15623474 C302.109472 209.80586463 299.72261861 211.44103933 297.33407593 213.07406616 C295.69175106 214.20407177 294.06200118 215.35228773 292.43286133 216.5012207 C279.52466593 225.28747135 264.63187126 230.05429773 248.9375 228.375 C238.16027529 225.88403769 229.02095532 219.41250623 219.9375 213.375 C219.06577148 212.79717773 218.19404297 212.21935547 217.29589844 211.62402344 C213.12170817 208.85321233 208.95223623 206.07542033 204.7890625 203.28808594 C193.83094736 195.95275097 182.82534435 188.69034648 171.8125 181.4375 C170.87456604 180.81970673 169.93663208 180.20191345 168.97027588 179.56539917 C164.17912969 176.40972425 159.38758226 173.25465947 154.59570312 170.10009766 C149.17254031 166.52993774 143.75022677 162.95848983 138.328125 159.38671875 C129.86996147 153.81515913 121.41083691 148.24506073 112.95117188 142.67578125 C109.57732067 140.45465979 106.20363367 138.23328925 102.83007812 136.01171875 C91.86944237 128.79406496 80.90665773 121.57969746 69.9375 114.375 C69.31707825 113.96747498 68.69665649 113.55994995 68.05743408 113.14007568 C61.76353078 109.00696814 55.46205608 104.88616825 49.13671875 100.80126953 C47.13504933 99.50311759 45.1448482 98.18913063 43.15625 96.87109375 C26.20975256 85.91639362 5.38550029 81.21162318 -14.64794922 84.84375 C-25.72981206 87.47107408 -35.52103842 92.2009709 -45.0625 98.375 C-45.7951709 98.84325195 -46.5278418 99.31150391 -47.28271484 99.79394531 C-52.36851181 103.04843893 -57.42191733 106.35048137 -62.46582031 109.66943359 C-66.65435445 112.42057119 -70.858989 115.14682518 -75.0625 117.875 C-76.72534604 118.95559741 -78.38810631 120.03632683 -80.05078125 121.1171875 C-80.87529785 121.65311523 -81.69981445 122.18904297 -82.54931641 122.74121094 C-85.08906708 124.39227093 -87.62854876 126.04374395 -90.16796875 127.6953125 C-94.3490238 130.41440132 -98.53082366 133.13234045 -102.71337891 135.84912109 C-104.22100264 136.82840278 -105.72850069 137.807878 -107.23583984 138.78759766 C-109.3023536 140.13032427 -111.3696533 141.47182715 -113.4375 142.8125 C-114.10797363 143.24731689 -114.77844727 143.68213379 -115.46923828 144.13012695 C-119.54146782 146.76422804 -123.63008525 149.37086078 -127.73046875 151.9609375 C-128.70773926 152.57912354 -129.68500977 153.19730957 -130.69189453 153.83422852 C-132.59332031 155.03563713 -134.49653509 156.23422084 -136.40185547 157.42944336 C-150.91189412 166.59892628 -161.28564359 175.92685537 -169.0625 191.375 C-169.57039063 192.38304687 -170.07828125 193.39109375 -170.6015625 194.4296875 C-176.19271517 208.30903408 -175.4964491 222.89971032 -175.46655273 237.57763672 C-175.47226285 240.11528828 -175.47922958 242.65293728 -175.48735046 245.19058228 C-175.50337436 251.33961612 -175.50539696 257.48851144 -175.50013756 263.63755976 C-175.4960781 268.6409126 -175.49756036 273.64423539 -175.50288582 278.64758682 C-175.50363424 279.36266432 -175.50438266 280.07774182 -175.50515376 280.81448833 C-175.50668541 282.26767516 -175.50822376 283.72086198 -175.50976873 285.1740488 C-175.52346184 298.76797334 -175.51807857 312.36184016 -175.50658352 325.95576335 C-175.49665432 338.35985247 -175.50959205 350.76379236 -175.53351771 363.16785847 C-175.55796936 375.9420546 -175.56750174 388.71618139 -175.56086498 401.49040043 C-175.55738622 408.6470754 -175.55951544 415.8036357 -175.57711601 422.96029282 C-175.59346947 429.69263848 -175.58856256 436.42465536 -175.56981087 443.15700912 C-175.5661417 445.61751249 -175.56918418 448.07803717 -175.57969666 450.53852081 C-175.64321362 466.64330037 -175.17136056 482.0221255 -167.5 496.625 C-167.16266846 497.27919922 -166.82533691 497.93339844 -166.4777832 498.60742188 C-160.47759305 509.65650323 -151.49451081 517.5381331 -141.0625 524.375 C-140.32257813 524.8611377 -139.58265625 525.34727539 -138.8203125 525.84814453 C-134.63312024 528.59475113 -130.4341316 531.32204257 -126.22265625 534.03125 C-120.46079442 537.75017975 -114.76077247 541.55965956 -109.0625 545.375 C-103.07370621 549.38285402 -97.08360414 553.38874226 -91.09179688 557.39208984 C-89.2455361 558.62628209 -87.39982859 559.8613024 -85.5546875 561.09716797 C-76.46268794 567.18602308 -67.36404991 573.26168432 -58.109375 579.1015625 C-57.16279022 579.70410355 -57.16279022 579.70410355 -56.19708252 580.31881714 C-51.06690458 583.52175631 -45.88347265 585.78116225 -40.0625 587.375 C-38.80308594 587.72691406 -37.54367187 588.07882812 -36.24609375 588.44140625 C-20.85168542 592.20624517 -4.77891211 588.50334362 8.73193359 580.72485352 C12.18385105 578.61220667 15.47266776 576.30949627 18.75 573.9375 C20.24315624 572.87062706 21.73666018 571.80424062 23.23046875 570.73828125 C24.00181152 570.1860791 24.7731543 569.63387695 25.56787109 569.06494141 C29.54829498 566.226234 33.55544426 563.42592918 37.5625 560.625 C38.39048096 560.04564697 39.21846191 559.46629395 40.0715332 558.86938477 C47.49240697 553.67951242 54.92749707 548.51013514 62.36303711 543.34130859 C71.90316688 536.70769295 81.42198907 530.04386028 90.9375 523.375 C102.4006275 515.34117016 113.87619327 507.32579591 125.37036133 499.33642578 C131.56757061 495.02753834 137.75622784 490.70671384 143.9375 486.375 C157.69192851 476.73834149 171.45812248 467.11758869 185.3125 457.625 C191.28078136 453.53471162 197.19970475 449.37856754 203.10449219 445.19726562 C212.02023002 438.89013243 220.99604363 432.66936009 229.96582031 426.43945312 C234.79140902 423.08707241 239.61432075 419.73084584 244.4375 416.375 C246.34504885 415.04817244 248.25260094 413.72134953 250.16015625 412.39453125 C254.08547371 409.66396269 258.00983649 406.93202875 261.93359375 404.19921875 C270.31651517 398.36195753 278.69927581 392.52536894 287.125 386.75 C292.94061608 382.76304391 298.72621403 378.73478314 304.5 374.6875 C319.60094626 364.10221908 334.72141484 353.54722403 349.95874023 343.15893555 C355.52465502 339.35817917 361.04945782 335.50194891 366.5625 331.625 C377.34113537 324.04952521 388.24679693 316.66388966 399.14941406 309.26855469 C408.18247796 303.13366471 417.15997422 296.9199834 426.1184082 290.67675781 C436.65680692 283.3324753 447.23811665 276.0559045 457.859375 268.83203125 C461.64407589 266.25778455 465.42255771 263.67486077 469.19287109 261.07958984 C470.46814069 260.20201615 471.74448766 259.32600575 473.02197266 258.45166016 C476.6244905 255.98328537 480.19994871 253.4816137 483.7578125 250.94921875 C499.30705321 239.94830219 511.57070211 234.70832576 530.875 238 C542.78372186 241.28754291 551.95983775 250.21772587 558.39453125 260.3359375 C561.95940553 267.35738608 563.38338025 273.75659948 563.31845093 281.59692383 C563.32547089 282.92200439 563.32547089 282.92200439 563.33263266 284.27385426 C563.34452146 287.21006967 563.33514946 290.14581304 563.32568359 293.08203125 C563.32975201 295.19681061 563.3350954 297.31158785 563.34161377 299.42636108 C563.35526097 305.15357577 563.34999938 310.88062787 563.34047651 316.60784531 C563.3328665 322.60941751 563.33992926 328.61097606 563.34463501 334.61254883 C563.35008864 344.68996676 563.34291121 354.76731866 563.32861328 364.84472656 C563.31228757 376.48557609 563.31757635 388.12626797 563.3340925 399.76711369 C563.3477185 409.77246224 563.34962156 419.77776341 563.34177649 429.78311825 C563.33710613 435.75417094 563.33645767 441.72514961 563.34638596 447.69619751 C563.35506951 453.31052636 563.34900817 458.92465249 563.33170319 464.5389595 C563.32774579 466.59603158 563.32885956 468.65312081 563.33549118 470.710186 C563.34372627 473.52471091 563.33336139 476.33859195 563.31845093 479.15307617 C563.32514309 479.96116635 563.33183526 480.76925653 563.33873022 481.6018343 C563.26527376 488.78277242 561.50428994 495.58574304 557.5 501.625 C557.10941406 502.22828125 556.71882812 502.8315625 556.31640625 503.453125 C553.11618031 507.91349656 550.25967326 511.13499005 545.5625 514.0625 C544.64726563 514.64386719 543.73203125 515.22523438 542.7890625 515.82421875 C534.2110961 520.48922239 523.55068035 521.00327962 514.09765625 518.67578125 C506.09442483 515.09363607 499.31043639 508.29507504 492.9375 502.375 C492.19487915 501.76422607 492.19487915 501.76422607 491.43725586 501.14111328 C485.77618828 494.47463716 486.52879037 486.74112655 486.59692383 478.45336914 C486.59777098 477.04348773 486.59729324 475.63360501 486.59559631 474.22372437 C486.59473837 470.41215983 486.61233129 466.60088065 486.63331819 462.78938222 C486.65211867 458.80023106 486.65383808 454.81107278 486.65739441 450.82188416 C486.666705 443.27491181 486.69130535 435.72807041 486.72144288 428.18115562 C486.75501766 419.58625392 486.77148062 410.99134584 486.78652918 402.39639485 C486.81785584 384.72252243 486.87059707 367.04877176 486.9375 349.375 C485.02223583 350.65050035 483.10714981 351.92626822 481.19213867 353.20214844 C480.12565598 353.91256287 479.05917328 354.62297729 477.96037292 355.35491943 C474.37230117 357.75270267 470.80364794 360.1765903 467.25 362.625 C466.58484375 363.08261719 465.9196875 363.54023437 465.234375 364.01171875 C459.5540126 367.92957618 453.91833249 371.90924562 448.28759766 375.89794922 C443.59211052 379.21977368 438.87065512 382.50030967 434.125 385.75 C424.67888502 392.21986141 415.31009831 398.79929279 405.9375 405.375 C386.80484661 418.79824964 386.80484661 418.79824964 377.9375 424.875 C360.53258538 436.80349189 343.2766242 448.96017459 326.125 461.25 C316.2495799 468.32270366 306.27273053 475.25180846 296.31445312 482.20703125 C284.0903181 490.74053 284.0903181 490.74053 271.9375 499.375 C263.85843751 505.16970398 255.70244084 510.8540731 247.55175781 516.54736328 C244.95727252 518.36117696 242.36498072 520.17807947 239.7734375 521.99609375 C232.12090624 527.36318415 224.46156132 532.71797761 216.75 538 C210.72115906 542.12977481 204.74119896 546.32420495 198.77783203 550.54785156 C192.74870833 554.8134464 186.69031412 559.03605968 180.625 563.25 C167.25919789 572.53723848 153.91215016 581.85049519 140.625 591.25 C132.99739733 596.64497858 125.32969304 601.98144382 117.65698242 607.31201172 C111.40832973 611.65383246 105.16842758 616.00778457 98.9375 620.375 C90.63039136 626.19676797 82.30675717 631.99452101 73.9765625 637.78320312 C73.07421875 638.41033203 72.171875 639.03746094 71.2421875 639.68359375 C70.35853516 640.2971875 69.47488281 640.91078125 68.56445312 641.54296875 C66.81420128 642.76359048 65.06808238 643.99016011 63.32617188 645.22265625 C51.12737208 653.84675037 39.21446862 660.82217607 24.9375 665.375 C23.64530195 665.86892769 22.35502769 666.36790873 21.06640625 666.87109375 C16.92637916 668.44110761 12.75005751 669.518088 8.4375 670.5 C7.72980469 670.66886719 7.02210938 670.83773437 6.29296875 671.01171875 C-2.95187091 673.15814405 -11.89637197 673.56142205 -21.36132812 673.56030273 C-23.42599158 673.56248782 -25.49011819 673.58069316 -27.5546875 673.59960938 C-34.9779853 673.63222354 -41.85714242 673.18500874 -49.0625 671.375 C-50.80170513 670.99047287 -52.54130067 670.60770801 -54.28125 670.2265625 C-56.04210699 669.81960889 -57.80252417 669.41074768 -59.5625 669 C-60.87154297 668.70609375 -60.87154297 668.70609375 -62.20703125 668.40625 C-82.99798226 663.53962739 -100.33820429 651.41396694 -117.76211548 639.61372375 C-126.0461858 634.01556341 -134.41671963 628.54837352 -142.77426147 623.06085205 C-150.31620632 618.10469149 -157.84574374 613.12968836 -165.37384033 608.15252686 C-167.13344534 606.98921667 -168.8933224 605.82631785 -170.65350342 604.66387939 C-175.41183554 601.52037891 -180.16254422 598.36597427 -184.90158081 595.19345093 C-186.31285948 594.25074492 -187.72644344 593.31147841 -189.14260864 592.37612915 C-198.22277453 586.37369146 -206.22299558 579.93846553 -214.0625 572.375 C-215.02559082 571.4792627 -215.98868164 570.58352539 -216.98095703 569.66064453 C-225.00683793 562.16607786 -231.06023076 553.51922873 -237.0625 544.375 C-237.49900879 543.71387207 -237.93551758 543.05274414 -238.38525391 542.37158203 C-243.5909476 534.39247882 -247.62964314 526.55114133 -250.44140625 517.38867188 C-251.14423617 515.11000001 -251.88541208 512.84512276 -252.625 510.578125 C-253.16878635 508.86525483 -253.71046399 507.15171373 -254.25 505.4375 C-254.50031982 504.6638208 -254.75063965 503.8901416 -255.00854492 503.09301758 C-259.96447593 486.82073685 -259.35490202 470.04989329 -259.3371582 453.22290039 C-259.34042223 450.48805816 -259.34663306 447.75322422 -259.35264587 445.01838684 C-259.36532359 438.39159402 -259.36719535 431.76484185 -259.36484561 425.13803894 C-259.3630548 419.74665333 -259.36482833 414.35527995 -259.36907005 408.9638958 C-259.36966524 408.19344657 -259.37026043 407.42299733 -259.37087366 406.62920116 C-259.37208554 405.06351587 -259.37329967 403.49783058 -259.37451603 401.93214529 C-259.38536448 387.28620278 -259.38324165 372.64028337 -259.37713119 357.99433958 C-259.37196213 344.62682991 -259.38322199 331.25939312 -259.40222941 317.89189786 C-259.42164906 304.12778781 -259.42985673 290.36371216 -259.42610615 276.59958833 C-259.42420066 268.88738792 -259.42661796 261.17524954 -259.44082069 253.46306038 C-259.45278812 246.89893486 -259.45407959 240.33490958 -259.44203053 233.77078254 C-259.43617965 230.42892456 -259.4365924 227.08739803 -259.44703293 223.74552917 C-259.48602903 210.28666786 -259.37552358 197.48008962 -256.0625 184.375 C-255.82003194 183.39387773 -255.57756388 182.41275545 -255.3277483 181.4019022 C-254.7162388 179.01600916 -254.03671852 176.66645924 -253.3125 174.3125 C-252.92626465 173.05228027 -252.92626465 173.05228027 -252.53222656 171.76660156 C-241.13841647 135.80702566 -215.09926512 107.43695635 -183.3984375 88.05078125 C-178.75091524 85.20260806 -174.18689558 82.23281274 -169.625 79.25 C-162.02732597 74.2899561 -154.39816153 69.38181778 -146.75 64.5 C-137.4431232 58.55734854 -128.17319263 52.56109198 -118.9362793 46.51025391 C-113.58415858 43.00667069 -108.20572134 39.54894525 -102.80371094 36.12280273 C-100.10424788 34.40161855 -97.41974279 32.65922516 -94.73828125 30.91015625 C-81.13690709 22.07702239 -67.44495034 13.75885762 -52.0625 8.375 C-50.8971875 7.96507812 -49.731875 7.55515625 -48.53125 7.1328125 C-32.35446831 1.64149934 -16.98212154 0.09332031 0 0 Z " fill="#0E0E0E" transform="translate(382.0625,282.625)"/>
<path d="M0 0 C17.91543269 12.13601603 35.91547572 24.13014867 54.04391479 35.94519043 C57.55193519 38.23159151 61.05622545 40.52365725 64.55953979 42.81726074 C69.90195254 46.31453585 75.24701522 49.80773603 80.5932312 53.29919434 C83.58703247 55.25532468 86.57927147 57.21382568 89.57125854 59.17272949 C99.85709701 65.90146103 110.18068159 72.5642296 120.56002808 79.14782715 C127.46635407 83.5319505 134.34171805 87.96136268 141.18917847 92.43688965 C145.50085409 95.25498393 149.8257093 98.04848377 154.17672729 100.80554199 C155.08793335 101.38682861 155.9991394 101.96811523 156.93795776 102.5670166 C158.67998676 103.67761159 160.42619054 104.78169526 162.17721558 105.87805176 C166.3844285 108.5714786 169.93173472 110.94659298 172.62203979 115.27819824 C173.34221231 120.31940588 173.53854608 121.95059885 170.61032104 126.19226074 C167.35308594 129.86781403 163.42988838 132.21225423 159.24703979 134.71569824 C157.55321121 135.75684667 155.86055668 136.7999069 154.16891479 137.84460449 C152.82603394 138.67049072 152.82603394 138.67049072 151.45602417 139.51306152 C146.41999431 142.64973415 141.46086112 145.90391024 136.49703979 149.15319824 C135.55038452 149.77122314 134.60372925 150.38924805 133.62838745 151.02600098 C128.55318157 154.34357726 123.50430471 157.69261422 118.50143433 161.11853027 C114.92641414 163.32447284 111.8521561 163.44010525 107.74703979 163.46569824 C106.20403198 163.48696777 106.20403198 163.48696777 104.62985229 163.50866699 C98.14732644 163.01195397 93.4833979 159.33372229 88.27438354 155.75866699 C87.03210999 154.91516693 87.03210999 154.91516693 85.76473999 154.05462646 C83.96854868 152.83474678 82.17370765 151.61287706 80.38006592 150.38925171 C75.55159822 147.09631437 70.7120315 143.81979003 65.87203979 140.54382324 C64.86886215 139.86456284 63.86568451 139.18530243 62.83210754 138.48545837 C50.18612109 129.93598018 37.42873803 121.55617655 24.67062378 113.17541504 C22.94478815 112.0417158 21.21895797 110.90800829 19.49313354 109.77429199 C18.66607407 109.23112839 17.83901459 108.68796478 16.9868927 108.12834167 C9.17753657 102.99523343 1.39972714 97.8152763 -6.36878967 92.62062073 C-9.03714758 90.83776378 -11.70759344 89.05804446 -14.37796021 87.27819824 C-14.38034856 88.0008103 -14.38273691 88.72342236 -14.38519764 89.46793175 C-14.44442637 107.07991263 -14.52002664 124.6917478 -14.61367512 142.30357933 C-14.65857191 150.82065974 -14.69800057 159.3376989 -14.72439575 167.8548584 C-14.74742549 175.2815286 -14.78087879 182.70806761 -14.82666177 190.13463366 C-14.85052714 194.0641342 -14.86929957 197.99350536 -14.87557411 201.92307663 C-14.88165543 205.62824111 -14.90176392 209.33307482 -14.93223572 213.03811646 C-14.94510385 215.03286887 -14.94345437 217.02769876 -14.9412384 219.02249146 C-15.02331479 226.93386381 -15.23984591 235.16733514 -20.21780396 241.68835449 C-21.2561438 242.50626465 -21.2561438 242.50626465 -22.31546021 243.34069824 C-23.10694458 243.97491699 -23.89842896 244.60913574 -24.71389771 245.26257324 C-25.59303833 245.92772949 -26.47217896 246.59288574 -27.37796021 247.27819824 C-28.36022583 248.06710449 -29.34249146 248.85601074 -30.35452271 249.66882324 C-41.12410136 258.12089763 -49.63755884 260.60026736 -63.20706177 259.57556152 C-72.22222148 258.34069147 -79.9767946 252.35861255 -85.37796021 245.27819824 C-90.50532624 236.92491905 -92.68417413 229.08016159 -92.63865662 219.37944031 C-92.64248216 218.50663479 -92.64630771 217.63382927 -92.65024918 216.73457509 C-92.66053326 213.82221494 -92.65659575 210.91005363 -92.65261841 207.99768066 C-92.65696746 205.90452391 -92.66215125 203.81136875 -92.66810608 201.71821594 C-92.68148751 196.04043618 -92.68207561 190.36272302 -92.67954278 184.68493056 C-92.67847234 179.94102485 -92.68335839 175.19713256 -92.6881482 170.45322973 C-92.69924075 159.25840105 -92.69968241 148.06360593 -92.69363403 136.86877441 C-92.68759566 125.33023944 -92.69990242 113.79182645 -92.7212041 102.25331229 C-92.73883424 92.33801472 -92.74481917 82.42275592 -92.74156636 72.50744325 C-92.73975538 66.58941825 -92.74237112 60.67148024 -92.7562809 54.75346947 C-92.76887727 49.18595888 -92.76689788 43.61863804 -92.75387001 38.05113029 C-92.75150852 36.012214 -92.75422355 33.97328428 -92.76249313 31.93438339 C-92.82423998 15.52201137 -91.39599311 2.53321907 -79.62796021 -9.97180176 C-52.56348145 -35.48973887 -25.23429132 -17.10041033 0 0 Z " fill="#0E0F0E" transform="translate(410.3779602050781,542.7218017578125)"/>
<path d="M0 0 C0.66 0.66 1.32 1.32 2 2 C0.21427748 3.83947337 -1.57802449 5.67157741 -3.375 7.5 C-3.88289063 8.02464844 -4.39078125 8.54929687 -4.9140625 9.08984375 C-6.23832604 10.43153181 -7.61605865 11.71995815 -9 13 C-9.66 13 -10.32 13 -11 13 C-11.66 14.98 -12.32 16.96 -13 19 C-13.66 19 -14.32 19 -15 19 C-13.71201965 14.2566315 -11.96892901 11.39528108 -8.625 7.8125 C-7.85414063 6.97332031 -7.08328125 6.13414062 -6.2890625 5.26953125 C-4.28857543 3.28611319 -2.30215676 1.61361216 0 0 Z " fill="#171717" transform="translate(337,528)"/>
<path d="M0 0 C0 0.99 0 1.98 0 3 C-0.68964844 3.04898438 -1.37929688 3.09796875 -2.08984375 3.1484375 C-8.23409469 3.63728051 -14.0149077 4.52825599 -20 6 C-14.37111302 -0.49486959 -8.03545749 -0.28584631 0 0 Z " fill="#232323" transform="translate(764,777)"/>
<path d="M0 0 C0.66 0.66 1.32 1.32 2 2 C1.828125 4.2421875 1.828125 4.2421875 1.25 6.875 C0.97929688 8.17050781 0.97929688 8.17050781 0.703125 9.4921875 C0.03785668 11.86497785 -0.81756385 13.84556125 -2 16 C-2.66 15.67 -3.32 15.34 -4 15 C-3.67 13.02 -3.34 11.04 -3 9 C-2.34 9 -1.68 9 -1 9 C-1.020625 8.2575 -1.04125 7.515 -1.0625 6.75 C-1.00671312 4.29537721 -0.6930096 2.33890739 0 0 Z " fill="#1F1E1E" transform="translate(1137,788)"/>
<path d="M0 0 C1.37095624 3.69037278 0.60010967 5.70883835 -0.9375 9.25 C-1.31777344 10.14203125 -1.69804687 11.0340625 -2.08984375 11.953125 C-2.39019531 12.62859375 -2.69054687 13.3040625 -3 14 C-3.99 14 -4.98 14 -6 14 C-4.50829734 9.0276578 -2.39542583 4.58154261 0 0 Z " fill="#2A2A2A" transform="translate(140,430)"/>
<path d="M0 0 C-2.36292656 2.52588702 -3.66462511 3.88820837 -7 5 C-9.33299825 5.03954234 -11.66708189 5.04401732 -14 5 C-10.63156097 2.05261585 -4.40469071 -2.20234535 0 0 Z " fill="#2D2D2D" transform="translate(841,292)"/>
<path d="M0 0 C0.66 0.33 1.32 0.66 2 1 C-0.88406243 4.40843742 -2.3708265 5.86591384 -6.8125 6.8125 C-8.3903125 6.9053125 -8.3903125 6.9053125 -10 7 C-7.20283196 3.70921407 -3.80471422 1.93694542 0 0 Z " fill="#2C2C2C" transform="translate(820,299)"/>
<path d="M0 0 C0.66 0 1.32 0 2 0 C1.67 1.32 1.34 2.64 1 4 C0.34 4 -0.32 4 -1 4 C-1.66 5.98 -2.32 7.96 -3 10 C-3.66 10 -4.32 10 -5 10 C-3.85569823 6.12697862 -2.76679902 2.99736561 0 0 Z " fill="#252526" transform="translate(327,537)"/>
<path d="M0 0 C4.40114397 0.50298788 6.71195019 2.08772731 10 5 C5.27635085 5 3.7011388 3.7758541 0 1 C0 0.67 0 0.34 0 0 Z " fill="#181818" transform="translate(407,543)"/>
<path d="M0 0 C0.66 0.33 1.32 0.66 2 1 C2 1.66 2 2.32 2 3 C-0.3125 4.6875 -0.3125 4.6875 -3 6 C-3.99 5.67 -4.98 5.34 -6 5 C-5.195625 4.360625 -4.39125 3.72125 -3.5625 3.0625 C-1.7249496 1.59396498 -1.7249496 1.59396498 0 0 Z " fill="#1E1F1F" transform="translate(235,347)"/>
<path d="M0 0 C0 0.99 0 1.98 0 3 C-4.34285714 7 -4.34285714 7 -7 7 C-5.66667905 3.00003714 -3.5042173 2.16217663 0 0 Z " fill="#1F1F1F" transform="translate(460,815)"/>
<path d="M0 0 C0.66 0 1.32 0 2 0 C2 0.99 2 1.98 2 3 C-1.22791555 5.1519437 -2.28400809 5.20086443 -6 5 C-5.195625 4.360625 -4.39125 3.72125 -3.5625 3.0625 C-1.7249496 1.59396498 -1.7249496 1.59396498 0 0 Z " fill="#1E1E1E" transform="translate(877,526)"/>
<path d="M0 0 C0.53625 0.2475 1.0725 0.495 1.625 0.75 C0.965 1.41 0.305 2.07 -0.375 2.75 C-1.695 2.75 -3.015 2.75 -4.375 2.75 C-4.375 3.41 -4.375 4.07 -4.375 4.75 C-5.695 4.42 -7.015 4.09 -8.375 3.75 C-2.95961538 -0.31153846 -2.95961538 -0.31153846 0 0 Z " fill="#1E1F1F" transform="translate(304.375,304.25)"/>
<path d="M0 0 C0.33 0.99 0.66 1.98 1 3 C-2.96 4.98 -2.96 4.98 -7 7 C-5.66667905 3.00003714 -3.5042173 2.16217663 0 0 Z " fill="#252526" transform="translate(702,811)"/>
<path d="M0 0 C0.66 0.33 1.32 0.66 2 1 C2 3.31 2 5.62 2 8 C1.01 8.495 1.01 8.495 0 9 C-1.125 3.375 -1.125 3.375 0 0 Z " fill="#DEDEDE" transform="translate(1138,793)"/>
<path d="M0 0 C0.33 0.99 0.66 1.98 1 3 C-1.475 4.485 -1.475 4.485 -4 6 C-4.66 5.34 -5.32 4.68 -6 4 C-4.02 2.68 -2.04 1.36 0 0 Z " fill="#212122" transform="translate(826,561)"/>
</svg>
