<?xml version="1.0" encoding="UTF-8"?>
<svg version="1.1" xmlns="http://www.w3.org/2000/svg" width="1254" height="1254">
<path d="M0 0 C413.82 0 827.64 0 1254 0 C1254 413.82 1254 827.64 1254 1254 C840.18 1254 426.36 1254 0 1254 C0 840.18 0 426.36 0 0 Z " fill="#FDFDFD" transform="translate(0,0)"/>
<path d="M0 0 C0.9897583 0.2489502 0.9897583 0.2489502 1.99951172 0.50292969 C19.70300704 5.05486767 35.09744317 15.71089955 49.68212891 26.33740234 C54.08489191 29.49548282 58.57868585 32.52117101 63.0625 35.5625 C64.95713699 36.85010484 66.85167022 38.13786237 68.74609375 39.42578125 C69.64827637 40.0388916 70.55045898 40.65200195 71.47998047 41.28369141 C74.87057772 43.59292399 78.24852583 45.92019197 81.625 48.25 C90.14885287 54.12498823 98.72283729 59.92618381 107.29125977 65.73583984 C120.55297014 74.7280716 133.7970623 83.74609874 147.01489258 92.80273438 C148.53423939 93.8424319 150.05489072 94.8802259 151.5769043 95.91601562 C155.6926713 98.71949031 159.78779111 101.548306 163.85618591 104.42025757 C166.12815089 106.02071369 168.40842385 107.60908721 170.68978882 109.19610596 C171.80575753 109.97678489 172.91799804 110.76282277 174.02627563 111.55438232 C175.57815208 112.66192097 177.14430871 113.74936648 178.7109375 114.8359375 C179.61118652 115.47063965 180.51143555 116.1053418 181.43896484 116.75927734 C183.90815004 118.2077088 183.90815004 118.2077088 186.54321289 117.87817383 C189.23022974 116.91770482 191.25479726 115.74210267 193.59765625 114.11328125 C194.47123779 113.51177246 195.34481934 112.91026367 196.24487305 112.29052734 C197.17468994 111.63777832 198.10450684 110.9850293 199.0625 110.3125 C200.03550049 109.63912598 201.00850098 108.96575195 202.01098633 108.27197266 C205.01372158 106.1903293 208.00788071 104.09686687 211 102 C212.7421643 100.78251889 214.48435065 99.56506932 216.2265625 98.34765625 C218.70866549 96.6113244 221.18966285 94.87348041 223.66821289 93.13208008 C229.25011211 89.21188758 234.86367689 85.34146422 240.5 81.5 C247.9512615 76.42100214 255.34992224 71.27096472 262.73046875 66.08984375 C268.43979775 62.08439262 274.17517559 58.11958361 279.92919922 54.17871094 C285.24876695 50.52971836 290.53282901 46.83142032 295.8125 43.125 C303.25802398 37.89811343 310.74250627 32.73287571 318.27001953 27.62475586 C322.40536974 24.81007206 326.47286241 21.93296629 330.48486328 18.94555664 C341.55163173 10.76846203 353.1681282 5.35259674 366.25 1.125 C367.13623047 0.83858643 368.02246094 0.55217285 368.93554688 0.25708008 C380.31046714 -3.23715587 391.25132054 -4.34159718 403.125 -4.25 C405.0282605 -4.23984863 405.0282605 -4.23984863 406.9699707 -4.22949219 C433.41250716 -3.94022702 433.41250716 -3.94022702 443.48852539 0.88769531 C446.17569132 2.07781177 448.86218626 2.92974349 451.671875 3.7890625 C457.55187803 5.72879278 462.60649053 8.27783526 467.875 11.5 C468.7935376 12.05187988 469.7120752 12.60375977 470.65844727 13.17236328 C482.18398347 20.19121063 493.33942082 27.78947466 504.52824402 35.32780457 C510.4210296 39.29364786 516.35800786 43.18994182 522.3125 47.0625 C523.25246826 47.67424072 524.19243652 48.28598145 525.16088867 48.91625977 C529.85348505 51.96617655 534.55446012 55.00278128 539.26123047 58.03076172 C542.0072711 59.80055221 544.74731732 61.57940572 547.48486328 63.36230469 C549.36472255 64.58634817 551.24616757 65.80795693 553.12841797 67.02832031 C591.37902546 91.86212858 618.92024293 121.08893337 628.84667969 166.86254883 C630.48546697 174.87554363 631.14844032 182.65316293 631.14044189 190.81816101 C631.14489858 192.25789165 631.14489858 192.25789165 631.1494453 193.72670776 C631.15808449 196.92808432 631.15963652 200.12942327 631.16113281 203.33081055 C631.16576459 205.63286417 631.17078973 207.93491702 631.17617798 210.23696899 C631.18927444 216.48357355 631.19574225 222.73016738 631.20018864 228.97678351 C631.20312547 232.88733866 631.20723155 236.79789091 631.21169281 240.7084446 C631.22379921 251.56292328 631.23418058 262.41739876 631.2375679 273.27188396 C631.23778747 273.96564406 631.23800703 274.65940415 631.23823325 275.37418728 C631.23845153 276.06950051 631.23866981 276.76481373 631.2388947 277.48119706 C631.23933815 278.88988984 631.23978471 280.29858261 631.24023438 281.70727539 C631.2404558 282.40601856 631.24067723 283.10476173 631.24090537 283.82467894 C631.24484336 295.11673495 631.26226781 306.40872605 631.2855939 317.70075705 C631.30941997 329.330073 631.321518 340.95935334 631.32293582 352.58869392 C631.32397869 359.1034198 631.32977465 365.61805415 631.34775543 372.13275719 C631.36437321 378.27320078 631.36632584 384.41348541 631.35761642 390.55394363 C631.35685317 392.79142626 631.36109314 395.02891791 631.37107468 397.2663784 C631.55123595 440.21674755 620.04872697 477.79040096 590 509 C589.30777344 509.76699219 588.61554687 510.53398438 587.90234375 511.32421875 C578.59170467 521.31656165 566.42715328 528.39204521 555.13012695 535.90942383 C549.98301961 539.34711825 544.86616722 542.82899026 539.75 546.3125 C539.20719391 546.68194733 538.66438782 547.05139465 538.10513306 547.43203735 C531.62658844 551.84172335 525.14931268 556.25331892 518.6875 560.6875 C518.07438965 561.10789551 517.4612793 561.52829102 516.82958984 561.96142578 C513.22226556 564.44375402 509.64151553 566.96045219 506.07421875 569.5 C478.14916588 589.34710098 448.51595442 603.0548316 413.24853516 597.57226562 C407.69737706 596.45224948 402.34799717 594.84786428 397 593 C395.78828125 592.59265625 394.5765625 592.1853125 393.328125 591.765625 C374.8490195 585.08538498 359.71658691 572.78892381 344.09008789 561.21508789 C338.22934501 556.88141898 332.30443378 552.64970254 326.3371582 548.46435547 C321.25399632 544.89616823 316.21421512 541.2721763 311.1875 537.625 C293.64421008 524.93823142 275.78882807 512.81712549 257.6640625 500.98046875 C257.02777924 500.56356781 256.39149597 500.14666687 255.7359314 499.71713257 C252.51960333 497.61592537 249.28734337 495.55005931 246.01464844 493.53759766 C245.37506195 493.13994705 244.73547546 492.74229645 244.07650757 492.33259583 C242.32483212 491.24640575 240.56573303 490.1722136 238.80615234 489.09887695 C234.75569866 486.06931802 233.22450238 483.54345386 232.5 478.5625 C233.20337577 473.55094761 235.86125374 470.67368424 239.74365234 467.63549805 C241.77971428 466.2283808 243.84759599 464.88831095 245.9375 463.5625 C247.53470365 462.52344004 249.13101524 461.48300792 250.7265625 460.44140625 C251.57379883 459.8911377 252.42103516 459.34086914 253.29394531 458.77392578 C258.17353563 455.57516151 262.99173427 452.28646626 267.8125 449 C268.74892334 448.36521729 269.68534668 447.73043457 270.65014648 447.07641602 C274.1655068 444.68238684 277.61799492 442.30723178 280.93359375 439.640625 C285.33405024 436.14687882 291.00879336 435.44568182 296.5012207 435.63989258 C304.64546203 436.81358637 312.04919143 442.87015149 318.5625 447.5625 C319.42673584 448.17673828 320.29097168 448.79097656 321.18139648 449.42382812 C322.94829896 450.67986004 324.71337496 451.9384655 326.4765625 453.19970703 C328.77829124 454.84182658 331.08897903 456.46976266 333.40625 458.08984375 C341.62332374 463.83882407 349.71671519 469.73449971 357.76708984 475.71435547 C364.09547681 480.39018013 370.56083866 484.83555388 377.07885742 489.24145508 C382.22308964 492.73608256 387.23705918 496.36154265 392.1875 500.125 C413.63401723 517.42493086 413.63401723 517.42493086 440 521 C449.28310167 518.70231688 456.60692177 512.99409505 464.13183594 507.37353516 C467.32577979 505.02524345 470.60079193 502.79682736 473.875 500.5625 C475.05994826 499.75137866 476.244842 498.94017768 477.4296875 498.12890625 C478.10402832 497.66806641 478.77836914 497.20722656 479.47314453 496.73242188 C481.47148516 495.36235181 483.46678487 493.98817812 485.46044922 492.61132812 C492.48995197 487.76048975 499.54323603 482.95032069 506.6484375 478.2109375 C508.82717604 476.75353952 511.00563214 475.29572002 513.18408203 473.83789062 C514.6537795 472.85656376 516.12515816 471.87775042 517.59814453 470.90136719 C537.50197075 457.69640742 550.36256055 444.44818025 556.56135845 420.86425781 C557.18614647 416.78449388 557.14803144 412.76233329 557.14717102 408.640625 C557.15268605 407.2207738 557.15268605 407.2207738 557.1583125 405.77223873 C557.1693317 402.59815365 557.17319022 399.42410133 557.17700195 396.25 C557.18326801 393.97481686 557.18991494 391.69963474 557.19691467 389.42445374 C557.21794333 381.94964306 557.22831706 374.4748322 557.23828125 367 C557.24232948 364.42446889 557.24644642 361.84893788 557.25063133 359.27340698 C557.26749927 348.55714656 557.282133 337.84088984 557.28938007 327.12461853 C557.29128978 324.34593708 557.29321014 321.56725564 557.29516602 318.78857422 C557.29564976 318.09799852 557.2961335 317.40742282 557.2966319 316.69592059 C557.30492365 305.52111192 557.33024718 294.34641059 557.36274669 283.17164874 C557.39588611 271.68258459 557.41350283 260.19359099 557.41702431 248.70447731 C557.41937146 242.26035133 557.42828843 235.81639503 557.45348549 229.37231445 C557.47682609 223.30495028 557.48097519 217.23786678 557.47072411 211.17046928 C557.47023007 208.95058698 557.47651121 206.73069057 557.49028015 204.51085091 C557.55766433 192.99753814 557.52894924 182.77209489 553 172 C552.73029546 171.33540268 552.46059092 170.67080536 552.18271351 169.98606873 C544.64689525 152.84711534 531.42220733 144.5761805 516.18017578 135.01757812 C510.83038868 131.62354768 505.57421358 128.09092857 500.3125 124.5625 C498.41286379 123.29281408 496.51312726 122.02327823 494.61328125 120.75390625 C493.68692871 120.13410889 492.76057617 119.51431152 491.80615234 118.87573242 C488.9759703 116.98393769 486.14245062 115.09722198 483.30859375 113.2109375 C479.27051929 110.52073724 475.24168717 107.81738026 471.21955872 105.10343933 C468.4402175 103.2292889 465.6575277 101.36014302 462.87451172 99.49145508 C461.46392894 98.54269146 460.05473464 97.59186007 458.64697266 96.63891602 C451.00620029 91.46942537 443.32115264 86.47152647 435.28515625 81.93359375 C434.63129944 81.56371841 433.97744263 81.19384308 433.30377197 80.8127594 C428.63167345 78.22565009 424.14382415 76.39493536 419 75 C418.01 74.67 417.02 74.34 416 74 C393.56886469 72.23194465 378.44312866 77.08303504 360.41015625 90.5234375 C355.88484205 93.85373094 351.21225412 96.9723258 346.5625 100.125 C338.36956045 105.68608278 330.22798541 111.31324042 322.12597656 117.00585938 C317.04201224 120.57618426 311.93881225 124.11578488 306.8125 127.625 C299.20146823 132.83917171 291.66427386 138.15454912 284.13671875 143.48828125 C282.02071995 144.98534073 279.90157948 146.47783187 277.78125 147.96875 C269.72279762 153.63757674 261.70908497 159.36329346 253.73071289 165.14428711 C247.98656201 169.3012792 242.20918962 173.40851859 236.39672852 177.46948242 C232.71383852 180.05035839 229.07999295 182.67749297 225.49609375 185.39453125 C210.63341216 196.59087254 196.26369947 204.80015237 177 203 C167.28331921 200.76846569 159.10881302 196.82464034 151 191 C149.47246094 189.92105469 149.47246094 189.92105469 147.9140625 188.8203125 C145.59508214 187.17599467 143.28585676 185.51877991 140.98046875 183.85546875 C136.47455332 180.61180418 131.92592839 177.43006618 127.375 174.25 C126.52752197 173.65759521 125.68004395 173.06519043 124.80688477 172.45483398 C123.07028021 171.24118699 121.33354427 170.02772797 119.59667969 168.81445312 C115.39584167 165.87908004 111.19804128 162.93937075 107 160 C105.33334864 158.83331147 103.66668195 157.66664483 102 156.5 C52 121.5 52 121.5 49.49902344 119.74926758 C47.83567317 118.58495489 46.17226191 117.42072935 44.50878906 116.2565918 C40.29087191 113.30462804 36.07409128 110.35106366 31.859375 107.39453125 C-3.01206767 80.52315667 -3.01206767 80.52315667 -45 73 C-61.42481416 75.91301814 -73.93834046 84.77310583 -87.5 93.9375 C-90.36323846 95.86528536 -93.2281935 97.79050609 -96.09375 99.71484375 C-96.78625351 100.18031616 -97.47875702 100.64578857 -98.19224548 101.12536621 C-102.83944652 104.24212694 -107.53069418 107.27845055 -112.26416016 110.26293945 C-118.50617247 114.22616608 -124.66640848 118.31809727 -130.8453064 122.37878418 C-137.23091971 126.57456278 -143.6164459 130.76798355 -150.0546875 134.8828125 C-150.95324463 135.4588623 -151.85180176 136.03491211 -152.77758789 136.62841797 C-154.40085626 137.66682195 -156.02736627 138.70018642 -157.65795898 139.72705078 C-162.86184054 143.06265071 -167.4610874 146.80845644 -172 151 C-173.11375 152.01707031 -173.11375 152.01707031 -174.25 153.0546875 C-184.92802989 164.16174537 -190.32574875 179.60597257 -190.26069641 194.80279541 C-190.26452196 195.76079882 -190.26834751 196.71880224 -190.27228898 197.70583606 C-190.28256823 200.90062698 -190.27863644 204.09523648 -190.2746582 207.29003906 C-190.27900754 209.58699204 -190.28419143 211.88394357 -190.29014587 214.18089294 C-190.30352473 220.41038149 -190.30411566 226.63980932 -190.30158257 232.86930943 C-190.30051189 238.07534737 -190.30539885 243.28137308 -190.310188 248.4874084 C-190.32191368 261.47614987 -190.32106035 274.46485681 -190.31463119 287.4536005 C-190.30946575 298.71294204 -190.32070934 309.97219698 -190.33972941 321.2315214 C-190.35914122 332.81220913 -190.3670669 344.39285224 -190.36360615 355.97355628 C-190.36179596 362.46730813 -190.36440307 368.96098068 -190.37832069 375.45471954 C-190.39092605 381.5647767 -190.38892917 387.67466105 -190.37590981 393.78471565 C-190.37355021 396.0211372 -190.37625648 398.25757102 -190.38453293 400.4939785 C-190.4585112 422.0461897 -187.18955218 440.0184104 -171.4699707 455.93994141 C-167.80057013 459.34260935 -163.73482567 461.86264227 -159.46875 464.44921875 C-152.31220402 468.87950523 -145.2676064 473.44088527 -138.30078125 478.1640625 C-137.40018478 478.77407608 -136.49958832 479.38408966 -135.57170105 480.0125885 C-132.81710368 481.88115135 -130.06446561 483.75256367 -127.3125 485.625 C-116.14395362 493.22318485 -104.97824799 500.77332691 -93.46484375 507.84179688 C-90.38523496 509.73916428 -87.373168 511.7264616 -84.37384033 513.74797058 C-73.95301609 520.71250512 -64.72449984 524.46190033 -52 523 C-37.53929247 520.01044606 -26.67729653 511.49231891 -15 503 C-12.06387773 500.8730934 -9.12576894 498.74893968 -6.1875 496.625 C-5.04764648 495.80020142 -5.04764648 495.80020142 -3.88476562 494.95874023 C1.91214614 490.76969971 7.74803612 486.63868626 13.59814453 482.52441406 C19.59252819 478.30239158 25.53876642 474.01579183 31.47827148 469.71704102 C41.02332739 462.80882105 50.61607258 455.97116605 60.25 449.1875 C66.96062605 444.46182493 73.62240697 439.67201182 80.26855469 434.85620117 C85.32014989 431.20049886 90.39927234 427.58677255 95.5 424 C104.39076572 417.74567124 113.19833001 411.3788447 122 405 C131.49682413 398.11735541 141.0115651 391.2657806 150.60571289 384.51928711 C155.76590345 380.88539208 160.88930875 377.20312056 166 373.5 C173.92341695 367.76070574 181.90132934 362.10276366 189.90429688 356.47509766 C192.67868456 354.52229589 195.44874533 352.56340279 198.21899414 350.60473633 C213.23883064 339.98838309 228.32313838 329.46476319 243.42553711 318.96630859 C252.14640477 312.90235711 260.84972425 306.81358521 269.54833984 300.71777344 C274.53334256 297.22499519 279.52055381 293.7353709 284.50732422 290.24511719 C288.63709659 287.35451808 292.7663847 284.46323311 296.89453125 281.5703125 C306.72500507 274.68271938 316.57042296 267.81705622 326.42626953 260.96582031 C335.14253374 254.90500679 343.84118692 248.81929621 352.53515625 242.7265625 C355.05382087 240.9622998 357.57361928 239.19966774 360.09375 237.4375 C360.93695801 236.84775391 361.78016602 236.25800781 362.64892578 235.65039062 C364.32679797 234.4769451 366.00485464 233.3037633 367.68310547 232.13085938 C371.72938068 229.30030995 375.76733205 226.45908819 379.7890625 223.59375 C380.93338745 222.77994873 380.93338745 222.77994873 382.10083008 221.94970703 C383.5219465 220.9378734 384.94121741 219.92343998 386.3581543 218.90576172 C398.28669924 210.41771076 409.19364803 206.17907212 424 208 C435.59265511 210.62547003 444.18118016 217.12147076 450.5 227.125 C454.19851255 233.51138504 455.29859733 239.84230914 455.26069641 247.14620972 C455.26452196 247.93804976 455.26834751 248.7298898 455.27228898 249.54572499 C455.28256101 252.18403504 455.27863791 254.8221251 455.2746582 257.46044922 C455.2790079 259.35818685 455.28419191 261.25592273 455.29014587 263.15365601 C455.30351966 268.29832965 455.30411632 273.44292976 455.30158257 278.5876174 C455.30051173 282.88674418 455.30539917 287.18585615 455.310188 291.48497975 C455.32127767 301.629809 455.32172367 311.77460122 455.31567383 321.91943359 C455.30963424 332.37531441 455.32194596 342.83106066 455.3432439 353.28691852 C455.3608733 362.27312192 455.36685912 371.25928254 455.36360615 380.24550259 C455.36179523 385.60849805 455.36441045 390.97139753 455.37832069 396.33437729 C455.39091609 401.37905721 455.38893867 406.42352771 455.37590981 411.4682045 C455.37354818 413.31564658 455.37626383 415.16310348 455.38453293 417.01052856 C455.43852547 430.01465767 454.67292396 440.58071805 446 451 C439.18881412 457.59564202 431.87663532 460.11302183 422.5 460.375 C410.29378607 459.97896988 403.80623162 455.09287767 395 447 C393.64648438 445.75863281 393.64648438 445.75863281 392.265625 444.4921875 C388.59817083 440.45798791 387.74902617 436.87506294 387.75949097 431.50138855 C387.75674164 430.40908936 387.75399231 429.31679016 387.75115967 428.19139099 C387.75835022 427.0031221 387.76554077 425.81485321 387.77294922 424.59057617 C387.77265717 423.33163544 387.77236511 422.0726947 387.77206421 420.77560425 C387.77149128 417.33173788 387.78323591 413.88801132 387.79721212 410.44417739 C387.8097294 406.84204937 387.81089077 403.23991802 387.81326294 399.63777161 C387.81947478 392.82033356 387.83588159 386.0029598 387.85596192 379.18555003 C387.87833013 371.42259205 387.88931667 363.65963096 387.89935279 355.89664876 C387.92024808 339.93106197 387.9554183 323.96553928 388 308 C385.61813072 309.58458662 383.23668328 311.16980109 380.85546875 312.75537109 C380.18769409 313.19952866 379.51991943 313.64368622 378.83190918 314.1013031 C373.17122455 317.87170175 367.57248891 321.72542835 362 325.625 C360.01435944 327.01046901 358.02868125 328.3958841 356.04296875 329.78125 C354.54515869 330.82732422 354.54515869 330.82732422 353.01708984 331.89453125 C349.08306016 334.63988422 345.14377454 337.37763716 341.2043457 340.11523438 C330.60877891 347.4789073 320.03148521 354.86833516 309.46484375 362.2734375 C306.94617913 364.0377002 304.42638072 365.80033226 301.90625 367.5625 C281.42833647 381.87722133 281.42833647 381.87722133 261.125 396.4375 C254.94825911 400.9252883 248.69645414 405.28125617 242.375 409.5625 C235.74851941 414.05414001 229.28955623 418.70937314 222.9152832 423.55102539 C216.10996458 428.70867804 209.13239294 433.60965255 202.13671875 438.50439453 C190.44134504 446.69062161 178.82625358 454.98294689 167.26611328 463.35888672 C163.51355206 466.07648169 159.7565875 468.78797486 156 471.5 C151.45220514 474.78388543 146.90490621 478.06845048 142.359375 481.35546875 C135.02749738 486.65621811 127.68905364 491.94678705 120.32055664 497.1965332 C115.59364258 500.5674928 110.89009337 503.97022626 106.1875 507.375 C100.31868597 511.62242981 94.42575593 515.83239752 88.5 520 C80.37207524 525.717802 72.31333759 531.52824238 64.26611328 537.35888672 C60.513552 540.07648173 56.75656581 542.78794473 53 545.5 C51.49997854 546.58330362 49.99997854 547.66663696 48.5 548.75 C45.5 550.91666667 42.5 553.08333333 39.5 555.25 C38.75717773 555.78665283 38.01435547 556.32330566 37.24902344 556.8762207 C35.75293095 557.95638908 34.25618846 559.03565775 32.75878906 560.11401367 C28.94309823 562.86365331 25.14091279 565.62931659 21.359375 568.42578125 C-7.88480531 589.9762362 -39.23429928 602.15906419 -76.0625 597.4375 C-99.0376018 592.68975497 -117.38385777 581.65505473 -136.51611328 568.67382812 C-139.91840954 566.38110715 -143.35968693 564.15311007 -146.8125 561.9375 C-158.59562549 554.35192187 -170.30212286 546.64859547 -182.00588989 538.94136047 C-185.76163181 536.46892226 -189.52265779 534.00496619 -193.29058838 531.55114746 C-204.43670274 524.28650061 -215.22669019 517.06308508 -225 508 C-225.96099609 507.15888672 -225.96099609 507.15888672 -226.94140625 506.30078125 C-248.75441775 486.20851775 -262.54029491 453.11273404 -265 424 C-265.13520754 420.5293632 -265.14367813 417.06313476 -265.14044189 413.59014893 C-265.14341302 412.57891047 -265.14638414 411.56767202 -265.1494453 410.52578998 C-265.15807687 407.15683322 -265.15963582 403.78791223 -265.16113281 400.41894531 C-265.16576484 397.99539108 -265.17079001 395.57183758 -265.17617798 393.14828491 C-265.18926517 386.57790743 -265.19577687 380.00753733 -265.20018864 373.43715 C-265.20295975 369.32848801 -265.20719857 365.21982833 -265.21169281 361.11116791 C-265.22387667 349.71705397 -265.2341787 338.32294187 -265.2375679 326.92882156 C-265.23778747 326.20094037 -265.23800703 325.47305917 -265.23823325 324.72312097 C-265.23845153 323.99358774 -265.23866981 323.26405451 -265.2388947 322.51241422 C-265.23933815 321.03431781 -265.23978472 319.5562214 -265.24023438 318.078125 C-265.2404558 317.34495209 -265.24067723 316.61177917 -265.24090537 315.8563889 C-265.24485224 303.98023943 -265.26230681 292.10415135 -265.2855939 280.22802559 C-265.30935436 268.01111139 -265.32177183 255.79422796 -265.32293582 243.5772903 C-265.32384978 236.72749019 -265.32953178 229.87777018 -265.34775543 223.02799225 C-265.36484278 216.58306947 -265.36637412 210.13825785 -265.35761642 203.69331741 C-265.35684803 201.33475716 -265.36116256 198.97618863 -265.37107468 196.61764908 C-265.41704735 184.99236758 -265.4437915 174.19861118 -262 163 C-261.6828963 161.67287914 -261.37428838 160.34366912 -261.078125 159.01171875 C-253.52016749 128.67293648 -235.08163249 100.52029646 -209.59765625 82.3515625 C-208.67840614 81.69597603 -208.67840614 81.69597603 -207.74058533 81.02714539 C-201.28934413 76.45490348 -194.69305041 72.11857677 -188.0625 67.8125 C-186.79327713 66.98497638 -185.52423752 66.15717162 -184.25537109 65.32910156 C-181.70762597 63.66711297 -179.15880402 62.00679848 -176.60888672 60.34814453 C-173.34266744 58.22352696 -170.07905923 56.09493504 -166.81640625 53.96484375 C-163.06614879 51.51662235 -159.3149209 49.06990422 -155.5625 46.625 C-150.73404392 43.47898046 -145.9078133 40.32956272 -141.08203125 37.17944336 C-137.26175877 34.6867408 -133.43940443 32.19723909 -129.6171875 29.70751953 C-127.20039574 28.13074327 -124.78719711 26.54863606 -122.375 24.96484375 C-94.40112653 6.64029622 -94.40112653 6.64029622 -79 2 C-77.54415543 1.5433365 -76.08843193 1.08628689 -74.6328125 0.62890625 C-73.13090706 0.16699278 -71.62830978 -0.29267769 -70.125 -0.75 C-69.43535156 -0.96116455 -68.74570312 -1.1723291 -68.03515625 -1.38989258 C-47.2668416 -7.4798307 -20.68037059 -5.58421625 0 0 Z " fill="#0B0B0B" transform="translate(445,327)"/>
<path d="M0 0 C0 0.66 0 1.32 0 2 C0.928125 2.04125 1.85625 2.0825 2.8125 2.125 C11.55609649 3.40927071 19.1030483 9.64262363 25.99609375 14.78125 C67.24516603 45.24870521 111.16774134 72.59611466 154.125 100.5625 C155.86331555 101.69656202 157.6015989 102.83067338 159.33984375 103.96484375 C162.40907305 105.96695481 165.48553721 107.95726507 168.56640625 109.94140625 C169.94033732 110.83557936 171.31405161 111.73008569 172.6875 112.625 C173.58009521 113.19263062 173.58009521 113.19263062 174.49072266 113.77172852 C178.49235096 116.39694388 182.33015726 119.215142 183.49609375 124.0625 C183.47675781 124.701875 183.45742188 125.34125 183.4375 126 C183.43556641 126.9590625 183.43556641 126.9590625 183.43359375 127.9375 C182.47989083 132.47403282 180.29124656 134.99954298 176.5 137.48046875 C175.00607655 138.39283763 173.50554255 139.29443456 172 140.1875 C165.89115972 143.91576942 159.85364511 147.72316691 153.9140625 151.71484375 C153.31084167 152.12008774 152.70762085 152.52533173 152.08612061 152.94285583 C149.66594433 154.57135451 147.24757516 156.20242159 144.83398438 157.84066772 C143.13409334 158.99400905 141.43056721 160.14181133 139.7265625 161.2890625 C138.74252441 161.95631348 137.75848633 162.62356445 136.74462891 163.31103516 C130.65487572 167.05849224 125.06410959 168.51127039 118 167 C113.39149806 164.57867392 109.29242035 161.62857446 105.11132812 158.54003906 C101.39073466 155.82617417 97.56096927 153.27201308 93.75 150.6875 C92.12429082 149.57395131 90.49929588 148.45935921 88.875 147.34375 C85.71140128 145.17255406 82.54499315 143.00559907 79.375 140.84375 C62.22488001 129.14396466 45.20168659 117.26183974 28.20532227 105.34008789 C27.43115967 104.79731201 26.65699707 104.25453613 25.859375 103.6953125 C25.18358398 103.22109863 24.50779297 102.74688477 23.81152344 102.25830078 C22.22066294 101.1532745 20.61167094 100.07444729 19 99 C19.00276538 99.66445444 19.00553076 100.32890888 19.00837994 101.01349831 C19.07466174 117.18858272 19.12429124 133.36362406 19.15543652 149.53881264 C19.17089886 157.36104843 19.19197622 165.18319352 19.22631836 173.00537109 C19.25624016 179.82397631 19.27557961 186.64251582 19.28226548 193.46118486 C19.28617306 197.07092255 19.29534302 200.68047229 19.31719017 204.29014969 C19.34139366 208.32193555 19.34196821 212.35339561 19.34057617 216.38525391 C19.351362 217.57927826 19.36214783 218.77330261 19.3732605 220.00350952 C19.3459091 227.31284633 18.7481426 232.00036348 13.65234375 237.5625 C3.31189624 246.84658524 -4.49426328 252.41924987 -18.54296875 252.27734375 C-26.9878005 251.59984877 -34.36555184 248.38669123 -40 242 C-48.3905951 231.15641671 -48.43645551 219.81966846 -48.38818359 206.72729492 C-48.39225318 204.8735371 -48.39759722 203.01978171 -48.40411377 201.16603088 C-48.41775001 196.14932828 -48.4125032 191.1328115 -48.40297651 186.11610579 C-48.39535736 180.85265223 -48.4024321 175.5892141 -48.40713501 170.32575989 C-48.41258744 161.48496662 -48.4054159 152.64424862 -48.39111328 143.8034668 C-48.37480294 133.60434778 -48.38006563 123.40540886 -48.3965925 113.20629424 C-48.41024009 104.4306107 -48.4121106 95.65498114 -48.40427649 86.8792904 C-48.39961599 81.64646318 -48.39892995 76.41372036 -48.40888596 71.18089867 C-48.41760052 66.2568228 -48.41145222 61.3329772 -48.39420319 56.40892601 C-48.39026156 54.60951112 -48.39133217 52.8100766 -48.39799118 51.01066971 C-48.4497421 35.59617597 -47.29369565 23.12306521 -36.5 11.25 C-35.675 10.5075 -34.85 9.765 -34 9 C-33.113125 8.154375 -32.22625 7.30875 -31.3125 6.4375 C-21.7879861 -1.10572404 -11.53966618 -0.45253593 0 0 Z " fill="#0B0B0B" transform="translate(401,535)"/>
<path d="M0 0 C110.22 0 220.44 0 334 0 C334 0.33 334 0.66 334 1 C332.94014893 1.03963867 331.88029785 1.07927734 330.78833008 1.12011719 C308.64688663 1.9735819 286.86945016 3.24509599 265 7 C264.04738281 7.16258301 263.09476562 7.32516602 262.11328125 7.49267578 C251.30229263 9.38768324 240.84739515 12.00327945 230.3762207 15.28515625 C228.53574615 15.83883029 226.68590514 16.36141914 224.83276367 16.87109375 C216.6854732 19.11473827 208.87581572 21.78453351 201.0625 25 C199.90153809 25.47711426 198.74057617 25.95422852 197.54443359 26.44580078 C167.01742868 39.23374678 139.2890332 56.7935257 114.51074219 78.66845703 C113.19474422 79.82835569 111.8678185 80.97583263 110.5390625 82.12109375 C104.7357653 87.20145461 99.27573389 92.62242475 93.8125 98.0625 C93.05163086 98.81869629 92.29076172 99.57489258 91.50683594 100.35400391 C59.73224768 132.21874267 35.22618104 172.36767579 21 215 C20.74557129 215.74314453 20.49114258 216.48628906 20.22900391 217.25195312 C6.3664046 257.90154857 1.82892939 300.27120867 1 343 C0.67 343 0.34 343 0 343 C0 229.81 0 116.62 0 0 Z " fill="#000000" transform="translate(0,0)"/>
<path d="M0 0 C0.33 0 0.66 0 1 0 C1 108.9 1 217.8 1 330 C-107.24 330 -215.48 330 -327 330 C-327 329.67 -327 329.34 -327 329 C-326.18772949 328.96036133 -325.37545898 328.92072266 -324.53857422 328.87988281 C-297.79335856 327.52294265 -271.12606335 325.17166629 -245 319 C-244.03771484 318.77505859 -243.07542969 318.55011719 -242.08398438 318.31835938 C-219.44911679 312.91280499 -197.38926326 305.03355741 -176.86279297 293.99462891 C-174.83833306 292.91367875 -172.7979459 291.86764093 -170.75390625 290.82421875 C-149.88832591 280.10253488 -130.49849827 266.62945496 -113 251 C-112.49227051 250.54866699 -111.98454102 250.09733398 -111.46142578 249.63232422 C-98.08370453 237.67785439 -85.00724045 225.19458885 -74 211 C-73.02886653 209.80369089 -72.05469307 208.60984564 -71.078125 207.41796875 C-64.92074655 199.8812527 -59.18593851 192.24990601 -54 184 C-53.59990723 183.37351562 -53.19981445 182.74703125 -52.78759766 182.1015625 C-32.44701554 150.1803784 -16.74514161 115.1706989 -9 78 C-8.82275391 77.14986328 -8.64550781 76.29972656 -8.46289062 75.42382812 C-3.38908434 50.49440446 -1.40771708 25.35154401 0 0 Z " fill="#000000" transform="translate(1253,924)"/>
<path d="M0 0 C0.33 0 0.66 0 1 0 C1.03963867 1.24160889 1.07927734 2.48321777 1.12011719 3.76245117 C2.18933735 36.19927455 4.67592559 67.28944727 12 99 C12.28230469 100.26585937 12.56460937 101.53171875 12.85546875 102.8359375 C18.18982461 124.72432729 27.08541364 145.83632182 37 166 C37.35271973 166.71929688 37.70543945 167.43859375 38.06884766 168.1796875 C54.33075787 200.91375639 77.77005832 228.74246986 103.375 254.5 C104.01679199 255.14654541 104.65858398 255.79309082 105.31982422 256.45922852 C112.15416595 263.26974799 119.39033527 269.46686944 127.0625 275.3125 C127.79710449 275.87227539 128.53170898 276.43205078 129.28857422 277.00878906 C136.32614418 282.32216195 143.55052253 287.28400015 151 292 C151.58394531 292.37044434 152.16789063 292.74088867 152.76953125 293.12255859 C206.39940332 326.84932681 265.48387375 339.05890858 328 342 C328 342.33 328 342.66 328 343 C219.76 343 111.52 343 0 343 C0 229.81 0 116.62 0 0 Z " fill="#010101" transform="translate(0,911)"/>
<path d="M0 0 C108.24 0 216.48 0 328 0 C328 113.19 328 226.38 328 343 C327.67 343 327.34 343 327 343 C326.98598145 341.88202026 326.98598145 341.88202026 326.97167969 340.74145508 C326.14443406 287.22596234 318.21427527 233.67328304 295 185 C294.60264648 184.16146484 294.20529297 183.32292969 293.79589844 182.45898438 C285.43509264 164.92760952 275.63128579 148.55271692 264 133 C263.37544922 132.15912842 263.37544922 132.15912842 262.73828125 131.30126953 C257.8753765 124.77562542 252.83101031 118.49295678 247.30078125 112.51171875 C245.4388274 110.47905945 243.63650372 108.41759919 241.83984375 106.328125 C237.51250479 101.37110237 232.90366244 96.71176182 228.25 92.0625 C227.36256104 91.1758667 226.47512207 90.2892334 225.56079102 89.37573242 C219.62883912 83.4991838 213.62120366 78.08911285 207 73 C205.26926912 71.5435234 203.54016784 70.08510866 201.8125 68.625 C163.4780834 37.34932866 117.02132354 18.31123244 69 8 C67.65470215 7.70416016 67.65470215 7.70416016 66.28222656 7.40234375 C44.55000131 2.76570338 22.12305659 2.25018315 0 1 C0 0.67 0 0.34 0 0 Z " fill="#000000" transform="translate(926,0)"/>
<path d="M0 0 C16.83 0 33.66 0 51 0 C51 0.33 51 0.66 51 1 C49.84588623 1.05534912 48.69177246 1.11069824 47.50268555 1.16772461 C43.17314251 1.375985 38.84375457 1.5873338 34.5144043 1.79956055 C32.64953563 1.89055725 30.78462726 1.98074424 28.91967773 2.07006836 C14.43954339 2.74708244 14.43954339 2.74708244 0 4 C0 2.68 0 1.36 0 0 Z " fill="#171616" transform="translate(283,0)"/>
<path d="M0 0 C0.66 0.99 1.32 1.98 2 3 C1.56171875 3.36609375 1.1234375 3.7321875 0.671875 4.109375 C-3.84704349 7.96698834 -8.14999368 12.01348953 -12.375 16.1875 C-13.16052246 16.95368652 -13.16052246 16.95368652 -13.96191406 17.73535156 C-16.56126404 20.32792799 -18.54343853 22.62612803 -20 26 C-22.58580744 29.01677535 -24.19171369 30.14006438 -28 31 C-29.73026102 32.47890069 -29.73026102 32.47890069 -31 34 C-31.66 33.67 -32.32 33.34 -33 33 C-32.39865234 32.4440918 -32.39865234 32.4440918 -31.78515625 31.87695312 C-23.75381767 24.43749323 -15.81464433 16.91840558 -8.0625 9.1875 C-7.37091797 8.50042969 -6.67933594 7.81335937 -5.96679688 7.10546875 C-5.32935547 6.46609375 -4.69191406 5.82671875 -4.03515625 5.16796875 C-3.4719165 4.60360107 -2.90867676 4.0392334 -2.32836914 3.45776367 C-0.89598642 2.01853588 -0.89598642 2.01853588 0 0 Z " fill="#1E1E1E" transform="translate(1171,1144)"/>
<path d="M0 0 C15.18 0 30.36 0 46 0 C45.67 0.66 45.34 1.32 45 2 C41.90918927 3.03027024 40.05643131 3.05623401 36.8359375 2.9140625 C35.28700806 2.84916626 35.28700806 2.84916626 33.70678711 2.78295898 C32.60729736 2.73083252 31.50780762 2.67870605 30.375 2.625 C29.25810791 2.57609619 28.14121582 2.52719238 26.99047852 2.47680664 C17.98833765 2.07287685 8.99234928 1.58134858 0 1 C0 0.67 0 0.34 0 0 Z " fill="#161616" transform="translate(926,0)"/>
<path d="M0 0 C0 16.5 0 33 0 50 C-0.33 50 -0.66 50 -1 50 C-1.02505615 49.10804932 -1.0501123 48.21609863 -1.07592773 47.29711914 C-1.17178118 43.94789975 -1.27096492 40.59881176 -1.37231445 37.24975586 C-1.41529012 35.80773698 -1.45698648 34.36567933 -1.49731445 32.92358398 C-1.71321518 25.23378648 -2.06038703 17.64218551 -3 10 C-3.10330915 6.98750529 -3.04787308 4.01600414 -3 1 C-1 0 -1 0 0 0 Z " fill="#242423" transform="translate(1254,293)"/>
<path d="M0 0 C13.67293897 0.56863921 27.33863352 1.19839672 41 2 C41 2.33 41 2.66 41 3 C27.47 3 13.94 3 0 3 C0 2.01 0 1.02 0 0 Z " fill="#111212" transform="translate(287,1251)"/>
<path d="M0 0 C0.33 0 0.66 0 1 0 C1.0740421 5.09029944 1.12855008 10.18028692 1.16479492 15.27099609 C1.1799009 17.00347349 1.20038694 18.73591254 1.22631836 20.46826172 C1.26262321 22.95549978 1.27970765 25.44223326 1.29296875 27.9296875 C1.30845261 28.70682098 1.32393646 29.48395447 1.33988953 30.28463745 C1.34057617 32.46826172 1.34057617 32.46826172 1 36 C0.01 36.66 -0.98 37.32 -2 38 C-1.45489952 25.32422283 -0.85241044 12.65920186 0 0 Z " fill="#1C1C1C" transform="translate(1253,924)"/>
<path d="M0 0 C0 0.66 0 1.32 0 2 C7.26 2 14.52 2 22 2 C22 2.33 22 2.66 22 3 C17.93751511 3.02909769 13.87505714 3.04683174 9.8125 3.0625 C8.08676758 3.07506836 8.08676758 3.07506836 6.32617188 3.08789062 C5.21435547 3.09111328 4.10253906 3.09433594 2.95703125 3.09765625 C1.93585205 3.10289307 0.91467285 3.10812988 -0.13745117 3.11352539 C-2.86901616 3.00519467 -5.34169374 2.61706868 -8 2 C-8 1.67 -8 1.34 -8 1 C-2.25 0 -2.25 0 0 0 Z " fill="#5C5D5D" transform="translate(864,922)"/>
<path d="M0 0 C3.96 1.98 7.92 3.96 12 6 C11.67 6.66 11.34 7.32 11 8 C6.50202887 6.31326082 2.27113698 4.18326108 -2 2 C-1.34 1.34 -0.68 0.68 0 0 Z " fill="#141414" transform="translate(468,337)"/>
<path d="M0 0 C2 1 2 1 3 3 C1.42274653 3.70133599 -0.16211333 4.385583 -1.75 5.0625 C-2.63171875 5.44535156 -3.5134375 5.82820313 -4.421875 6.22265625 C-7.15256309 7.04600008 -8.36901347 6.9773992 -11 6 C-9.21385682 4.96953278 -7.42089982 3.95086764 -5.625 2.9375 C-4.62726562 2.36902344 -3.62953125 1.80054688 -2.6015625 1.21484375 C-1.74304688 0.81394531 -0.88453125 0.41304688 0 0 Z M3 1 C5 2 5 2 5 2 Z " fill="#242425" transform="translate(797,333)"/>
<path d="M0 0 C-0.33 0.99 -0.66 1.98 -1 3 C-4.63 3 -8.26 3 -12 3 C-12.33 2.34 -12.66 1.68 -13 1 C-8.62426048 0.40667939 -4.42471556 -0.13827236 0 0 Z " fill="#0D0D0D" transform="translate(963,1251)"/>
<path d="M0 0 C0.66 0.66 1.32 1.32 2 2 C1.0925 2.598125 0.185 3.19625 -0.75 3.8125 C-3.8893965 5.83620328 -3.8893965 5.83620328 -6.125 7.8125 C-6.74375 8.204375 -7.3625 8.59625 -8 9 C-9.32 8.67 -10.64 8.34 -12 8 C-8.04 5.36 -4.08 2.72 0 0 Z " fill="#171717" transform="translate(977,788)"/>
<path d="M0 0 C0.99 0.33 1.98 0.66 3 1 C-0.49087093 5.0042343 -2.64951939 6.62671065 -8 7 C-3.04087193 1.86376022 -3.04087193 1.86376022 0 0 Z " fill="#202020" transform="translate(564,734)"/>
<path d="M0 0 C1.8871875 0.0309375 1.8871875 0.0309375 3.8125 0.0625 C3.8125 0.7225 3.8125 1.3825 3.8125 2.0625 C0.5125 2.3925 -2.7875 2.7225 -6.1875 3.0625 C-6.5175 2.4025 -6.8475 1.7425 -7.1875 1.0625 C-4.43671116 0.14557039 -2.82801087 -0.04636083 0 0 Z " fill="#171717" transform="translate(822.1875,325.9375)"/>
<path d="M0 0 C0.66 0.66 1.32 1.32 2 2 C0.92892883 2.86949317 -0.15745944 3.72014205 -1.25 4.5625 C-1.85328125 5.03816406 -2.4565625 5.51382813 -3.078125 6.00390625 C-5 7 -5 7 -9 6 C-6.03 4.02 -3.06 2.04 0 0 Z " fill="#171717" transform="translate(816,557)"/>
<path d="M0 0 C0.66 0.66 1.32 1.32 2 2 C1.38125 2.2475 0.7625 2.495 0.125 2.75 C-2.35068687 4.20628639 -2.95125002 5.37812506 -4 8 C-4.99 7.67 -5.98 7.34 -7 7 C-4.78071806 4.09197539 -3.07030857 2.04687238 0 0 Z " fill="#151516" transform="translate(368,543)"/>
<path d="M0 0 C1.17539996 0.92652701 2.34010577 1.86663387 3.5 2.8125 C4.1496875 3.33457031 4.799375 3.85664062 5.46875 4.39453125 C7 6 7 6 7 9 C0.70535714 4.17857143 0.70535714 4.17857143 0 0 Z " fill="#131214" transform="translate(268,778)"/>
<path d="M0 0 C-0.75 1.9375 -0.75 1.9375 -2 4 C-4 4.8125 -4 4.8125 -6 5 C-6.66 4.67 -7.32 4.34 -8 4 C-2.25 0 -2.25 0 0 0 Z " fill="#131313" transform="translate(1108,1201)"/>
<path d="M0 0 C0.99 0.33 1.98 0.66 3 1 C1.68 2.65 0.36 4.3 -1 6 C-1.99 5.67 -2.98 5.34 -4 5 C-2.68 3.35 -1.36 1.7 0 0 Z " fill="#E4E5E5" transform="translate(1137,1174)"/>
<path d="M0 0 C0.66 0.33 1.32 0.66 2 1 C1.40072174 4.35595828 0.15377564 6.37801226 -2 9 C-2.66 8.67 -3.32 8.34 -4 8 C-2.68 5.36 -1.36 2.72 0 0 Z " fill="#131314" transform="translate(1216,1079)"/>
<path d="M0 0 C0.99 0.33 1.98 0.66 3 1 C1.35 2.65 -0.3 4.3 -2 6 C-2.99 5.34 -3.98 4.68 -5 4 C-2.6875 1.9375 -2.6875 1.9375 0 0 Z " fill="#1D1D1D" transform="translate(550,744)"/>
<path d="M0 0 C0.99 0.33 1.98 0.66 3 1 C1 3 1 3 -2 4 C-3.66710346 5.49985609 -3.66710346 5.49985609 -5 7 C-5.66 6.34 -6.32 5.68 -7 5 C-5.90554162 4.13342884 -4.79902219 3.28207276 -3.6875 2.4375 C-3.07261719 1.96183594 -2.45773437 1.48617187 -1.82421875 0.99609375 C-1.22222656 0.66738281 -0.62023437 0.33867188 0 0 Z " fill="#1E1E1E" transform="translate(501,779)"/>
<path d="M0 0 C0 0.99 0 1.98 0 3 C-2.25 5.25 -2.25 5.25 -5 7 C-6.32 6.67 -7.64 6.34 -9 6 C-6.03 4.02 -3.06 2.04 0 0 Z " fill="#161516" transform="translate(708,393)"/>
<path d="M0 0 C0 0.66 0 1.32 0 2 C-1.32 2 -2.64 2 -4 2 C-4 2.66 -4 3.32 -4 4 C-5.65 3.67 -7.3 3.34 -9 3 C-5.73209435 0.82139623 -3.91954654 0 0 0 Z M-9 4 C-7 5 -7 5 -7 5 Z " fill="#1D1D1E" transform="translate(375,327)"/>
<path d="M0 0 C0.99 0 1.98 0 3 0 C2.1875 2.9375 2.1875 2.9375 1 6 C0.01 6.33 -0.98 6.66 -2 7 C-1.34 4.69 -0.68 2.38 0 0 Z " fill="#1D1D1D" transform="translate(998,759)"/>
<path d="M0 0 C1.98 1.65 3.96 3.3 6 5 C5.01 6.485 5.01 6.485 4 8 C2.35 5.69 0.7 3.38 -1 1 C-0.67 0.67 -0.34 0.34 0 0 Z " fill="#181718" transform="translate(887,545)"/>
<path d="M0 0 C0.99 0.33 1.98 0.66 3 1 C1.02579865 3.52259061 0.03254358 3.9929808 -3.1875 4.6875 C-4.5796875 4.8421875 -4.5796875 4.8421875 -6 5 C-5.195625 4.360625 -4.39125 3.72125 -3.5625 3.0625 C-1.7249496 1.59396498 -1.7249496 1.59396498 0 0 Z " fill="#222222" transform="translate(293,371)"/>
<path d="M0 0 C0.66 0.33 1.32 0.66 2 1 C2 1.66 2 2.32 2 3 C-2.43076923 5.09230769 -2.43076923 5.09230769 -5.3125 4.625 C-5.869375 4.41875 -6.42625 4.2125 -7 4 C-1.7265625 0.77734375 -1.7265625 0.77734375 0 0 Z " fill="#242424" transform="translate(348,336)"/>
<path d="M0 0 C3.91211733 1.15585285 6.8745041 2.35534962 10 5 C6.28111761 4.49287967 3.26545761 3.88391785 0 2 C0 1.34 0 0.68 0 0 Z " fill="#121313" transform="translate(406,538)"/>
</svg>
