<?xml version="1.0" encoding="UTF-8"?>
<svg version="1.1" xmlns="http://www.w3.org/2000/svg" width="1024" height="1024">
<path d="M0 0 C1.12019531 0.32871094 2.24039063 0.65742188 3.39453125 0.99609375 C17.68044518 5.62979647 29.98463544 13.86832982 42.44042969 22.06274414 C47.85884932 25.62626984 53.32547565 29.08210348 58.875 32.4375 C68.40332858 38.20664643 77.78836345 44.19262643 87.17236328 50.19287109 C94.54489009 54.9046172 101.92884115 59.5984848 109.31298828 64.29199219 C111.12413496 65.44325351 112.93500152 66.59495562 114.74560547 67.74707031 C117.37078896 69.41674169 119.99764489 71.0837485 122.625 72.75 C123.41285889 73.25160645 124.20071777 73.75321289 125.01245117 74.27001953 C125.74310791 74.73263184 126.47376465 75.19524414 127.2265625 75.671875 C127.86158691 76.0750293 128.49661133 76.47818359 129.15087891 76.89355469 C133.9783815 79.78215276 136.31314112 80.39064707 142 79 C144.83598881 77.65909831 147.43063763 76.01417862 150.0625 74.3125 C151.21890991 73.5853479 151.21890991 73.5853479 152.39868164 72.84350586 C154.9402454 71.24095719 157.47016321 69.62098702 160 68 C161.79893054 66.85850994 163.59841962 65.71789967 165.3984375 64.578125 C169.11891332 62.21896766 172.83468032 59.85263432 176.546875 57.48046875 C181.58373021 54.2626754 186.63249128 51.06418221 191.6875 47.875 C192.84886475 47.14204712 192.84886475 47.14204712 194.03369141 46.39428711 C197.12662568 44.4426773 200.22006229 42.49186448 203.31347656 40.54101562 C213.70453448 33.98699257 224.08171629 27.41180255 234.44067383 20.80712891 C235.30974365 20.25331543 236.17881348 19.69950195 237.07421875 19.12890625 C237.90228027 18.5992627 238.7303418 18.06961914 239.58349609 17.52392578 C241.1843724 16.51436123 242.79674753 15.52278729 244.42041016 14.55029297 C245.5213501 13.88924561 245.5213501 13.88924561 246.64453125 13.21484375 C247.29397705 12.83320068 247.94342285 12.45155762 248.61254883 12.05834961 C249.07040771 11.70909424 249.5282666 11.35983887 250 11 C250 10.34 250 9.68 250 9 C250.67546875 8.90332031 251.3509375 8.80664062 252.046875 8.70703125 C254.99095162 8.00216635 257.53231284 6.9183643 260.26171875 5.62524414 C283.34221434 -5.26033832 308.8046363 -6.44503045 333 2 C348.31897713 7.96485042 362.36602732 17.85076183 376.03125 26.85546875 C377.90863095 28.16753021 377.90863095 28.16753021 380 28 C381.34050356 29.32612434 382.67262827 30.6607316 384 32 C385.58980194 33.10818646 387.21558219 34.16590878 388.8671875 35.1796875 C389.82455811 35.77185059 390.78192871 36.36401367 391.76831055 36.97412109 C393.30612183 37.91505615 393.30612183 37.91505615 394.875 38.875 C397.04601827 40.21803035 399.21658101 41.56179731 401.38671875 42.90625 C402.48806152 43.586875 403.5894043 44.2675 404.72412109 44.96875 C440.76152692 67.31419764 468.66530531 87.81071671 479.55444336 130.70922852 C481.24740951 139.41339368 481.16188185 148.09053323 481.17700195 156.92089844 C481.18327599 158.53492882 481.18992361 160.14895779 481.19691467 161.76298523 C481.21785743 167.04510512 481.22831253 172.32722495 481.23828125 177.609375 C481.2423334 179.43779769 481.24645046 181.26622024 481.25063133 183.09464264 C481.26966685 191.69422652 481.28389752 200.29380194 481.2922433 208.89340281 C481.30198942 218.76911264 481.32824695 228.64459676 481.36874419 238.52022719 C481.39907983 246.18518297 481.41372884 253.85007472 481.41702431 261.51508927 C481.41935625 266.07756238 481.42807011 270.63979399 481.45348549 275.20220184 C481.62683635 308.05738522 479.44227151 335.41036523 457.625 361.6875 C457.2031543 362.19821045 456.78130859 362.7089209 456.34667969 363.23510742 C449.22911862 371.54468721 440.74328539 377.80200872 431.625 383.75 C430.57280273 384.44319336 429.52060547 385.13638672 428.43652344 385.85058594 C419.80917324 391.51595759 411.1369271 397.10809516 402.359375 402.53808594 C400.73132725 403.54685559 399.10651359 404.56085696 397.484375 405.57910156 C386.98752493 412.15951325 376.81741949 418.13322095 365 422 C364.03191406 422.33644531 363.06382812 422.67289063 362.06640625 423.01953125 C340.74871211 429.21949807 317.13573875 425.49589877 297.87890625 415.1953125 C289.85968674 410.7285264 282.11212916 405.84258691 274.4375 400.8125 C272.67326014 399.66133103 270.90893592 398.51029135 269.14453125 397.359375 C268.27521973 396.79154297 267.4059082 396.22371094 266.51025391 395.63867188 C255.44370423 388.41452468 244.31890091 381.28479717 233.16381836 374.19824219 C225.43760402 369.28676499 217.74481017 364.32562818 210.06640625 359.33984375 C207.91085242 357.94219731 205.75265002 356.54872154 203.59375 355.15625 C199.39087466 352.44510595 195.19397777 349.72488309 191 347 C190.37561035 346.59555664 189.7512207 346.19111328 189.10791016 345.77441406 C187.40194585 344.66721972 185.70081396 343.55258986 184 342.4375 C183.05125 341.81746094 182.1025 341.19742187 181.125 340.55859375 C178.08146056 338.32629184 178.03142537 337.15188931 177.25 333.375 C177.3475623 330.49947945 177.6947047 329.33647748 179.64453125 327.1875 C182.65406047 324.93156857 185.79276697 322.95630318 189 321 C190.91541811 319.80607546 192.83077762 318.61205689 194.74609375 317.41796875 C198.8403299 314.88621433 202.94172782 312.36726723 207.0625 309.87890625 C207.94035156 309.3485376 208.81820313 308.81816895 209.72265625 308.27172852 C214.70126959 305.49154017 219.43389633 305.11952968 225 306 C228.63718301 307.5340131 231.85354852 309.58195694 235.13720703 311.76318359 C237.21222176 313.14090635 239.30592255 314.48711502 241.40234375 315.83203125 C246.62102927 319.19178189 251.81049775 322.59541627 257 326 C260.85260284 328.5232301 264.70687847 331.04388512 268.5625 333.5625 C269.52792725 334.19317383 270.49335449 334.82384766 271.48803711 335.47363281 C278.35203055 339.9482651 285.25460696 344.35691566 292.19921875 348.70532227 C296.03205245 351.10861038 299.83846435 353.5414051 303.60546875 356.046875 C314.2355529 363.11911346 314.2355529 363.11911346 326 368 C326.99 368.33 327.98 368.66 329 369 C350.62455217 370.36552555 365.62207971 362.82572088 383.09741211 350.92993164 C387.3386292 348.0555419 391.66083379 345.36358801 396.05859375 342.73535156 C410.65539097 334.00483697 419.55444075 325.6159372 425 309 C425.94890257 305.07160644 426.13015243 301.40424573 426.14044189 297.36729431 C426.14341302 296.71403705 426.14638414 296.06077978 426.1494453 295.38772684 C426.15809271 293.20630672 426.1596372 291.02494174 426.16113281 288.84350586 C426.16576393 287.27605066 426.17078899 285.70859658 426.17617798 284.1411438 C426.189279 279.88663802 426.1957429 275.63214802 426.20018864 271.37762523 C426.20312416 268.71560566 426.20722996 266.05359036 426.21169281 263.39157295 C426.22536409 255.05148557 426.23503154 246.71140798 426.2388947 238.37131017 C426.24336928 228.76550219 426.26089078 219.15983693 426.2898953 209.55407232 C426.31156915 202.11605064 426.32160208 194.67806894 426.32293582 187.24001604 C426.32398013 182.80411412 426.3298073 178.36834643 426.34775543 173.93247795 C426.36433416 169.75373374 426.36634451 165.57522322 426.35761642 161.39645767 C426.35685116 159.87117063 426.36112058 158.34587052 426.37107468 156.82061577 C426.47373604 140.09540034 423.23198986 125.74917609 411.50390625 113.2421875 C406.16843446 108.46440153 400.06234883 104.77796424 394 101 C392.71330622 100.1891756 391.42684547 99.37798127 390.140625 98.56640625 C387.50037581 96.90624956 384.8538387 95.25667306 382.203125 93.61328125 C377.78547384 90.87247092 373.39229404 88.09370317 369 85.3125 C359.52097535 79.3171691 350.01756101 73.36128347 340.49609375 67.43359375 C337.30712299 65.44731435 334.12851486 63.44860593 330.97265625 61.41015625 C317.81739755 53.01018726 304.71882348 48.89669414 289.04296875 52.12109375 C274.35794214 56.36259694 261.63471903 66.59910024 249.03466797 74.98486328 C245.12480556 77.58116291 241.19321676 80.14224044 237.25 82.6875 C236.59668701 83.10999023 235.94337402 83.53248047 235.27026367 83.96777344 C228.58577133 88.28245002 221.86722371 92.54370972 215.15136719 96.80932617 C209.58423637 100.34760088 204.03260347 103.90800618 198.5 107.5 C189.219344 113.51909792 179.90827459 119.4895546 170.55175781 125.39013672 C168.93987118 126.40705027 167.32962058 127.4265659 165.72167969 128.44970703 C154.69566764 135.44649194 144.10305201 141.43717218 130.61425781 138.47631836 C124.73228556 136.77116581 119.88211298 134.50200212 114.75 131.1875 C113.99259521 130.71175537 113.23519043 130.23601074 112.45483398 129.74584961 C109.96220708 128.17568894 107.48098882 126.58847542 105 125 C103.20490321 123.86122827 101.40931915 122.72322435 99.61328125 121.5859375 C95.88256321 119.22000363 92.15634796 116.84719429 88.43359375 114.46875 C83.50542485 111.32055961 78.56908299 108.18563368 73.625 105.0625 C72.86944824 104.58522461 72.11389648 104.10794922 71.33544922 103.61621094 C64.79949206 99.49355126 58.24354712 95.40310763 51.6875 91.3125 C44.25492843 86.67447315 36.84886311 82.00365047 29.4921875 77.24609375 C24.29899455 73.89490456 19.06667938 70.6047342 13.83276367 67.31762695 C9.51357009 64.60274282 5.24500295 61.83000196 1 59 C-9.66080689 52.28582054 -21.56501907 49.52830976 -34.125 51.625 C-35.76126944 52.04131332 -37.38704344 52.50093529 -39 53 C-40.25876953 53.37511719 -40.25876953 53.37511719 -41.54296875 53.7578125 C-50.76647821 57.06214452 -58.51713103 62.81810113 -66.55078125 68.3046875 C-71.54703285 71.71576875 -76.62143098 74.97976513 -81.75 78.1875 C-88.32301838 82.30815201 -94.86316139 86.47224279 -101.3605957 90.71118164 C-105.41321225 93.34870344 -109.49218136 95.93602953 -113.6015625 98.484375 C-130.75094714 109.14980799 -144.48421709 118.46431593 -150 139 C-151.2353988 146.49696264 -151.14836432 153.96667385 -151.14526367 161.54736328 C-151.14826001 163.01349472 -151.15166363 164.47962537 -151.15544128 165.945755 C-151.16423934 169.91097511 -151.16661769 173.87617361 -151.16725707 177.84140253 C-151.16797021 180.32539116 -151.17010956 182.80937438 -151.17275429 185.29336166 C-151.18199539 193.97845556 -151.18609092 202.66353416 -151.18530273 211.34863281 C-151.18470299 219.41240574 -151.19523773 227.47611155 -151.2110464 235.53986752 C-151.22417673 242.48796402 -151.2294843 249.43603873 -151.22884732 256.38414752 C-151.22859385 260.52269471 -151.23136066 264.66118225 -151.24202538 268.79971695 C-151.25179875 272.69858886 -151.25172316 276.59734525 -151.24450874 280.49622154 C-151.24347412 281.91585016 -151.24575782 283.33548632 -151.2518692 284.75510216 C-151.31882461 301.40564566 -150.08778068 318.57556129 -138.01953125 331.3125 C-133.36514869 335.20165525 -128.211125 338.40900009 -123.1015625 341.65869141 C-121.01553815 342.99008287 -118.94372383 344.34112898 -116.875 345.69921875 C-113.34047794 348.01595387 -109.78933904 350.30509911 -106.2265625 352.578125 C-104.71120372 353.5458278 -103.19826831 354.51733363 -101.6875 355.4921875 C-85.86846816 365.66909798 -71.65356445 372.43230084 -52.34692383 368.80664062 C-39.29005366 365.78771111 -27.82416006 357.08751708 -16.9140625 349.63671875 C-12.49011624 346.62848093 -7.96772679 343.78219679 -3.4375 340.9375 C2.05853686 337.48359609 7.545703 334.0195172 13 330.5 C18.41603413 327.00700476 23.85927532 323.55960357 29.3125 320.125 C35.27330896 316.36861474 41.21523952 312.5862107 47.125 308.75 C62.34332407 298.87182168 77.633263 289.10405978 92.98144531 279.42895508 C101.6809637 273.94427567 110.35755545 268.42376862 119.02880859 262.89453125 C121.07570264 261.58936298 123.12292244 260.2847055 125.17041016 258.98046875 C141.08207984 248.84540654 141.08207984 248.84540654 156.81860352 238.44213867 C161.76837593 235.1210327 166.81152844 231.96245766 171.87670898 228.82104492 C178.98079073 224.40909065 185.98883283 219.85247543 193.00097656 215.29638672 C195.99467878 213.35494085 198.99691221 211.42688412 202 209.5 C205.66563034 207.14769012 209.32741404 204.78977406 212.98046875 202.41796875 C220.33175866 197.64592747 227.70428403 192.9134739 235.125 188.25 C242.26052491 183.76540086 249.32768605 179.18430925 256.375 174.5625 C264.03624503 169.54871096 271.73102683 164.59545473 279.5 159.75 C280.35384277 159.21318604 281.20768555 158.67637207 282.08740234 158.12329102 C291.88744843 152.05235337 300.33742683 148.57466386 312 151 C320.99640485 153.54397052 328.82629901 159.16646528 334 167 C338.77805997 175.77257956 339.15305694 183.89480596 339.17700195 193.72167969 C339.18685875 195.48380295 339.18685875 195.48380295 339.19691467 197.28152466 C339.21659416 201.16164214 339.22829753 205.04172104 339.23828125 208.921875 C339.24233279 210.26327789 339.24644983 211.60468058 339.25063133 212.94608307 C339.26965759 219.24972743 339.28389465 225.55336026 339.2922433 231.85702777 C339.3020101 239.10955035 339.32832553 246.36176728 339.36874419 253.61418223 C339.39899262 259.23649616 339.41372034 264.85872287 339.41702431 270.48111653 C339.41936462 273.8316828 339.43019403 277.18166271 339.45348549 280.53218842 C339.47789179 284.2752859 339.47690867 288.01758911 339.4699707 291.76074219 C339.48278076 292.85615326 339.49559082 293.95156433 339.50878906 295.08016968 C339.44561039 304.4662577 337.20774713 312.60622579 330.609375 319.53125 C324.1499898 325.4262229 317.59779072 326.26635039 309 326 C306.00948662 325.44328169 303.64038332 324.49213715 301 323 C300.38511719 322.67 299.77023437 322.34 299.13671875 322 C293.60571678 318.58901805 290.2446223 313.31663408 288.45080662 307.09527206 C287.71598918 303.6799663 287.82033497 300.22224446 287.79467773 296.74316406 C287.78477814 295.91352646 287.77487854 295.08388885 287.76467896 294.22911072 C287.73313257 291.49131101 287.70833366 288.75349397 287.68359375 286.015625 C287.6630183 284.11561639 287.64202167 282.21561229 287.62062073 280.31561279 C287.56546112 275.31796937 287.51602489 270.32028506 287.46777344 265.3225708 C287.41751379 260.22152065 287.36185103 255.12052979 287.30664062 250.01953125 C287.1991338 240.0130715 287.09767223 230.00656024 287 220 C282.72846999 220.7441166 280.04898221 222.01018787 276.421875 224.4296875 C274.81759644 225.49050537 274.81759644 225.49050537 273.1809082 226.57275391 C272.03722227 227.34009496 270.89358732 228.10751199 269.75 228.875 C268.56721877 229.6601993 267.38386444 230.44453595 266.19995117 231.22802734 C263.8563074 232.77975854 261.51491958 234.33479736 259.17529297 235.89257812 C255.24194986 238.50311309 251.28295729 241.07143158 247.3125 243.625 C240.69442237 247.89541549 234.09543395 252.19470696 227.5 256.5 C220.09775816 261.3315483 212.68874212 266.15209622 205.26367188 270.94848633 C201.63379647 273.2938581 198.00748939 275.64449741 194.38671875 278.00390625 C185.01511668 284.10993391 175.61636103 290.170189 166.1875 296.1875 C158.89383458 300.84422063 151.62871678 305.53231401 144.44555664 310.35766602 C131.00801159 319.37774671 117.34919173 328.06383027 103.70825195 336.77148438 C96.04307609 341.67252482 88.41991223 346.63485817 80.8125 351.625 C70.16420351 358.60745055 59.45244995 365.48217637 48.69433594 372.29394531 C44.0851495 375.21248417 39.47930682 378.13627007 34.875 381.0625 C33.96274658 381.64209473 33.05049316 382.22168945 32.1105957 382.81884766 C26.85725096 386.16252364 21.62581268 389.53720533 16.41357422 392.94458008 C12.28416637 395.6428236 8.14408279 398.3243622 4 401 C2.68636475 401.85005615 2.68636475 401.85005615 1.34619141 402.71728516 C-9.67551156 409.81475988 -20.56914449 416.66822739 -33 421 C-33.62132812 421.22010742 -34.24265625 421.44021484 -34.8828125 421.66699219 C-57.10104995 429.13021701 -83.93845366 427.05829539 -104.828125 416.69140625 C-114.07451118 411.76075943 -122.99461737 406.4807549 -131.765625 400.7421875 C-135.14513534 398.5369138 -138.56060282 396.39367535 -141.984375 394.2578125 C-153.32088279 387.15623148 -164.25025859 380.20316499 -174 371 C-175.21429688 369.90365234 -175.21429688 369.90365234 -176.453125 368.78515625 C-195.77670369 350.61179057 -204.96069273 325.07114588 -206.18611908 299.04750061 C-206.25692063 294.97756985 -206.27108974 290.91209829 -206.25878906 286.84179688 C-206.2615087 285.29891293 -206.26507502 283.75603028 -206.26940918 282.21315002 C-206.27841993 278.0746922 -206.27503638 273.93633564 -206.26865101 269.79787636 C-206.26353165 265.4345437 -206.26829875 261.0712188 -206.27142334 256.70788574 C-206.27504589 249.38515695 -206.27030911 242.06246871 -206.26074219 234.73974609 C-206.24986096 226.31456931 -206.25338776 217.88948938 -206.264395 209.46431494 C-206.27351695 202.18651176 -206.27472931 194.90873748 -206.26951766 187.63093042 C-206.26642478 183.30353366 -206.26591375 178.97618218 -206.27259064 174.64878845 C-206.27843548 170.57743307 -206.27423906 166.50620064 -206.26280212 162.43485832 C-206.26019321 160.95478963 -206.26085462 159.4747103 -206.26532745 157.99464607 C-206.34148849 130.1961456 -199.99951457 105.64890068 -182 84 C-181.29101562 83.13890625 -180.58203125 82.2778125 -179.8515625 81.390625 C-170.54362333 70.57056575 -159.77598767 62.99275062 -147.62890625 55.7734375 C-143.26675147 53.17992006 -138.99831888 50.46265645 -134.75 47.6875 C-125.44868714 41.62727218 -116.08471733 35.66781302 -106.71044922 29.72119141 C-104.12896945 28.08189827 -101.55050699 26.43796071 -98.97265625 24.79296875 C-94.3312518 21.83585036 -89.67036727 18.91110757 -85 16 C-83.90413574 15.31115723 -83.90413574 15.31115723 -82.78613281 14.60839844 C-57.92995384 -0.93643589 -28.9383806 -8.79185733 0 0 Z " fill="#FEFEFE" transform="translate(375,255)"/>
<path d="M0 0 C1.6692063 1.0495818 3.33848156 2.09905394 5.0078125 3.1484375 C9.71743495 6.12257769 14.40811233 9.12551203 19.09472656 12.13574219 C23.84741612 15.18545122 28.61097231 18.21804408 33.375 21.25 C34.29369873 21.83515381 35.21239746 22.42030762 36.15893555 23.02319336 C41.52668104 26.438681 46.91023373 29.82692897 52.3125 33.1875 C58.32180393 36.9270265 64.27542743 40.74601859 70.20849609 44.60522461 C74.32844908 47.28174171 78.46263536 49.93378106 82.61328125 52.5625 C83.57927246 53.17448242 84.54526367 53.78646484 85.54052734 54.41699219 C87.41328119 55.6019438 89.28722503 56.7850177 91.16259766 57.96582031 C95.6575815 60.81095679 100.12319885 63.69944235 104.53515625 66.671875 C105.34476807 67.21424805 106.15437988 67.75662109 106.98852539 68.31542969 C109.12587131 70.10541474 110.04778363 71.39860096 111 74 C110.7791557 78.41688609 109.18856416 80.09809503 106 83 C104.41416908 84.12623765 102.79411756 85.20536154 101.1484375 86.2421875 C100.21386719 86.83386719 99.27929688 87.42554688 98.31640625 88.03515625 C97.34574219 88.64230469 96.37507812 89.24945313 95.375 89.875 C94.42753906 90.47441406 93.48007812 91.07382812 92.50390625 91.69140625 C90.60637583 92.88807044 88.70370402 94.07662208 86.79589844 95.25683594 C84.95033476 96.407493 83.11961391 97.58235035 81.30566406 98.78222656 C76.41771444 101.93413047 73.00602053 104.06789625 67 103 C63.8515625 101.63671875 63.8515625 101.63671875 60.625 99.6875 C60.026875 99.32994629 59.42875 98.97239258 58.8125 98.60400391 C52.68483055 94.90187028 46.68834122 90.98332095 40.69921875 87.0625 C34.49862046 83.00769983 28.23889604 79.04592719 21.98071289 75.08081055 C17.855276 72.46445811 13.7377924 69.84086118 9.6640625 67.14453125 C9.0249292 66.72381348 8.3857959 66.3030957 7.72729492 65.86962891 C6.07330661 64.77719794 4.4250583 63.67608967 2.77734375 62.57421875 C0.09188591 61.0520816 -1.9590912 60.38499579 -5 60 C-6.21701466 63.65104397 -6.13662235 67.00047802 -6.12597656 70.80102539 C-6.1278447 71.5949469 -6.12971283 72.38886841 -6.13163757 73.20684814 C-6.13564183 74.93216184 -6.13771643 76.65748085 -6.13809967 78.38279915 C-6.14152038 82.0602303 -6.16289517 85.73748549 -6.18333054 89.414855 C-6.22129623 96.25958434 -6.25262241 103.10412793 -6.25048828 109.94897461 C-6.24969794 114.7118985 -6.27320584 119.47418049 -6.3123703 124.23693657 C-6.32278642 126.04563951 -6.32438689 127.85441694 -6.31671906 129.66313362 C-6.2753586 140.5063073 -6.24615936 149.62849653 -13.91339111 158.11878967 C-19.27354421 163.42670572 -25.48831552 166.0023966 -33 166.375 C-40.46352667 166.00478538 -46.72133006 163.4428948 -52.08644962 158.20819092 C-58.66035379 150.62206429 -59.73202551 142.03849864 -59.63110352 132.359375 C-59.63825882 131.14648804 -59.64541412 129.93360107 -59.65278625 128.68395996 C-59.6666964 125.39022436 -59.65847009 122.09752513 -59.63869596 118.80384827 C-59.62216805 115.33634681 -59.63114181 111.86889163 -59.63621521 108.40136719 C-59.64072055 102.58124871 -59.62496396 96.76145324 -59.59692383 90.94140625 C-59.56487871 84.23894402 -59.56489262 77.53706394 -59.5821386 70.83456039 C-59.59807293 64.35305323 -59.59122604 57.87175689 -59.57420158 51.39025879 C-59.56737827 48.64728083 -59.56831436 45.90447429 -59.57574654 43.16149902 C-59.58122773 39.32084717 -59.560728 35.48116609 -59.53344727 31.640625 C-59.53997314 30.51926147 -59.54649902 29.39789795 -59.55322266 28.24255371 C-59.42568608 17.62416192 -56.63445789 7.699432 -49 0 C-44.14489436 -4.00111312 -39.226826 -7.61626089 -33 -9 C-31.453125 -9.37125 -31.453125 -9.37125 -29.875 -9.75 C-18.08996582 -10.51032479 -9.65585937 -6.1518957 0 0 Z " fill="#FEFEFE" transform="translate(369,415)"/>
<path d="M0 0 C0.33 0 0.66 0 1 0 C1.06058594 0.84304688 1.12117187 1.68609375 1.18359375 2.5546875 C1.26738281 3.65039062 1.35117187 4.74609375 1.4375 5.875 C1.51871094 6.96554687 1.59992187 8.05609375 1.68359375 9.1796875 C1.83001703 11.94728971 1.83001703 11.94728971 3 14 C3.2038764 15.5998634 3.36506712 17.20535297 3.5 18.8125 C3.81510984 22.26870476 4.20983817 25.61359217 5 29 C4.67 28.34 4.34 27.68 4 27 C2.68 27 1.36 27 0 27 C0 24 0 24 1 23 C0.67 22.34 0.34 21.68 0 21 C0.66 21 1.32 21 2 21 C2 20.34 2 19.68 2 19 C1.34 19 0.68 19 0 19 C0 12.73 0 6.46 0 0 Z " fill="#EDEDED" transform="translate(0,835)"/>
<path d="M0 0 C-0.66 1.32 -1.32 2.64 -2 4 C-8.6 4 -15.2 4 -22 4 C-22 3.67 -22 3.34 -22 3 C-20.79601562 2.86722656 -19.59203125 2.73445312 -18.3515625 2.59765625 C-16.77601915 2.4194698 -15.20049953 2.2410735 -13.625 2.0625 C-12.8309375 1.97548828 -12.036875 1.88847656 -11.21875 1.79882812 C-7.3487291 1.3560715 -3.7856051 0 0 0 Z " fill="#EBECEC" transform="translate(864,1020)"/>
<path d="M0 0 C1.64826111 2.96687001 2.44271087 5.65626525 3 9 C2.67 8.34 2.34 7.68 2 7 C0.68 7 -0.64 7 -2 7 C-2 4 -2 4 -1 3 C-1.33 2.34 -1.66 1.68 -2 1 C-1.34 0.67 -0.68 0.34 0 0 Z " fill="#F7F8F7" transform="translate(2,855)"/>
<path d="M0 0 C0.33 0 0.66 0 1 0 C1 5.94 1 11.88 1 18 C-1.24959782 13.50080435 -1.07922275 11.65560575 -0.625 6.75 C-0.51414062 5.48671875 -0.40328125 4.2234375 -0.2890625 2.921875 C-0.19367187 1.95765625 -0.09828125 0.9934375 0 0 Z " fill="#E9EAEA" transform="translate(1023,836)"/>
<path d="M0 0 C0.33 0.66 0.66 1.32 1 2 C1.66 2.33 2.32 2.66 3 3 C4.125 5.0625 4.125 5.0625 5 7 C4.01 6.67 3.02 6.34 2 6 C1.01 6.495 1.01 6.495 0 7 C0 4.69 0 2.38 0 0 Z " fill="#FDFDFD" transform="translate(40,945)"/>
<path d="M0 0 C0.99 0.33 1.98 0.66 3 1 C1.68 3.31 0.36 5.62 -1 8 C-2 6 -2 6 -1.0625 2.875 C-0.5365625 1.451875 -0.5365625 1.451875 0 0 Z " fill="#FDFDFD" transform="translate(1013,888)"/>
<path d="M0 0 C0.33 0.66 0.66 1.32 1 2 C3.02463255 2.65213292 3.02463255 2.65213292 5 3 C5 3.66 5 4.32 5 5 C3.35 5 1.7 5 0 5 C0 3.35 0 1.7 0 0 Z " fill="#FCFDFD" transform="translate(72,979)"/>
<path d="M0 0 C0.66 0 1.32 0 2 0 C1.75 1.875 1.75 1.875 1 4 C-1.0625 5.25 -1.0625 5.25 -3 6 C-2.67 4.68 -2.34 3.36 -2 2 C-1.34 2 -0.68 2 0 2 C0 1.34 0 0.68 0 0 Z " fill="#F7F7F7" transform="translate(998,922)"/>
<path d="M0 0 C2.6015625 0.0234375 2.6015625 0.0234375 5.625 0.375 C6.62789062 0.48585938 7.63078125 0.59671875 8.6640625 0.7109375 C9.82035156 0.85402344 9.82035156 0.85402344 11 1 C11 1.33 11 1.66 11 2 C6.71 2 2.42 2 -2 2 C-1.34 1.34 -0.68 0.68 0 0 Z " fill="#D5D6D6" transform="translate(180,1022)"/>
<path d="M0 0 C0.99 0 1.98 0 3 0 C3.66 1.65 4.32 3.3 5 5 C2.525 4.01 2.525 4.01 0 3 C0 2.01 0 1.02 0 0 Z " fill="#FBFCFC" transform="translate(24,923)"/>
<path d="M0 0 C0.66 0 1.32 0 2 0 C1.6875 1.9375 1.6875 1.9375 1 4 C0.01 4.33 -0.98 4.66 -2 5 C-1.125 1.125 -1.125 1.125 0 0 Z " fill="#F8F9F9" transform="translate(942,986)"/>
<path d="M0 0 C2.33944736 0.28730055 4.6739143 0.61936779 7 1 C3.94736336 1.98120464 2.05263664 1.98120464 -1 1 C-0.67 0.67 -0.34 0.34 0 0 Z " fill="#EEEEEE" transform="translate(851,0)"/>
<path d="M0 0 C0.66 0.66 1.32 1.32 2 2 C1.625 4.125 1.625 4.125 1 6 C0.34 5.34 -0.32 4.68 -1 4 C-0.625 1.875 -0.625 1.875 0 0 Z " fill="#FCFDFC" transform="translate(1021,860)"/>
<path d="M0 0 C0 0.99 0 1.98 0 3 C-1.98 3.99 -1.98 3.99 -4 5 C-2.25 1.125 -2.25 1.125 0 0 Z " fill="#F3F3F4" transform="translate(951,979)"/>
<path d="M0 0 C0.66 1.32 1.32 2.64 2 4 C1.01 4 0.02 4 -1 4 C-0.67 2.68 -0.34 1.36 0 0 Z " fill="#FAFCFB" transform="translate(1022,855)"/>
<path d="M0 0 C0.33 0 0.66 0 1 0 C1 1.98 1 3.96 1 6 C0.01 6.495 0.01 6.495 -1 7 C-0.67 4.69 -0.34 2.38 0 0 Z " fill="#FBFBFB" transform="translate(983,945)"/>
<path d="M0 0 C2.97 0.495 2.97 0.495 6 1 C6 1.33 6 1.66 6 2 C4.02 2 2.04 2 0 2 C0 1.34 0 0.68 0 0 Z " fill="#F0F0F0" transform="translate(171,1022)"/>
<path d="M0 0 C0.99 1.32 1.98 2.64 3 4 C1.35 3.67 -0.3 3.34 -2 3 C-1.34 2.67 -0.68 2.34 0 2 C0 1.34 0 0.68 0 0 Z " fill="#F9FAF9" transform="translate(18,907)"/>
<path d="M0 0 C2.0625 0.4375 2.0625 0.4375 4 1 C3.01 1.33 2.02 1.66 1 2 C0.34 1.67 -0.32 1.34 -1 1 C-0.67 0.67 -0.34 0.34 0 0 Z " fill="#FAFBFB" transform="translate(908,1006)"/>
<path d="M0 0 C0.66 0.33 1.32 0.66 2 1 C1.34 1.66 0.68 2.32 0 3 C-0.66 3 -1.32 3 -2 3 C-2 2.34 -2 1.68 -2 1 C-1.34 0.67 -0.68 0.34 0 0 Z " fill="#FBFBFB" transform="translate(988,940)"/>
<path d="M0 0 C2.31 0 4.62 0 7 0 C7 0.33 7 0.66 7 1 C4.69 1 2.38 1 0 1 C0 0.67 0 0.34 0 0 Z " fill="#E5E4E4" transform="translate(843,0)"/>
<path d="M0 0 C1.32 0.33 2.64 0.66 4 1 C3.01 1.33 2.02 1.66 1 2 C0.67 1.34 0.34 0.68 0 0 Z " fill="#F5F5F6" transform="translate(956,974)"/>
<path d="M0 0 C0.33 0 0.66 0 1 0 C1 1.98 1 3.96 1 6 C0.67 6 0.34 6 0 6 C0 4.02 0 2.04 0 0 Z " fill="#EAEBEC" transform="translate(1023,176)"/>
<path d="M0 0 C1.98 0 3.96 0 6 0 C6 0.33 6 0.66 6 1 C4.02 1 2.04 1 0 1 C0 0.67 0 0.34 0 0 Z " fill="#E8E8E7" transform="translate(172,0)"/>
<path d="M0 0 C1.65 0 3.3 0 5 0 C5 0.33 5 0.66 5 1 C3.35 1 1.7 1 0 1 C0 0.67 0 0.34 0 0 Z " fill="#F8FAF9" transform="translate(159,1021)"/>
<path d="M0 0 C1.65 0 3.3 0 5 0 C5 0.33 5 0.66 5 1 C3.35 1 1.7 1 0 1 C0 0.67 0 0.34 0 0 Z " fill="#F8F9F9" transform="translate(884,1015)"/>
<path d="M0 0 C0.66 0 1.32 0 2 0 C1.67 0.99 1.34 1.98 1 3 C0.67 2.01 0.34 1.02 0 0 Z " fill="#FAFAFA" transform="translate(4,868)"/>
<path d="M0 0 C0.33 0.99 0.66 1.98 1 3 C0.34 3 -0.32 3 -1 3 C-0.67 2.01 -0.34 1.02 0 0 Z " fill="#FBFCFC" transform="translate(1023,165)"/>
<path d="M0 0 C0.33 0.66 0.66 1.32 1 2 C0.34 2.66 -0.32 3.32 -1 4 C-0.67 2.68 -0.34 1.36 0 0 Z " fill="#FDFDFD" transform="translate(1022,159)"/>
<path d="M0 0 C0.99 1.485 0.99 1.485 2 3 C1.01 3.495 1.01 3.495 0 4 C0 2.68 0 1.36 0 0 Z " fill="#F9FAF9" transform="translate(40,75)"/>
<path d="M0 0 C0.99 0.33 1.98 0.66 3 1 C2.01 1.33 1.02 1.66 0 2 C0 1.34 0 0.68 0 0 Z " fill="#EBEBEB" transform="translate(168,0)"/>
<path d="M0 0 C1.485 0.99 1.485 0.99 3 2 C2.01 2 1.02 2 0 2 C0 1.34 0 0.68 0 0 Z " fill="#F5F7F6" transform="translate(166,1022)"/>
<path d="M0 0 C0.66 0 1.32 0 2 0 C1.67 0.99 1.34 1.98 1 3 C0.67 2.01 0.34 1.02 0 0 Z " fill="#F9F9FA" transform="translate(870,1019)"/>
<path d="M0 0 C0.33 0.99 0.66 1.98 1 3 C0.34 2.67 -0.32 2.34 -1 2 C-0.67 1.34 -0.34 0.68 0 0 Z " fill="#FCFCFC" transform="translate(967,965)"/>
<path d="M0 0 C0.33 0.99 0.66 1.98 1 3 C0.34 2.67 -0.32 2.34 -1 2 C-0.67 1.34 -0.34 0.68 0 0 Z " fill="#F6F7F7" transform="translate(990,935)"/>
<path d="M0 0 C0 3 0 3 0 3 Z " fill="#FCFDFD" transform="translate(12,893)"/>
<path d="M0 0 C0.33 0.99 0.66 1.98 1 3 C0.34 2.67 -0.32 2.34 -1 2 C-0.67 1.34 -0.34 0.68 0 0 Z " fill="#FCFDFC" transform="translate(1015,881)"/>
<path d="M0 0 C1 4 1 4 1 4 Z " fill="#B5B5B6" transform="translate(0,828)"/>
<path d="M0 0 C1 4 1 4 1 4 Z " fill="#FDFCFE" transform="translate(800,481)"/>
<path d="M0 0 C0.66 0 1.32 0 2 0 C2 0.66 2 1.32 2 2 C1.34 2 0.68 2 0 2 C0 1.34 0 0.68 0 0 Z " fill="#F8F8F8" transform="translate(1022,169)"/>
<path d="M0 0 C0.99 0.495 0.99 0.495 2 1 C1.34 1.66 0.68 2.32 0 3 C0 2.01 0 1.02 0 0 Z " fill="#FCFDFC" transform="translate(26,97)"/>
<path d="M0 0 C0.66 0 1.32 0 2 0 C2 0.66 2 1.32 2 2 C1.34 2 0.68 2 0 2 C0 1.34 0 0.68 0 0 Z " fill="#F8F8F7" transform="translate(164,0)"/>
<path d="M0 0 C0.66 0 1.32 0 2 0 C1.67 0.66 1.34 1.32 1 2 C0.67 1.34 0.34 0.68 0 0 Z " fill="#FAFBFB" transform="translate(131,1013)"/>
<path d="M0 0 C0.33 0.66 0.66 1.32 1 2 C0.34 1.67 -0.32 1.34 -1 1 C-0.67 0.67 -0.34 0.34 0 0 Z " fill="#FAF9FB" transform="translate(924,998)"/>
<path d="M0 0 C0.33 0.66 0.66 1.32 1 2 C0.34 1.67 -0.32 1.34 -1 1 C-0.67 0.67 -0.34 0.34 0 0 Z " fill="#F4F4F5" transform="translate(68,974)"/>
<path d="" fill="#FBFBFC" transform="translate(0,0)"/>
<path d="" fill="#F3F4F4" transform="translate(0,0)"/>
<path d="" fill="#FDFEFD" transform="translate(0,0)"/>
<path d="M0 0 C3 1 3 1 3 1 Z " fill="#F7F7F7" transform="translate(8,885)"/>
<path d="" fill="#FDFEFE" transform="translate(0,0)"/>
<path d="M0 0 C3 1 3 1 3 1 Z " fill="#FBFCFC" transform="translate(328,581)"/>
<path d="" fill="#FCFEFE" transform="translate(0,0)"/>
<path d="" fill="#FCFCFE" transform="translate(0,0)"/>
<path d="M0 0 C3 1 3 1 3 1 Z " fill="#F9F9FA" transform="translate(74,41)"/>
<path d="M0 0 C2 1 2 1 2 1 Z " fill="#C1C2C2" transform="translate(838,1023)"/>
<path d="" fill="#F8F7F8" transform="translate(0,0)"/>
<path d="" fill="#F9FBFB" transform="translate(0,0)"/>
<path d="" fill="#FAFBFB" transform="translate(0,0)"/>
<path d="M0 0 C2 1 2 1 2 1 Z " fill="#FCFDFC" transform="translate(128,1013)"/>
<path d="M0 0 C2 1 2 1 2 1 Z " fill="#F9FBF9" transform="translate(113,1005)"/>
<path d="" fill="#FDFEFD" transform="translate(0,0)"/>
<path d="" fill="#F8F8F9" transform="translate(0,0)"/>
<path d="M0 0 C2 1 2 1 2 1 Z " fill="#FCFCFC" transform="translate(96,997)"/>
<path d="" fill="#FDFCFE" transform="translate(0,0)"/>
<path d="" fill="#FEFEFE" transform="translate(0,0)"/>
<path d="" fill="#FBFCFC" transform="translate(0,0)"/>
<path d="" fill="#FDFEFE" transform="translate(0,0)"/>
<path d="" fill="#FDFDFC" transform="translate(0,0)"/>
<path d="M0 0 C2 1 2 1 2 1 Z " fill="#FEFEFE" transform="translate(1006,906)"/>
<path d="" fill="#FDFEFE" transform="translate(0,0)"/>
<path d="" fill="#FDFCFD" transform="translate(0,0)"/>
<path d="" fill="#F3F2F3" transform="translate(0,0)"/>
<path d="" fill="#FEFFFF" transform="translate(0,0)"/>
<path d="M0 0 C2 1 2 1 2 1 Z " fill="#FDFDFD" transform="translate(1014,135)"/>
<path d="" fill="#FDFFFE" transform="translate(0,0)"/>
<path d="" fill="#FDFDFF" transform="translate(0,0)"/>
<path d="M0 0 C2 1 2 1 2 1 Z " fill="#F7F8F7" transform="translate(44,72)"/>
<path d="" fill="#FEFDFD" transform="translate(0,0)"/>
<path d="" fill="#F9F8F8" transform="translate(0,0)"/>
<path d="" fill="#FBFBFC" transform="translate(0,0)"/>
<path d="" fill="#F9FAFC" transform="translate(0,0)"/>
<path d="" fill="#F9FAFB" transform="translate(0,0)"/>
<path d="" fill="#FCFBFD" transform="translate(0,0)"/>
<path d="" fill="#E1E2E2" transform="translate(0,0)"/>
<path d="" fill="#FEFCFB" transform="translate(0,0)"/>
<path d="" fill="#F2F4F4" transform="translate(0,0)"/>
<path d="" fill="#F9FBFB" transform="translate(0,0)"/>
<path d="" fill="#FCFDFD" transform="translate(0,0)"/>
<path d="" fill="#FBFCFD" transform="translate(0,0)"/>
<path d="" fill="#EBECF0" transform="translate(0,0)"/>
<path d="" fill="#E9EBE9" transform="translate(0,0)"/>
<path d="" fill="#EEEFEE" transform="translate(0,0)"/>
<path d="" fill="#E1E1E1" transform="translate(0,0)"/>
<path d="" fill="#F2F4F4" transform="translate(0,0)"/>
<path d="" fill="#FBFAFC" transform="translate(0,0)"/>
<path d="" fill="#FDFEFF" transform="translate(0,0)"/>
<path d="" fill="#F9F9FB" transform="translate(0,0)"/>
<path d="" fill="#FAFBFA" transform="translate(0,0)"/>
<path d="" fill="#FEFEFD" transform="translate(0,0)"/>
<path d="" fill="#FDFFFE" transform="translate(0,0)"/>
<path d="" fill="#FAFCFD" transform="translate(0,0)"/>
<path d="" fill="#FEFEFF" transform="translate(0,0)"/>
<path d="" fill="#F9FDFB" transform="translate(0,0)"/>
<path d="" fill="#FDFEFF" transform="translate(0,0)"/>
<path d="" fill="#F9FBFA" transform="translate(0,0)"/>
<path d="" fill="#DCDDDE" transform="translate(0,0)"/>
<path d="" fill="#6B6C6C" transform="translate(0,0)"/>
<path d="" fill="#FDFDFD" transform="translate(0,0)"/>
<path d="" fill="#F3F3F4" transform="translate(0,0)"/>
<path d="" fill="#EEEEEF" transform="translate(0,0)"/>
<path d="" fill="#F9FBFD" transform="translate(0,0)"/>
<path d="" fill="#FEFEFF" transform="translate(0,0)"/>
<path d="" fill="#FAFAFA" transform="translate(0,0)"/>
<path d="" fill="#F5F5F7" transform="translate(0,0)"/>
<path d="" fill="#858685" transform="translate(0,0)"/>
<path d="" fill="#FDFBFC" transform="translate(0,0)"/>
<path d="" fill="#FCFEFD" transform="translate(0,0)"/>
<path d="" fill="#F5F4F5" transform="translate(0,0)"/>
<path d="" fill="#D1D2D4" transform="translate(0,0)"/>
<path d="" fill="#FEFFFF" transform="translate(0,0)"/>
<path d="" fill="#FDFCFD" transform="translate(0,0)"/>
<path d="" fill="#FEFEFF" transform="translate(0,0)"/>
<path d="" fill="#6C6C6D" transform="translate(0,0)"/>
<path d="" fill="#686866" transform="translate(0,0)"/>
<path d="" fill="#656666" transform="translate(0,0)"/>
<path d="" fill="#656565" transform="translate(0,0)"/>
<path d="" fill="#FFFFFE" transform="translate(0,0)"/>
<path d="" fill="#FCFEFE" transform="translate(0,0)"/>
<path d="" fill="#636465" transform="translate(0,0)"/>
<path d="" fill="#FFFEFF" transform="translate(0,0)"/>
<path d="" fill="#FDFEFD" transform="translate(0,0)"/>
<path d="" fill="#FEFEFE" transform="translate(0,0)"/>
<path d="" fill="#FEFEFF" transform="translate(0,0)"/>
<path d="" fill="#FCFDFD" transform="translate(0,0)"/>
<path d="" fill="#636360" transform="translate(0,0)"/>
<path d="" fill="#626363" transform="translate(0,0)"/>
<path d="" fill="#676767" transform="translate(0,0)"/>
<path d="" fill="#E9E7E9" transform="translate(0,0)"/>
<path d="" fill="#FDFEFD" transform="translate(0,0)"/>
<path d="" fill="#787677" transform="translate(0,0)"/>
<path d="" fill="#616461" transform="translate(0,0)"/>
<path d="" fill="#646464" transform="translate(0,0)"/>
<path d="" fill="#F0F2F3" transform="translate(0,0)"/>
<path d="" fill="#656564" transform="translate(0,0)"/>
<path d="" fill="#FFFFFF" transform="translate(0,0)"/>
<path d="" fill="#FEFEFF" transform="translate(0,0)"/>
<path d="" fill="#646363" transform="translate(0,0)"/>
<path d="" fill="#FFFFFE" transform="translate(0,0)"/>
<path d="" fill="#FFFEFE" transform="translate(0,0)"/>
<path d="" fill="#FDFEFF" transform="translate(0,0)"/>
<path d="" fill="#636464" transform="translate(0,0)"/>
<path d="" fill="#838482" transform="translate(0,0)"/>
<path d="" fill="#FEFDFF" transform="translate(0,0)"/>
<path d="" fill="#FEFDFE" transform="translate(0,0)"/>
<path d="" fill="#FFFFFF" transform="translate(0,0)"/>
<path d="" fill="#FEFFFE" transform="translate(0,0)"/>
<path d="" fill="#FDFCFD" transform="translate(0,0)"/>
<path d="" fill="#666565" transform="translate(0,0)"/>
<path d="" fill="#FFFEFE" transform="translate(0,0)"/>
<path d="" fill="#636665" transform="translate(0,0)"/>
<path d="" fill="#6F6D6F" transform="translate(0,0)"/>
<path d="" fill="#61605F" transform="translate(0,0)"/>
<path d="" fill="#FCFEFF" transform="translate(0,0)"/>
<path d="" fill="#FEFFFF" transform="translate(0,0)"/>
<path d="" fill="#656465" transform="translate(0,0)"/>
<path d="" fill="#FDFDFD" transform="translate(0,0)"/>
<path d="" fill="#656566" transform="translate(0,0)"/>
<path d="" fill="#CCCBCD" transform="translate(0,0)"/>
<path d="" fill="#636364" transform="translate(0,0)"/>
<path d="" fill="#6E7070" transform="translate(0,0)"/>
<path d="" fill="#747573" transform="translate(0,0)"/>
<path d="" fill="#686A69" transform="translate(0,0)"/>
<path d="" fill="#78797A" transform="translate(0,0)"/>
<path d="" fill="#F2F4F4" transform="translate(0,0)"/>
<path d="" fill="#F3F4F3" transform="translate(0,0)"/>
<path d="" fill="#F6F8F8" transform="translate(0,0)"/>
<path d="" fill="#F4F6F6" transform="translate(0,0)"/>
<path d="" fill="#7F7F80" transform="translate(0,0)"/>
<path d="" fill="#F7F8F8" transform="translate(0,0)"/>
<path d="" fill="#FBF9F9" transform="translate(0,0)"/>
<path d="" fill="#F9F8FA" transform="translate(0,0)"/>
<path d="" fill="#FCFCFD" transform="translate(0,0)"/>
<path d="" fill="#F2F3F4" transform="translate(0,0)"/>
<path d="" fill="#F6F8F9" transform="translate(0,0)"/>
<path d="" fill="#FCFBFD" transform="translate(0,0)"/>
<path d="" fill="#FBFAFA" transform="translate(0,0)"/>
<path d="" fill="#FDFDFE" transform="translate(0,0)"/>
<path d="" fill="#FDFDFF" transform="translate(0,0)"/>
<path d="" fill="#FBFEFE" transform="translate(0,0)"/>
<path d="" fill="#FDFFFE" transform="translate(0,0)"/>
<path d="" fill="#FDFCFF" transform="translate(0,0)"/>
<path d="" fill="#FDFFFF" transform="translate(0,0)"/>
<path d="" fill="#FEFCFE" transform="translate(0,0)"/>
<path d="" fill="#FCFFFF" transform="translate(0,0)"/>
<path d="" fill="#FDFDFD" transform="translate(0,0)"/>
<path d="" fill="#FEFDFE" transform="translate(0,0)"/>
<path d="" fill="#FDFDFE" transform="translate(0,0)"/>
<path d="" fill="#FCFDFF" transform="translate(0,0)"/>
<path d="" fill="#FDFDFD" transform="translate(0,0)"/>
<path d="" fill="#FDFEFD" transform="translate(0,0)"/>
<path d="" fill="#FDFEFE" transform="translate(0,0)"/>
<path d="" fill="#FDFEFE" transform="translate(0,0)"/>
<path d="" fill="#FCFCFC" transform="translate(0,0)"/>
<path d="" fill="#FDFDFE" transform="translate(0,0)"/>
<path d="" fill="#FCFEFD" transform="translate(0,0)"/>
<path d="" fill="#FEFCFF" transform="translate(0,0)"/>
<path d="" fill="#FCFDFF" transform="translate(0,0)"/>
<path d="" fill="#FDFDFD" transform="translate(0,0)"/>
<path d="" fill="#FEFBFF" transform="translate(0,0)"/>
<path d="" fill="#FCFDFA" transform="translate(0,0)"/>
<path d="" fill="#FCFDFF" transform="translate(0,0)"/>
<path d="" fill="#FCFDFD" transform="translate(0,0)"/>
<path d="" fill="#FDFEFD" transform="translate(0,0)"/>
<path d="" fill="#FDFDFE" transform="translate(0,0)"/>
<path d="" fill="#FCFDFE" transform="translate(0,0)"/>
<path d="" fill="#FDFDFE" transform="translate(0,0)"/>
<path d="" fill="#FCFBFB" transform="translate(0,0)"/>
<path d="" fill="#FDFDFD" transform="translate(0,0)"/>
<path d="" fill="#FDFFFF" transform="translate(0,0)"/>
<path d="" fill="#FCFDFD" transform="translate(0,0)"/>
<path d="" fill="#FDFDFE" transform="translate(0,0)"/>
<path d="" fill="#FFFDFF" transform="translate(0,0)"/>
<path d="" fill="#FBFCFC" transform="translate(0,0)"/>
<path d="" fill="#FDFEFD" transform="translate(0,0)"/>
<path d="" fill="#FDFCFB" transform="translate(0,0)"/>
<path d="" fill="#FEFDFF" transform="translate(0,0)"/>
<path d="" fill="#FAFDFC" transform="translate(0,0)"/>
<path d="" fill="#FEFCFF" transform="translate(0,0)"/>
<path d="" fill="#FCFAFC" transform="translate(0,0)"/>
<path d="" fill="#FEFDFF" transform="translate(0,0)"/>
<path d="" fill="#F5F7F8" transform="translate(0,0)"/>
<path d="" fill="#F5F6F6" transform="translate(0,0)"/>
<path d="" fill="#888A89" transform="translate(0,0)"/>
<path d="" fill="#C5C5C6" transform="translate(0,0)"/>
<path d="" fill="#FDFCFF" transform="translate(0,0)"/>
<path d="" fill="#FCFCFE" transform="translate(0,0)"/>
<path d="" fill="#FDFDFC" transform="translate(0,0)"/>
<path d="" fill="#F9FAFA" transform="translate(0,0)"/>
<path d="" fill="#F6F8F8" transform="translate(0,0)"/>
<path d="" fill="#F7F6F4" transform="translate(0,0)"/>
<path d="" fill="#F4F5F5" transform="translate(0,0)"/>
<path d="" fill="#F5F4F5" transform="translate(0,0)"/>
<path d="" fill="#F7F7F7" transform="translate(0,0)"/>
<path d="" fill="#F5F5F7" transform="translate(0,0)"/>
<path d="" fill="#D6D6D6" transform="translate(0,0)"/>
<path d="" fill="#797878" transform="translate(0,0)"/>
<path d="" fill="#E7E7E8" transform="translate(0,0)"/>
<path d="" fill="#CFCFCE" transform="translate(0,0)"/>
<path d="" fill="#F9F8FA" transform="translate(0,0)"/>
<path d="" fill="#F5F6F6" transform="translate(0,0)"/>
<path d="" fill="#E3E4E3" transform="translate(0,0)"/>
<path d="" fill="#BEBEBF" transform="translate(0,0)"/>
<path d="" fill="#F6F7F8" transform="translate(0,0)"/>
<path d="" fill="#FBFCFA" transform="translate(0,0)"/>
<path d="" fill="#FEFFFE" transform="translate(0,0)"/>
<path d="" fill="#F8FAFB" transform="translate(0,0)"/>
<path d="" fill="#ECECEC" transform="translate(0,0)"/>
<path d="" fill="#FEFFFE" transform="translate(0,0)"/>
<path d="" fill="#FEFEFE" transform="translate(0,0)"/>
<path d="" fill="#F8F9F8" transform="translate(0,0)"/>
<path d="" fill="#8B8D8A" transform="translate(0,0)"/>
<path d="" fill="#7E7E7F" transform="translate(0,0)"/>
<path d="" fill="#FCFBFB" transform="translate(0,0)"/>
<path d="" fill="#FFFFFF" transform="translate(0,0)"/>
<path d="" fill="#FFFFFF" transform="translate(0,0)"/>
<path d="" fill="#FEFFFE" transform="translate(0,0)"/>
<path d="" fill="#FEFDFF" transform="translate(0,0)"/>
<path d="" fill="#FEFDFD" transform="translate(0,0)"/>
<path d="" fill="#FFFFFE" transform="translate(0,0)"/>
<path d="" fill="#FEFFFE" transform="translate(0,0)"/>
<path d="" fill="#FEFFFC" transform="translate(0,0)"/>
<path d="" fill="#F7F8F7" transform="translate(0,0)"/>
<path d="" fill="#FFFDFF" transform="translate(0,0)"/>
<path d="" fill="#FFFEFE" transform="translate(0,0)"/>
<path d="" fill="#FCFEFE" transform="translate(0,0)"/>
<path d="" fill="#FCFDFD" transform="translate(0,0)"/>
<path d="" fill="#F9FBFA" transform="translate(0,0)"/>
<path d="" fill="#FBFBFF" transform="translate(0,0)"/>
<path d="" fill="#FEFFFF" transform="translate(0,0)"/>
<path d="" fill="#FDFDFD" transform="translate(0,0)"/>
<path d="" fill="#737173" transform="translate(0,0)"/>
<path d="" fill="#FEFEFD" transform="translate(0,0)"/>
<path d="" fill="#7A7D7A" transform="translate(0,0)"/>
<path d="" fill="#717271" transform="translate(0,0)"/>
<path d="" fill="#6F7170" transform="translate(0,0)"/>
<path d="" fill="#F9F9F8" transform="translate(0,0)"/>
<path d="" fill="#FFFFFF" transform="translate(0,0)"/>
<path d="" fill="#FFFBFD" transform="translate(0,0)"/>
<path d="" fill="#787978" transform="translate(0,0)"/>
<path d="" fill="#FAF9FA" transform="translate(0,0)"/>
<path d="" fill="#FBFCFD" transform="translate(0,0)"/>
<path d="" fill="#FBFDFE" transform="translate(0,0)"/>
<path d="" fill="#FFFEFF" transform="translate(0,0)"/>
<path d="" fill="#F8FAF7" transform="translate(0,0)"/>
<path d="" fill="#F7F9F9" transform="translate(0,0)"/>
<path d="" fill="#FFFEFF" transform="translate(0,0)"/>
<path d="" fill="#FEFDFF" transform="translate(0,0)"/>
<path d="" fill="#FCFEFE" transform="translate(0,0)"/>
<path d="" fill="#FEFEFD" transform="translate(0,0)"/>
<path d="" fill="#F8FAF9" transform="translate(0,0)"/>
<path d="" fill="#FFFFFF" transform="translate(0,0)"/>
<path d="" fill="#727172" transform="translate(0,0)"/>
<path d="" fill="#FFFEFD" transform="translate(0,0)"/>
<path d="" fill="#767576" transform="translate(0,0)"/>
<path d="" fill="#FFFEFE" transform="translate(0,0)"/>
<path d="" fill="#FDFDFE" transform="translate(0,0)"/>
<path d="" fill="#7E7F7E" transform="translate(0,0)"/>
<path d="" fill="#797979" transform="translate(0,0)"/>
<path d="" fill="#FCFBFB" transform="translate(0,0)"/>
<path d="" fill="#FCFCFD" transform="translate(0,0)"/>
<path d="" fill="#FFFFFE" transform="translate(0,0)"/>
<path d="" fill="#FFFFFE" transform="translate(0,0)"/>
<path d="" fill="#FDFCFE" transform="translate(0,0)"/>
<path d="" fill="#787878" transform="translate(0,0)"/>
<path d="" fill="#FDFCFC" transform="translate(0,0)"/>
<path d="" fill="#F8FAF9" transform="translate(0,0)"/>
<path d="" fill="#F1F3F2" transform="translate(0,0)"/>
<path d="" fill="#F8F8F9" transform="translate(0,0)"/>
<path d="" fill="#FBFCFB" transform="translate(0,0)"/>
<path d="" fill="#FAF8F9" transform="translate(0,0)"/>
</svg>
